<svg width="39" height="42" viewBox="0 0 39 42" fill="none" xmlns="http://www.w3.org/2000/svg">
<path d="M16.7089 0.879883H0.378906V14.2599H16.7089V0.879883Z" stroke="#8C2E47" stroke-width="0.75" stroke-miterlimit="10"/>
<path d="M4.51953 40.79V14.26H12.5595V40.79" stroke="#8C2E47" stroke-width="0.75" stroke-miterlimit="10"/>
<path d="M4.46875 18.5H12.6087" stroke="#8C2E47" stroke-width="0.75" stroke-miterlimit="10"/>
<path d="M4.46875 22.9299H12.6087" stroke="#8C2E47" stroke-width="0.75" stroke-miterlimit="10"/>
<path d="M4.46875 27.3601H12.6087" stroke="#8C2E47" stroke-width="0.75" stroke-miterlimit="10"/>
<path d="M4.46875 31.79H12.6087" stroke="#8C2E47" stroke-width="0.75" stroke-miterlimit="10"/>
<path d="M4.46875 36.23H12.6087" stroke="#8C2E47" stroke-width="0.75" stroke-miterlimit="10"/>
<path d="M8.54063 11.2199C10.5565 11.2199 12.1906 9.58576 12.1906 7.56992C12.1906 5.55408 10.5565 3.91992 8.54063 3.91992C6.52479 3.91992 4.89062 5.55408 4.89062 7.56992C4.89062 9.58576 6.52479 11.2199 8.54063 11.2199Z" stroke="#8C2E47" stroke-width="0.75" stroke-miterlimit="10"/>
<path d="M16.6992 2.82007L29.3692 7.39007C29.3692 7.39007 37.0192 9.90007 37.2292 16.6701C37.4392 23.4301 31.0292 23.8201 31.0292 23.8201C31.0292 23.8201 35.6992 21.8401 31.8092 18.6501C27.9192 15.4601 16.7292 12.1401 16.7292 12.1401" stroke="#8C2E47" stroke-width="0.75" stroke-miterlimit="10"/>
<path d="M36.3691 38.29L24.7791 34.15C24.7791 34.15 17.1291 31.64 16.9191 24.87C16.7091 18.11 23.1191 17.72 23.1191 17.72C23.1191 17.72 18.4491 19.7 22.3391 22.89C23.8691 24.14 25.8091 24.89 27.6291 25.61C28.6691 26.02 29.7191 26.41 30.7691 26.8C33.2591 27.73 36.3291 28.48 36.3591 31.7C36.3591 32.86 36.3391 34.03 36.3591 35.19C36.3591 36.08 36.3891 36.96 36.3891 37.85V38.28L36.3691 38.29Z" stroke="#8C2E47" stroke-width="0.75" stroke-miterlimit="10"/>
<path d="M26.9414 25.4301V19.6001" stroke="#8C2E47" stroke-width="0.75" stroke-miterlimit="10"/>
<path d="M26.9883 35.0601V40.6901" stroke="#8C2E47" stroke-width="0.75" stroke-miterlimit="10"/>
<path d="M0.0898438 40.73H38.6898" stroke="#8C2E47" stroke-width="0.75" stroke-miterlimit="10"/>
</svg>
