<svg width="82" height="82" viewBox="0 0 82 82" fill="none" xmlns="http://www.w3.org/2000/svg">
<circle cx="40.5491" cy="40.5491" r="39.2991" stroke="#8C2E47" stroke-width="2.5"/>
<g clip-path="url(#clip0_544_815)">
<path d="M17 19.8086C17.5536 18.9366 17.9674 18.8139 18.944 19.2322C20.4557 19.8795 21.9611 20.5406 23.4793 21.1716C24.3915 21.5508 24.9055 22.1991 25.0821 23.1584C25.2761 24.2113 25.518 25.2551 25.7515 26.3644H26.3731C37.9965 26.3644 49.6198 26.3635 61.2431 26.3699C61.6211 26.3699 62.0147 26.3935 62.3742 26.4972C63.5089 26.8245 64.1913 27.9729 63.9522 29.1249C62.8901 34.2514 61.8234 39.376 60.753 44.5006C60.5066 45.6817 59.6679 46.3782 58.4375 46.451C58.2545 46.4619 58.0706 46.4555 57.8867 46.4564C48.7867 46.4564 39.6866 46.4564 30.5875 46.4564C30.3907 46.4564 30.1949 46.4564 29.9383 46.4564C30.1636 47.5448 30.3797 48.585 30.605 49.6752H31.1935C40.0793 49.6752 48.9651 49.6752 57.8509 49.6789C58.1074 49.6789 58.375 49.6952 58.6187 49.7661C59.1088 49.9089 59.4104 50.3681 59.3957 50.8727C59.381 51.3737 59.0445 51.8065 58.547 51.9284C58.3419 51.9784 58.124 51.9966 57.9125 51.9975C48.9044 52.0011 39.8963 52.0011 30.8882 51.9993C29.4178 51.9993 28.5783 51.3083 28.2849 49.9034C26.5846 41.7519 24.8798 33.6013 23.1777 25.4506C23.0544 24.8596 22.9505 24.264 22.796 23.6812C22.7519 23.5139 22.591 23.3184 22.4328 23.2475C20.9716 22.5992 19.5031 21.9663 18.0272 21.3507C17.5701 21.1571 17.1986 20.9052 17 20.4433V19.8077V19.8086ZM26.2775 28.7021C26.2775 28.8085 26.2674 28.8704 26.2794 28.9276C27.3028 33.8295 28.3346 38.7304 29.3397 43.6359C29.427 44.0614 29.5889 44.1478 29.9944 44.1469C39.3069 44.1351 48.6193 44.1378 57.9327 44.1378C58.0982 44.1378 58.2628 44.1378 58.4513 44.1378C59.5263 38.975 60.5939 33.8504 61.6661 28.7012H26.2775V28.7021Z" fill="#8C2E47"/>
<path d="M50.5908 61.9998C50.2074 61.867 49.8083 61.7652 49.4414 61.5952C47.6399 60.7587 46.7093 58.8146 47.1866 56.9279C47.6868 54.953 49.4027 53.7382 51.5555 53.8355C53.3872 53.9183 54.9873 55.4085 55.2815 57.3071C55.6135 59.4457 54.1781 61.4779 52.0336 61.9098C51.9481 61.9271 51.8672 61.9698 51.7835 61.9998H50.5908ZM49.3899 57.8763C49.3807 58.8883 50.1945 59.7048 51.2069 59.7003C52.189 59.6957 52.9835 58.921 53.001 57.9499C53.0194 56.9334 52.2212 56.1087 51.2125 56.1005C50.223 56.0914 49.3991 56.8943 49.3899 57.8763Z" fill="#8C2E47"/>
<path d="M36.0886 62.0001C35.7052 61.8674 35.3061 61.7655 34.9401 61.5955C33.1322 60.7572 32.2108 58.8022 32.6972 56.8792C33.1405 55.1297 34.8665 53.6895 37.0174 53.8258C38.8593 53.9431 40.4694 55.3771 40.7784 57.2674C41.1306 59.4269 39.7034 61.4673 37.5323 61.9101C37.4459 61.9274 37.365 61.9701 37.2813 62.0001H36.0886ZM38.5052 57.9248C38.5144 56.9337 37.7264 56.1226 36.7341 56.1017C35.7511 56.0808 34.9079 56.8837 34.8904 57.8584C34.872 58.8668 35.6785 59.6915 36.6909 59.7015C37.6859 59.7106 38.496 58.9177 38.5052 57.9248Z" fill="#8C2E47"/>
<path d="M43.9823 34.5929C41.2448 34.5929 38.5063 34.5947 35.7688 34.5911C35.1582 34.5911 34.7011 34.2601 34.5605 33.74C34.4317 33.2663 34.6267 32.7298 35.0754 32.4898C35.2924 32.3734 35.5674 32.3116 35.8157 32.3107C41.2457 32.3007 46.6758 32.2997 52.1058 32.307C52.8883 32.3079 53.3647 32.7644 53.3647 33.4472C53.3647 34.1383 52.8543 34.5902 52.0589 34.5911C49.3664 34.5929 46.6748 34.5911 43.9823 34.5911V34.5929Z" fill="#8C2E47"/>
<path d="M43.8897 40.5132C41.5053 40.5132 39.1199 40.5178 36.7355 40.5105C35.9382 40.5078 35.4564 40.0859 35.438 39.413C35.4205 38.7593 35.8922 38.2519 36.5589 38.2346C37.1392 38.2201 37.7203 38.231 38.3015 38.231C42.5968 38.231 46.893 38.2301 51.1883 38.2319C52.0775 38.2319 52.632 38.8793 52.4279 39.664C52.3001 40.1568 51.912 40.485 51.3649 40.4987C50.494 40.5205 49.6223 40.5123 48.7515 40.5123C47.1312 40.5141 45.5109 40.5123 43.8897 40.5123V40.5132Z" fill="#8C2E47"/>
</g>
<defs>
<clipPath id="clip0_544_815">
<rect width="47" height="43" fill="white" transform="translate(17 19)"/>
</clipPath>
</defs>
</svg>
