<svg id="Layer_1" data-name="Layer 1" xmlns="http://www.w3.org/2000/svg" width="44.5" height="39.6" viewBox="0 0 44.5 39.6">
  <defs>
    <style>
      .cls-1 {
        fill: none;
        stroke: #8c2e47;
        stroke-linecap: round;
        stroke-linejoin: round;
        stroke-width: 1.04px;
      }
    </style>
  </defs>
  <g>
    <ellipse class="cls-1" cx="8.9" cy="6.2" rx="2.5" ry="2.4"/>
    <rect class="cls-1" x="8.9" y="0.6" height="0.03"/>
    <rect class="cls-1" x="14.6" y="6.1" height="0.03"/>
    <rect class="cls-1" x="12.9" y="2.2" height="0.03"/>
    <rect class="cls-1" x="4.8" y="2.2" height="0.03"/>
    <rect class="cls-1" x="4.8" y="10.1" height="0.03"/>
    <rect class="cls-1" x="12.9" y="10.1" height="0.03"/>
    <rect class="cls-1" x="3.1" y="6.1" height="0.03"/>
    <rect class="cls-1" x="8.9" y="11.7" height="0.03"/>
    <path class="cls-1" d="M26.1,34.3V28.2H15.5m10.6,0V21.1H15.5V33.5"/>
    <path class="cls-1" d="M34.3,17.1v-.8a4,4,0,0,0-4.1-3.9,4,4,0,0,0-4.1,3.9v4.8"/>
    <path class="cls-1" d="M23.7,17.1v-.8a4,4,0,0,0-4.1-3.9,3.9,3.9,0,0,0-4,3.9v4.8"/>
    <path class="cls-1" d="M41.4,37.9A4.5,4.5,0,0,1,38.8,39a4.3,4.3,0,0,1-3.2-1.6,4.5,4.5,0,0,0-3.2-1.6,4.3,4.3,0,0,0-3.1,1.6,6.1,6.1,0,0,1-2.5,1.5,2.3,2.3,0,0,1-1.2.1,5.5,5.5,0,0,1-2.7-1.6,4.5,4.5,0,0,0-3.2-1.6,4.3,4.3,0,0,0-3.1,1.6A4.7,4.7,0,0,1,13.4,39a4.3,4.3,0,0,1-3.2-1.6A4.5,4.5,0,0,0,7,35.8a4.5,4.5,0,0,0-2.6,1.1"/>
    <path class="cls-1" d="M41.4,33.2a4.5,4.5,0,0,1-2.6,1.1,4.7,4.7,0,0,1-3.2-1.6,4.5,4.5,0,0,0-3.2-1.6,4.3,4.3,0,0,0-3.1,1.6,6.1,6.1,0,0,1-2.5,1.5H25.6a4.6,4.6,0,0,1-2.7-1.5,4.5,4.5,0,0,0-3.2-1.6,4.3,4.3,0,0,0-3.1,1.6,4.9,4.9,0,0,1-3.2,1.5,4.5,4.5,0,0,1-3.2-1.5A4.5,4.5,0,0,0,7,31.1a4.3,4.3,0,0,0-2.6,1"/>
  </g>
</svg>
