<svg width="18" height="21" viewBox="0 0 18 21" fill="none" xmlns="http://www.w3.org/2000/svg">
<path d="M8.50098 0C13.1959 0 17.002 3.80602 17.002 8.50098C17.002 12.0929 14.4782 16.0074 9.49511 20.2871C8.92332 20.7782 8.07861 20.7782 7.50455 20.2852L7.17519 19.9996C2.41264 15.8326 0 12.0128 0 8.50098C0 3.80602 3.80602 0 8.50098 0ZM8.50098 1.30784C4.52832 1.30784 1.30784 4.52832 1.30784 8.50098C1.30784 11.5544 3.52978 15.0723 8.03412 19.0134L8.35894 19.295C8.44063 19.3651 8.56131 19.3651 8.64299 19.295C13.3652 15.2393 15.6941 11.627 15.6941 8.50098C15.6941 4.52832 12.4736 1.30784 8.50098 1.30784ZM8.50098 5.23137C10.3067 5.23137 11.7706 6.69522 11.7706 8.50098C11.7706 10.3067 10.3067 11.7706 8.50098 11.7706C6.69522 11.7706 5.23137 10.3067 5.23137 8.50098C5.23137 6.69522 6.69522 5.23137 8.50098 5.23137ZM8.50098 6.53921C7.41752 6.53921 6.53921 7.41752 6.53921 8.50098C6.53921 9.58443 7.41752 10.4627 8.50098 10.4627C9.58443 10.4627 10.4627 9.58443 10.4627 8.50098C10.4627 7.41752 9.58443 6.53921 8.50098 6.53921Z" fill="white"/>
</svg>
