<svg width="82" height="82" viewBox="0 0 82 82" fill="none" xmlns="http://www.w3.org/2000/svg">
<circle cx="40.5491" cy="40.5491" r="39.2991" stroke="#8C2E47" stroke-width="2.5"/>
<g clip-path="url(#clip0_544_814)">
<path d="M21.126 38.5645C21.126 38.4542 21.126 38.3789 21.126 38.3036C21.126 36.6502 21.126 34.9981 21.126 33.3446C21.126 32.8787 21.3192 32.6412 21.7904 32.553C23.0345 32.3194 24.2931 32.2181 25.5571 32.1701C27.4867 32.0974 29.4045 32.2168 31.3142 32.4933C31.5114 32.5218 31.71 32.5517 31.9323 32.5854C31.9376 32.5011 31.9442 32.4349 31.9442 32.3687C31.9442 30.614 31.9442 28.8594 31.9482 27.1047C31.9482 26.9633 31.9125 26.8919 31.7669 26.8452C31.1144 26.6362 30.4659 26.413 29.8161 26.1963C29.7552 26.1755 29.693 26.1612 29.6043 26.1353C29.6003 26.2157 29.5937 26.2806 29.5937 26.3468C29.5937 27.4344 29.5937 28.5206 29.5937 29.6082C29.5937 29.9716 29.4309 30.2286 29.1371 30.3376C28.662 30.5141 28.1802 30.1754 28.1789 29.6575C28.1763 28.4181 28.1723 27.1787 28.1842 25.938C28.1868 25.7174 28.126 25.6187 27.9049 25.5538C27.3782 25.3994 26.8607 25.2112 26.3406 25.0347C25.974 24.9101 25.794 24.683 25.7953 24.3546C25.7953 24.0289 25.9793 23.7992 26.3445 23.6759C27.9817 23.1282 29.6189 22.5831 31.2573 22.0367C34.2378 21.0426 37.217 20.0485 40.1962 19.0518C40.4027 18.983 40.5946 18.9817 40.801 19.0505C44.2461 20.2029 47.6938 21.3502 51.1401 22.5001C52.318 22.8933 53.4946 23.2865 54.6712 23.6798C55.018 23.7953 55.2046 24.0328 55.2059 24.3495C55.2085 24.6752 55.0352 24.9075 54.6844 25.0243C52.8766 25.6304 51.0687 26.2365 49.2581 26.8361C49.102 26.888 49.0517 26.9568 49.053 27.1177C49.0596 28.8217 49.057 30.5258 49.057 32.2285C49.057 32.2908 49.057 32.3531 49.057 32.4414C49.4527 32.3856 49.8272 32.3285 50.2031 32.2804C53.001 31.9183 55.7975 31.895 58.5914 32.3349C58.8336 32.3726 59.0731 32.4336 59.3114 32.4946C59.6846 32.5906 59.8765 32.8372 59.8765 33.2149C59.8765 34.9124 59.8765 36.61 59.8765 38.3075C59.8765 38.3828 59.8765 38.4581 59.8765 38.5515C59.9625 38.5567 60.0313 38.5632 60.1002 38.5632C60.7804 38.5632 61.462 38.5814 62.1423 38.558C62.6307 38.5411 63.0039 38.8124 63.0039 39.3925C62.9933 46.9834 62.9973 54.5744 62.9973 62.164C62.9973 62.7507 62.7445 62.9998 62.1489 62.9998C52.2757 62.9998 42.4011 62.9998 32.5279 62.9998C27.9698 62.9998 23.413 62.9998 18.8549 62.9998C18.2686 62.9998 18.0118 62.7494 18.0118 62.1783C18.0118 54.5874 18.0158 46.9977 18.0039 39.4068C18.0039 38.7929 18.393 38.5411 18.8708 38.558C19.5444 38.5826 20.2194 38.5645 20.8931 38.5645C20.9632 38.5645 21.0334 38.5645 21.1313 38.5645H21.126ZM58.471 58.4977V58.2291C58.471 50.1488 58.471 42.0699 58.471 33.9897C58.471 33.939 58.4855 33.8819 58.467 33.8391C58.4445 33.7872 58.3995 33.7158 58.3518 33.7067C58.1176 33.6587 57.8807 33.6224 57.6424 33.5925C55.7909 33.3511 53.934 33.3343 52.0745 33.4744C49.6658 33.6561 47.3166 34.1181 45.0322 34.8916C43.7431 35.3277 42.5004 35.865 41.296 36.4932C41.1928 36.5477 41.1068 36.5905 41.1094 36.7423C41.1293 38.07 41.1372 39.399 41.1478 40.7266C41.161 42.4359 41.1729 44.1464 41.1848 45.8556C41.1968 47.5402 41.21 49.2235 41.2219 50.908C41.2351 52.6679 41.247 54.429 41.259 56.1889C41.2682 57.7333 41.2748 59.2777 41.2841 60.8221C41.2841 60.9259 41.3013 61.0285 41.3106 61.1466C46.7739 58.5911 52.4875 57.7761 58.471 58.4977ZM39.8812 61.1284C39.8812 61.0259 39.8812 60.9571 39.8812 60.8883C39.8719 59.706 39.8614 58.525 39.8521 57.3426C39.8389 55.6075 39.8269 53.8723 39.815 52.1384C39.8031 50.4668 39.7899 48.7952 39.778 47.1249C39.7608 44.6785 39.7462 42.2321 39.7303 39.7844C39.7237 38.7747 39.7158 37.7637 39.6986 36.754C39.6986 36.68 39.6324 36.5736 39.5662 36.5386C38.5299 35.9974 37.4552 35.5393 36.3488 35.1538C33.0096 33.9884 29.5633 33.4576 26.0243 33.5471C24.9258 33.5757 23.8299 33.7145 22.7327 33.7989C22.5699 33.8119 22.5249 33.8742 22.5249 34.0364C22.5302 42.1088 22.5289 50.1813 22.5289 58.2537C22.5289 58.3199 22.5355 58.3861 22.5395 58.4419C28.5932 57.6606 34.3622 58.4899 39.8812 61.1297V61.1284ZM52.2995 24.3585C52.1923 24.3196 52.1354 24.2975 52.0772 24.2781C48.2695 23.0062 44.4618 21.7343 40.6528 20.4664C40.5628 20.4365 40.445 20.4339 40.3563 20.4625C36.5288 21.7356 32.7026 23.0127 28.8764 24.2898C28.8327 24.304 28.7917 24.3274 28.7202 24.3585C28.8062 24.3923 28.8579 24.4156 28.9121 24.4338C32.7079 25.7005 36.5037 26.9672 40.2981 28.2377C40.4424 28.2857 40.5654 28.2819 40.7084 28.2351C44.2395 27.0541 47.7719 25.877 51.3042 24.6986C51.6206 24.5934 51.9342 24.4831 52.2982 24.3585H52.2995ZM47.6501 27.3851C47.5363 27.4201 47.4688 27.4383 47.4013 27.4603C45.2188 28.1884 43.0351 28.9139 40.854 29.6459C40.6091 29.7276 40.3802 29.725 40.1353 29.6433C37.9291 28.9035 35.7215 28.1702 33.5139 27.4357C33.4676 27.4201 33.4186 27.4136 33.3617 27.3993C33.3551 27.4538 33.3471 27.4915 33.3471 27.5278C33.3471 29.2565 33.3471 30.9852 33.3432 32.7139C33.3432 32.8502 33.4093 32.8813 33.5218 32.9073C35.871 33.4316 38.1157 34.2337 40.2531 35.3225C40.3577 35.3757 40.4344 35.3757 40.5377 35.3199C42.7201 34.161 45.0283 33.3239 47.4436 32.7736C47.621 32.7334 47.6488 32.6581 47.6488 32.505C47.6448 30.8775 47.6461 29.2513 47.6461 27.6239C47.6461 27.5564 47.6461 27.4889 47.6461 27.3851H47.6501ZM21.126 39.9441C21.0321 39.9441 20.9619 39.9441 20.8931 39.9441C20.4907 39.9441 20.0897 39.9441 19.6874 39.9441C19.5047 39.9441 19.4134 40.0323 19.4134 40.2088C19.4134 47.2651 19.4134 54.3213 19.4095 61.3789C19.4095 61.5683 19.4518 61.6254 19.6543 61.6254C25.5147 61.6203 31.3751 61.6203 37.2355 61.6203C37.303 61.6203 37.3719 61.6151 37.4394 61.6112C37.3983 61.5554 37.3507 61.5294 37.3004 61.5099C35.5666 60.8169 33.7746 60.3198 31.9336 59.9915C29.5117 59.5593 27.0711 59.4321 24.6161 59.6138C23.732 59.6787 22.8466 59.7566 21.9863 59.9993C21.891 60.0265 21.7785 60.0226 21.6806 60.0032C21.3245 59.9331 21.1273 59.6618 21.1273 59.2595C21.1273 52.9093 21.1273 46.5578 21.1273 40.2075V39.9441H21.126ZM59.8739 39.9441C59.8739 40.044 59.8739 40.1193 59.8739 40.1932C59.8739 42.4761 59.8739 44.7577 59.8739 47.0405C59.8739 51.1222 59.8739 55.2038 59.8739 59.2842C59.8739 59.7786 59.5072 60.0927 59.0268 60.0058C57.4082 59.7164 55.7737 59.6229 54.1299 59.6372C50.8013 59.6657 47.5694 60.2147 44.442 61.3399C44.2381 61.4139 44.0356 61.4918 43.8331 61.5683C43.8358 61.5852 43.8371 61.6021 43.8398 61.619H44.0396C49.7968 61.619 55.554 61.619 61.3112 61.619C61.4947 61.619 61.5864 61.5307 61.5864 61.3542C61.5864 54.368 61.5864 47.3806 61.5864 40.3944C61.5864 40.3178 61.5785 40.2413 61.5878 40.166C61.6089 39.996 61.552 39.9324 61.3654 39.9389C60.9446 39.9531 60.5224 39.9428 60.1015 39.9441C60.0313 39.9441 59.9625 39.9441 59.8725 39.9441H59.8739Z" fill="#8C2E47"/>
<path d="M53.6463 38.654C54.4034 38.6916 55.1604 38.7266 55.9174 38.7682C56.2443 38.7863 56.4879 38.9382 56.5911 39.2536C56.7526 39.7467 56.3608 40.1789 55.8049 40.1503C55.0744 40.114 54.3425 40.066 53.6106 40.0699C51.2799 40.0829 48.9823 40.3333 46.7483 41.0225C45.8126 41.3106 44.9113 41.6805 44.0563 42.1529C43.6672 42.3683 43.2358 42.2632 43.0425 41.918C42.8453 41.5637 42.9737 41.1652 43.3668 40.9459C44.7353 40.1854 46.203 39.6753 47.729 39.3197C49.5276 38.9018 51.354 38.7137 53.199 38.6838C53.3485 38.6812 53.4968 38.6838 53.6463 38.6838C53.6463 38.6734 53.6463 38.663 53.6463 38.6514V38.654Z" fill="#8C2E47"/>
<path d="M53.6023 43.2563C54.3726 43.294 55.1429 43.3225 55.9118 43.3719C56.4227 43.4043 56.7245 43.8001 56.6014 44.2453C56.5127 44.5646 56.2176 44.78 55.8695 44.7527C54.5553 44.6489 53.2424 44.6437 51.9281 44.7307C49.5538 44.8877 47.235 45.2965 45.05 46.2647C44.7138 46.4139 44.3882 46.5866 44.0626 46.7579C43.6682 46.9655 43.246 46.8747 43.0462 46.5282C42.8437 46.1777 42.9721 45.7728 43.3625 45.5561C44.8183 44.7462 46.3814 44.2193 48.008 43.8624C49.8489 43.4575 51.7177 43.2953 53.6023 43.2589V43.2563Z" fill="#8C2E47"/>
<path d="M53.6597 52.459C54.43 52.4992 55.1989 52.5356 55.9692 52.5836C56.2564 52.6017 56.4682 52.7484 56.5767 53.0196C56.7686 53.5037 56.4033 53.9813 55.8541 53.9593C55.2651 53.9359 54.6761 53.8866 54.0872 53.8814C51.1292 53.8554 48.2268 54.1799 45.4633 55.2934C44.9736 55.4907 44.5064 55.7451 44.0326 55.9787C43.7375 56.124 43.4212 56.102 43.1962 55.9086C42.9765 55.7191 42.8746 55.4024 43.0109 55.1481C43.0996 54.9845 43.2518 54.8262 43.4146 54.7354C44.5872 54.0839 45.8366 53.6153 47.1389 53.2753C49.1797 52.7419 51.2589 52.5122 53.3659 52.4888C53.4625 52.4888 53.5604 52.4888 53.6571 52.4888C53.6571 52.4785 53.6571 52.4681 53.6571 52.459H53.6597Z" fill="#8C2E47"/>
<path d="M55.7332 49.3457C54.1317 49.2198 52.4813 49.2509 50.8349 49.4235C48.8272 49.6338 46.8724 50.0556 45.0248 50.8784C44.6767 51.0328 44.3445 51.221 44.0044 51.3884C43.692 51.5429 43.3479 51.4845 43.1335 51.247C42.9231 51.0147 42.8887 50.6513 43.0846 50.4008C43.1759 50.284 43.3082 50.1879 43.4393 50.1153C44.8064 49.3638 46.2676 48.8564 47.7896 48.5125C50.4577 47.909 53.1576 47.7662 55.8827 47.9713C56.3605 48.0076 56.6636 48.3126 56.6292 48.7045C56.5921 49.1289 56.2665 49.3755 55.7345 49.3444L55.7332 49.3457Z" fill="#8C2E47"/>
<path d="M26.9632 38.6868C29.5758 38.6972 32.1447 38.9957 34.6342 39.8159C35.5394 40.1144 36.409 40.4908 37.2401 40.9515C37.5379 41.1163 37.6875 41.394 37.6411 41.6731C37.5591 42.1675 37.0588 42.4102 36.5916 42.1792C36.2449 42.0079 35.906 41.8197 35.5527 41.6614C33.9539 40.945 32.2665 40.5401 30.5314 40.3078C28.9167 40.091 27.2928 40.0261 25.6649 40.091C25.3486 40.104 25.0323 40.1403 24.7146 40.1507C24.2262 40.1663 23.8861 39.7458 24.0039 39.2851C24.0767 39.0048 24.299 38.8023 24.614 38.7789C25.1633 38.7374 25.7125 38.7127 26.2631 38.6881C26.496 38.6777 26.729 38.6868 26.9619 38.6868H26.9632Z" fill="#8C2E47"/>
<path d="M26.9742 52.4902C28.8377 52.4967 30.6866 52.6564 32.5103 53.0483C34.1515 53.4013 35.7278 53.9269 37.1995 54.7342C37.529 54.9146 37.6878 55.1819 37.6455 55.4713C37.5727 55.9736 37.0592 56.2228 36.584 55.9853C36.2492 55.8178 35.921 55.6374 35.5808 55.4843C34.0562 54.7978 32.4481 54.3928 30.7938 54.154C28.9157 53.8828 27.0284 53.8192 25.1345 53.9295C24.9863 53.9386 24.8381 53.962 24.6885 53.962C24.3166 53.9633 24.0135 53.6907 23.9831 53.3338C23.9513 52.9704 24.2107 52.6291 24.5879 52.5954C25.161 52.5447 25.738 52.5227 26.3138 52.4954C26.5335 52.485 26.7545 52.4941 26.9742 52.4941V52.4902Z" fill="#8C2E47"/>
<path d="M27.1172 43.2539C29.6927 43.3071 32.2219 43.616 34.6703 44.4297C35.5743 44.7295 36.4451 45.1059 37.2736 45.5718C37.5317 45.7172 37.6667 45.9443 37.6455 46.235C37.6244 46.5179 37.4722 46.723 37.1969 46.8281C36.9917 46.9073 36.7866 46.8878 36.596 46.784C34.5142 45.6367 32.251 45.0942 29.8992 44.8385C28.1945 44.653 26.4885 44.6153 24.7786 44.7516C24.359 44.7853 24.0255 44.5232 23.9845 44.1364C23.9434 43.7406 24.2214 43.4045 24.6542 43.3772C25.4747 43.324 26.2966 43.2941 27.1185 43.2552L27.1172 43.2539Z" fill="#8C2E47"/>
<path d="M37.6495 50.773C37.6495 51.3207 37.0843 51.6322 36.5827 51.3804C36.2426 51.2104 35.9091 51.0261 35.561 50.8717C34.0827 50.2098 32.5262 49.8127 30.9248 49.5739C29.3128 49.3338 27.6915 49.2403 26.0636 49.2831C25.6361 49.2948 25.21 49.3286 24.7838 49.3506C24.3444 49.3727 24.0162 49.1144 23.9831 48.7238C23.95 48.3176 24.2319 48.0113 24.6872 47.9749C26.7611 47.8101 28.8297 47.8672 30.8904 48.1592C32.55 48.3941 34.1713 48.7783 35.7158 49.4285C36.2386 49.6478 36.7429 49.9113 37.2511 50.1631C37.5092 50.2916 37.6362 50.5122 37.6495 50.7743V50.773Z" fill="#8C2E47"/>
</g>
<defs>
<clipPath id="clip0_544_814">
<rect width="45" height="44" fill="white" transform="translate(18 19)"/>
</clipPath>
</defs>
</svg>
