<svg width="82" height="82" viewBox="0 0 82 82" fill="none" xmlns="http://www.w3.org/2000/svg">
<circle cx="40.5491" cy="40.5491" r="39.2991" stroke="#8C2E47" stroke-width="2.5"/>
<g clip-path="url(#clip0_544_813)">
<path d="M46.0972 44.8211H34.9215V60.9137C34.6983 60.9425 34.5296 60.9813 34.3623 60.9828C29.4691 60.9871 24.5772 60.9785 19.684 61C19.1488 61.0029 19.0159 60.8231 19.0159 60.2652C19.0279 53.0968 19.0239 45.9298 19 38.7613C18.9987 38.235 19.1674 38.0179 19.5951 37.8295C26.0662 34.9938 32.5267 32.1336 38.9991 29.3036C39.4202 29.1195 39.5596 28.9038 39.5583 28.4235C39.5463 24.899 39.5596 21.3759 39.5649 17.8513C39.5649 17.6141 39.5649 17.3753 39.5649 17.0015C42.5986 18.8968 45.5513 20.7417 48.6075 22.6514C47.5157 23.3402 46.5155 23.9729 45.5141 24.6013C44.2894 25.3692 43.0768 26.1601 41.8322 26.8863C41.0552 27.3393 41.4749 28.0712 41.4245 28.6752C41.4085 28.8592 41.7578 29.1698 41.9956 29.2763C48.476 32.1523 54.9617 35.0124 61.4541 37.8583C61.8353 38.0251 62 38.2163 61.9987 38.6822C61.9827 45.9456 61.9827 53.2104 61.9774 60.4737C61.9774 60.6132 61.9562 60.7512 61.9402 60.9382H46.0958V44.8254L46.0972 44.8211ZM20.8542 58.9365C21.0574 58.9667 21.1637 58.9954 21.2713 58.9954C25.0129 58.9969 28.7545 58.9868 32.4961 59.007C33.0101 59.0098 33.0566 58.7539 33.0553 58.3066C33.046 53.439 33.05 48.5728 33.05 43.7052C33.05 43.4248 33.05 43.1443 33.05 42.8366H47.9806V58.9523H60.0967C60.1153 58.7481 60.1418 58.5871 60.1418 58.4246C60.1471 52.2872 60.1418 46.1483 60.1617 40.0109C60.1631 39.5321 59.9745 39.3451 59.6119 39.1841C53.4436 36.4332 47.2766 33.678 41.1163 30.9041C40.6992 30.7171 40.3592 30.6754 39.9289 30.871C33.7712 33.6535 27.6082 36.4231 21.4386 39.174C20.9738 39.3811 20.833 39.6443 20.8356 40.1792C20.8569 46.1728 20.8516 52.1664 20.8529 58.1614C20.8529 58.3987 20.8529 58.6345 20.8529 58.9365H20.8542ZM44.9403 22.6571C43.7289 21.9022 42.6185 21.2091 41.4603 20.4857V24.8285C42.6345 24.0966 43.7329 23.4106 44.9403 22.6571Z" fill="#8C2E47"/>
<path d="M22.8008 55.8504V46.8657H31.1035V55.8504H22.8008ZM24.6284 53.853H29.2599V48.8732H24.6284V53.853Z" fill="#8C2E47"/>
<path d="M49.8887 46.8628H58.1927V55.8575H49.8887V46.8628ZM56.4023 48.8702H51.7176V53.9191C53.1827 53.9191 54.6145 53.9291 56.0463 53.9018C56.1672 53.8989 56.3837 53.6559 56.3864 53.5207C56.4103 51.9921 56.4023 50.4636 56.4023 48.8702Z" fill="#8C2E47"/>
<path d="M40.7312 41.9335C38.3576 41.9378 36.4477 39.9203 36.4144 37.3765C36.3826 34.8211 38.3218 32.6987 40.6927 32.6943C43.0795 32.69 45.0067 34.7651 45.0028 37.3348C44.9988 39.8815 43.0968 41.9292 40.7312 41.9335ZM40.7126 34.6946C39.3605 34.6946 38.2567 35.8738 38.2554 37.3175C38.2554 38.7354 39.3405 39.9289 40.6435 39.9419C42.0554 39.9548 43.1512 38.8087 43.1512 37.3204C43.1512 35.8594 42.0687 34.6946 40.7126 34.6946Z" fill="#8C2E47"/>
</g>
<defs>
<clipPath id="clip0_544_813">
<rect width="43" height="44" fill="white" transform="translate(19 17)"/>
</clipPath>
</defs>
</svg>
