<svg width="82" height="82" viewBox="0 0 82 82" fill="none" xmlns="http://www.w3.org/2000/svg">
<circle cx="40.5491" cy="40.5491" r="39.2991" stroke="#8C2E47" stroke-width="2.5"/>
<path d="M52.6339 60.3431C52.4985 60.3431 52.361 60.3431 52.2256 60.3431C43.0147 60.3431 33.8039 60.341 24.593 60.3431C23.1329 60.3431 21.7248 60.1136 20.4188 59.4437C19.0732 58.7551 18.0609 57.7606 17.6714 56.2636C17.211 54.4896 17.9192 52.7073 19.5231 51.5391C20.7167 50.6666 22.081 50.2386 23.5412 50.1435C24.5805 50.0752 25.6241 50.0876 26.6677 50.0856C29.0756 50.0794 31.4835 50.0814 33.8914 50.0856C34.8766 50.0856 35.8202 49.9284 36.6617 49.3846C37.9448 48.5576 37.9573 47.1971 36.6867 46.3535C36.4618 46.2046 36.218 46.0475 35.9618 45.9896C35.289 45.8387 34.6058 45.6484 33.9247 45.6402C30.8336 45.6029 27.7425 45.6236 24.6514 45.6236C24.491 45.6236 24.3327 45.6236 24.2473 45.6236C24.5868 45.1253 24.9347 44.6001 25.3033 44.0894C25.3679 43.9985 25.5179 43.9199 25.6283 43.9199C28.6069 43.9158 31.5876 43.8951 34.5663 43.9406C35.791 43.9592 36.9325 44.352 37.9177 45.1067C39.832 46.5727 39.8653 49.0476 37.9844 50.5549C36.7888 51.5143 35.3703 51.8141 33.8726 51.8182C30.7315 51.8244 27.5925 51.8203 24.4514 51.8182C23.1746 51.8182 21.956 52.0539 20.8604 52.7321C19.9814 53.278 19.3357 54.0079 19.2877 55.0975C19.2357 56.2719 19.8751 57.0721 20.8125 57.6717C21.9456 58.3974 23.2204 58.6269 24.5431 58.629C33.0707 58.6331 41.5983 58.6373 50.126 58.6187C50.8217 58.6187 51.3778 58.6497 51.7069 59.3858C51.8819 59.7765 52.236 60.0908 52.5089 60.4382C52.5505 60.4072 52.5943 60.3741 52.6359 60.3431H52.6339Z" fill="#8C2E47" stroke="#8C2E47"/>
<path d="M55.766 29.9058C61.7389 29.9058 66.5809 34.7477 66.5809 40.7206C66.5809 45.2902 63.3702 50.2702 57.0308 55.7149C56.3033 56.3396 55.2287 56.3396 54.4984 55.7124L54.0794 55.3491C48.0205 50.0479 44.9512 45.1884 44.9512 40.7206C44.9512 34.7477 49.7932 29.9058 55.766 29.9058ZM55.766 31.5696C50.7121 31.5696 46.615 35.6667 46.615 40.7206C46.615 44.6052 49.4417 49.0806 55.1721 54.0945L55.5853 54.4527C55.6893 54.5419 55.8428 54.5419 55.9467 54.4527C61.9543 49.293 64.9171 44.6976 64.9171 40.7206C64.9171 35.6667 60.82 31.5696 55.766 31.5696ZM55.766 36.5611C58.0633 36.5611 59.9256 38.4234 59.9256 40.7206C59.9256 43.0179 58.0633 44.8802 55.766 44.8802C53.4688 44.8802 51.6065 43.0179 51.6065 40.7206C51.6065 38.4234 53.4688 36.5611 55.766 36.5611ZM55.766 38.2249C54.3877 38.2249 53.2703 39.3423 53.2703 40.7206C53.2703 42.099 54.3877 43.2164 55.766 43.2164C57.1444 43.2164 58.2618 42.099 58.2618 40.7206C58.2618 39.3423 57.1444 38.2249 55.766 38.2249Z" fill="#8C2E47" stroke="#8C2E47"/>
<path d="M23.319 21C28.2349 21 32.2201 24.9851 32.2201 29.901C32.2201 33.662 29.5775 37.7607 24.3599 42.2419C23.7612 42.7561 22.8768 42.7561 22.2757 42.2398L21.9308 41.9409C16.9442 37.5777 14.418 33.5782 14.418 29.901C14.418 24.9851 18.4031 21 23.319 21ZM23.319 22.3694C19.1594 22.3694 15.7874 25.7414 15.7874 29.901C15.7874 33.0982 18.1139 36.7816 22.8302 40.9082L23.1703 41.203C23.2558 41.2765 23.3822 41.2765 23.4677 41.203C28.4122 36.9564 30.8507 33.1742 30.8507 29.901C30.8507 25.7414 27.4786 22.3694 23.319 22.3694ZM23.319 26.4776C25.2098 26.4776 26.7425 28.0103 26.7425 29.901C26.7425 31.7918 25.2098 33.3245 23.319 33.3245C21.4283 33.3245 19.8955 31.7918 19.8955 29.901C19.8955 28.0103 21.4283 26.4776 23.319 26.4776ZM23.319 27.847C22.1846 27.847 21.2649 28.7666 21.2649 29.901C21.2649 31.0355 22.1846 31.9551 23.319 31.9551C24.4535 31.9551 25.3731 31.0355 25.3731 29.901C25.3731 28.7666 24.4535 27.847 23.319 27.847Z" fill="#8C2E47" stroke="#8C2E47"/>
</svg>
