<svg width="37" height="48" viewBox="0 0 37 48" fill="none" xmlns="http://www.w3.org/2000/svg">
<path d="M18.8716 0.909912C20.4416 2.91991 20.0716 5.82991 18.0716 7.38991C16.5216 8.59991 16.2416 10.8499 17.4516 12.3999" stroke="#8C2E47" stroke-width="0.75" stroke-miterlimit="10"/>
<path d="M22.5584 4.62012C22.7284 6.22012 22.0684 7.77012 20.8084 8.76012C20.0484 9.36012 19.8284 10.4401 20.3084 11.2801" stroke="#8C2E47" stroke-width="0.75" stroke-miterlimit="10"/>
<path d="M18.6608 30.64C14.6908 30.64 10.9308 29.16 8.07084 26.49C5.22084 23.81 3.56084 20.22 3.41084 16.38C3.40084 16.09 3.50083 15.82 3.71083 15.61C3.91083 15.4 4.19084 15.28 4.47084 15.28H32.8608C33.1508 15.28 33.4308 15.4 33.6308 15.61C33.8308 15.82 33.9408 16.09 33.9208 16.38C33.7708 20.23 32.1108 23.82 29.2608 26.49C26.4008 29.17 22.6408 30.64 18.6708 30.64H18.6608Z" stroke="#8C2E47" stroke-width="0.75" stroke-miterlimit="10"/>
<path d="M33.0703 18.3701H36.8203" stroke="#8C2E47" stroke-width="0.75" stroke-miterlimit="10"/>
<path d="M0.5 18.3701H4.20999" stroke="#8C2E47" stroke-width="0.75" stroke-miterlimit="10"/>
<path d="M13.6898 26.74L7.83984 47.36" stroke="#8C2E47" stroke-width="0.75" stroke-miterlimit="10"/>
<path d="M29.4711 47.36L23.6211 26.74" stroke="#8C2E47" stroke-width="0.75" stroke-miterlimit="10"/>
<path d="M18.6618 40.9801C15.3718 40.9801 12.2818 39.5501 9.96176 36.9701C9.82176 36.8201 9.79176 36.5901 9.87176 36.4001C9.95176 36.2101 10.1418 36.0901 10.3518 36.0901H26.9818C27.1918 36.0901 27.3718 36.2101 27.4618 36.4001C27.5418 36.5901 27.5118 36.8101 27.3718 36.9701C25.0518 39.5601 21.9618 40.9801 18.6618 40.9801Z" stroke="#8C2E47" stroke-width="0.75" stroke-miterlimit="10"/>
</svg>
