<svg width="53" height="38" viewBox="0 0 53 38" fill="none" xmlns="http://www.w3.org/2000/svg">
<g id="Isolation_Mode" clip-path="url(#clip0_249_7059)">
<path id="Vector" d="M9.40003 16.9818V20.9041C9.99274 20.8027 10.5627 20.6767 11.1394 20.6135C12.0745 20.5111 13.016 20.4679 13.9516 20.367C15.1808 20.2342 16.4077 20.0791 17.6337 19.9167C18.6645 19.7803 19.5308 19.2836 20.2762 18.5896C21.1863 17.7427 22.0539 16.8504 22.9594 15.9985C23.4212 15.5641 23.9127 15.1575 24.4161 14.771C24.8401 14.4453 25.3343 14.3066 25.8823 14.3007C29.3465 14.2634 32.8102 14.2093 36.2743 14.1642C36.6842 14.1588 37.0964 14.202 37.5045 14.1779C38.4263 14.1238 39.1928 14.4521 39.9218 14.9943C42.3679 16.8131 44.834 18.6055 47.2942 20.4061C47.5632 20.603 47.8358 20.7977 48.1203 20.9709C48.2361 21.0414 48.387 21.0806 48.5243 21.086C48.9342 21.1015 49.3449 21.0851 49.7548 21.0951C50.8399 21.1224 51.7372 21.9351 51.8886 23.0044C52.1229 24.6604 52.3655 26.315 52.6044 27.9705C52.7298 28.8392 52.8611 29.707 52.9782 30.5766C53.1593 31.9183 52.184 33.0635 50.8235 33.0908C49.7603 33.1122 48.6962 33.104 47.6325 33.1085C47.5499 33.1085 47.4674 33.1085 47.368 33.1085C47.1387 34.6212 46.4024 35.8165 45.1486 36.6733C44.239 37.2951 43.2163 37.5748 42.1134 37.5366C39.9564 37.4615 37.731 35.9429 37.2382 33.1695C31.5026 33.2058 25.7629 33.2418 20.0091 33.2782C19.7391 34.7022 19.0238 35.836 17.8402 36.6538C16.9407 37.2755 15.928 37.5607 14.8324 37.5384C12.7657 37.4965 10.4934 36.0653 9.93302 33.3528H9.39456C9.39456 33.4583 9.39456 33.547 9.39456 33.6361C9.39456 34.7936 9.38955 35.9515 9.39593 37.109C9.40049 37.9404 8.62723 38.1365 8.12252 37.9163C7.80884 37.7794 7.64926 37.5152 7.6479 37.1777C7.64334 36.0257 7.64926 34.8736 7.65109 33.7221C7.65109 33.6106 7.65109 33.4997 7.65109 33.3741C7.24805 33.3741 6.87054 33.3728 6.49348 33.3741C5.90852 33.3769 5.32357 33.3837 4.73861 33.3846C3.22857 33.3869 2.1968 32.1161 2.53784 30.6512C2.9158 29.0289 3.36626 27.427 4.00912 25.8856C4.4769 24.7636 5.02812 23.6875 5.82235 22.7534C6.28831 22.2053 6.82449 21.7391 7.47875 21.4262C7.61097 21.363 7.65063 21.2934 7.65018 21.1533C7.64653 19.8198 7.6479 18.4859 7.65428 17.1523C7.65474 17.0145 7.60641 16.9677 7.47738 16.9518C5.24241 16.6757 3.40319 15.6578 1.96382 13.9455C0.948921 12.7389 0.321562 11.3462 0.0963324 9.77302C-0.108836 8.34036 0.00605836 6.94318 0.514876 5.59239C1.30637 3.49025 2.712 1.91796 4.72675 0.904642C6.50944 0.00820806 8.39334 -0.215559 10.331 0.204687C12.5131 0.678146 14.2625 1.84974 15.5327 3.68764C16.8923 5.65515 17.3592 7.83871 16.8782 10.1764C16.3224 12.8757 14.7745 14.8601 12.3184 16.1295C11.4125 16.5979 10.4437 16.8626 9.40049 16.9818H9.40003ZM47.3475 31.3675C47.3293 31.362 47.3439 31.3702 47.3585 31.3702C48.5129 31.3616 49.6668 31.3561 50.8212 31.3407C51.1153 31.3366 51.295 31.1023 51.2535 30.7958C51.1773 30.2337 51.0948 29.672 51.0127 29.1107C50.7296 27.1709 50.4451 25.2316 50.1629 23.2919C50.1177 22.9812 49.9605 22.8339 49.6477 22.8311C49.2374 22.8279 48.827 22.8261 48.4167 22.8302C47.9598 22.8343 47.5404 22.7024 47.1761 22.4423C45.8311 21.4812 44.4943 20.5089 43.1575 19.5365C41.6188 18.4167 40.085 17.2897 38.5435 16.1736C38.4076 16.0753 38.2367 16.0021 38.0721 15.9721C37.8272 15.928 37.5733 15.9194 37.323 15.9189C35.7505 15.9166 34.178 15.923 32.605 15.9189C32.4135 15.9184 32.3433 15.9639 32.3447 16.1718C32.3543 17.4675 32.3483 18.7637 32.3488 20.06C32.3488 20.1264 32.3575 20.1928 32.3638 20.2805H32.6438C35.455 20.2805 38.2663 20.2801 41.0776 20.2805C41.6607 20.2805 42.0008 20.6089 42.0013 21.1647C42.0013 21.7087 41.6707 22.0184 41.0812 22.022C40.7092 22.0243 40.3371 22.0229 39.9651 22.0229C36.3491 22.0229 32.7336 22.0229 29.1176 22.0229C25.5016 22.0229 22.099 22.0157 18.5898 22.0261C16.9197 22.0311 15.2478 21.9524 13.5809 22.143C12.654 22.249 11.7225 22.3145 10.7961 22.4268C10.3265 22.4837 9.86417 22.6042 9.40642 22.6942V31.594H9.92709C10.4719 28.9165 12.6148 27.4511 14.7919 27.3538C16.6876 27.2692 19.3384 28.4744 20.0109 31.5321C20.7422 31.5321 21.4772 31.5367 22.2117 31.5312C24.2018 31.5171 26.1919 31.4971 28.1821 31.483C31.1593 31.4621 34.1365 31.443 37.1137 31.4293C37.2692 31.4284 37.3193 31.3707 37.3531 31.2338C37.6467 30.0422 38.2782 29.0684 39.2776 28.348C40.5054 27.4629 41.8704 27.1568 43.3545 27.4716C44.8987 27.799 46.0591 28.6677 46.8054 30.0549C47.0252 30.4633 47.1633 30.9159 47.3466 31.368L47.3475 31.3675ZM8.56659 1.76105C4.90776 1.69238 1.62096 4.72324 1.73722 8.76379C1.83935 12.3127 4.83207 15.3035 8.57754 15.2812C12.2651 15.2594 15.2852 12.2322 15.302 8.53139C15.3194 4.78919 12.2095 1.73558 8.56614 1.76105H8.56659ZM45.672 32.465C45.6615 30.5766 44.1692 29.1348 42.392 29.0966C40.5227 29.0566 38.9817 30.5147 38.9461 32.3581C38.9105 34.1987 40.3732 35.7396 42.1759 35.7983C44.0397 35.8588 45.6414 34.3934 45.672 32.465ZM14.9751 35.796C16.8157 35.796 18.334 34.2851 18.3308 32.4581C18.3271 30.6084 16.8203 29.0993 14.9729 29.0962C13.1304 29.093 11.6017 30.6066 11.6117 32.4245C11.6222 34.3056 13.1095 35.7965 14.9751 35.7965V35.796ZM30.5944 15.9598C30.4403 15.9598 30.3049 15.9576 30.1699 15.9598C28.8185 15.9867 27.4676 16.029 26.1162 16.0326C25.7155 16.0335 25.3913 16.1449 25.1018 16.3996C24.8574 16.6148 24.6071 16.824 24.375 17.0518C23.7103 17.7049 23.0606 18.3735 22.3913 19.0216C21.9527 19.4464 21.4895 19.8462 21.0217 20.2714H30.5948V15.9598H30.5944ZM7.63695 23.4124C7.55762 23.4838 7.51249 23.5215 7.47054 23.5629C6.72099 24.2984 6.22539 25.2002 5.80366 26.144C5.10016 27.7185 4.62508 29.3681 4.24256 31.0455C4.15912 31.4107 4.35836 31.6472 4.74043 31.6477C5.1804 31.6477 5.62083 31.6436 6.0608 31.6427C6.58239 31.6417 7.10397 31.6427 7.63695 31.6427V23.4124Z" fill="#8C2E47"/>
<path id="Vector_2" d="M7.85335 9.72439C7.85335 10.5585 7.85335 11.3608 7.85335 12.1631C7.85335 12.6848 7.69788 12.8226 7.17447 12.8385C6.45775 12.8603 6.33237 12.6966 6.33601 12.0025C6.34924 9.69893 6.34103 7.39485 6.34103 5.09123C6.34103 4.60367 6.49422 4.44858 6.97568 4.44858C7.93268 4.44858 8.88968 4.4413 9.84667 4.45085C10.8917 4.46131 11.7424 4.86564 12.2139 5.82211C12.7122 6.83315 12.637 7.84147 11.9394 8.75246C11.3941 9.4647 10.6135 9.70438 9.75002 9.72167C9.20336 9.73258 8.65624 9.7244 8.10912 9.72485C8.03435 9.72485 7.95958 9.72485 7.8538 9.72485L7.85335 9.72439ZM7.87113 5.86804V8.3122C8.51809 8.3122 9.14773 8.33313 9.77555 8.30675C10.4503 8.27809 10.9354 7.79645 10.9596 7.18563C10.9883 6.46794 10.598 5.92944 9.92008 5.87896C9.24302 5.82847 8.55958 5.86804 7.87113 5.86804Z" fill="#8C2E47"/>
</g>
<defs>
<clipPath id="clip0_249_7059">
<rect width="53" height="38" fill="white"/>
</clipPath>
</defs>
</svg>
