<svg width="32" height="24" viewBox="0 0 32 24" fill="none" xmlns="http://www.w3.org/2000/svg">
<path d="M22.7118 23.3814C22.6313 23.3814 22.5496 23.3814 22.4692 23.3814C16.9952 23.3814 11.5212 23.3802 6.04721 23.3814C5.17945 23.3814 4.34263 23.245 3.56646 22.8469C2.76678 22.4377 2.16516 21.8466 1.93368 20.957C1.6601 19.9027 2.08099 18.8435 3.03417 18.1492C3.74348 17.6307 4.55431 17.3763 5.42208 17.3198C6.03979 17.2792 6.65997 17.2866 7.28016 17.2854C8.71117 17.2817 10.1422 17.2829 11.5732 17.2854C12.1587 17.2854 12.7195 17.192 13.2196 16.8688C13.9821 16.3773 13.9896 15.5688 13.2345 15.0674C13.1008 14.9789 12.9559 14.8855 12.8037 14.8511C12.4038 14.7614 11.9978 14.6484 11.593 14.6435C9.75596 14.6214 7.91892 14.6336 6.08188 14.6336C5.98656 14.6336 5.89248 14.6336 5.84172 14.6336C6.0435 14.3375 6.25023 14.0254 6.46934 13.7219C6.50771 13.6678 6.59684 13.6211 6.66245 13.6211C8.43265 13.6187 10.2041 13.6064 11.9743 13.6334C12.7022 13.6445 13.3805 13.8779 13.9661 14.3265C15.1037 15.1977 15.1235 16.6685 14.0057 17.5643C13.2951 18.1345 12.4521 18.3126 11.5621 18.3151C9.6953 18.3188 7.82979 18.3163 5.96304 18.3151C5.2042 18.3151 4.48003 18.4552 3.8289 18.8582C3.30651 19.1826 2.92276 19.6164 2.89429 20.264C2.86334 20.9619 3.24337 21.4374 3.80043 21.7938C4.47384 22.2251 5.23144 22.3615 6.0175 22.3627C11.0855 22.3652 16.1534 22.3676 21.2214 22.3566C21.6348 22.3566 21.9654 22.375 22.1609 22.8125C22.2649 23.0447 22.4754 23.2315 22.6375 23.4379C22.6623 23.4195 22.6883 23.3998 22.713 23.3814H22.7118Z" fill="white"/>
<path d="M24.5737 5.29248C28.1234 5.29248 31.001 8.17006 31.001 11.7197C31.001 14.4354 29.0929 17.395 25.3254 20.6308C24.8931 21.0021 24.2544 21.0021 23.8204 20.6293L23.5714 20.4134C19.9706 17.2629 18.1465 14.3749 18.1465 11.7197C18.1465 8.17006 21.0241 5.29248 24.5737 5.29248ZM24.5737 6.28129C21.5702 6.28129 19.1353 8.71617 19.1353 11.7197C19.1353 14.0283 20.8152 16.6881 24.2208 19.6678L24.4664 19.8807C24.5281 19.9337 24.6194 19.9337 24.6811 19.8807C28.2514 16.8143 30.0122 14.0832 30.0122 11.7197C30.0122 8.71617 27.5773 6.28129 24.5737 6.28129ZM24.5737 9.24772C25.939 9.24772 27.0458 10.3545 27.0458 11.7197C27.0458 13.085 25.939 14.1918 24.5737 14.1918C23.2085 14.1918 22.1017 13.085 22.1017 11.7197C22.1017 10.3545 23.2085 9.24772 24.5737 9.24772ZM24.5737 10.2365C23.7546 10.2365 23.0905 10.9006 23.0905 11.7197C23.0905 12.5389 23.7546 13.203 24.5737 13.203C25.3929 13.203 26.057 12.5389 26.057 11.7197C26.057 10.9006 25.3929 10.2365 24.5737 10.2365Z" fill="white"/>
<path d="M5.28988 0C8.2114 0 10.5798 2.36836 10.5798 5.28988C10.5798 7.525 9.0093 9.96085 5.90849 12.624C5.55269 12.9296 5.02705 12.9296 4.66983 12.6228L4.46488 12.4451C1.50131 9.85211 0 7.47517 0 5.28988C0 2.36836 2.36836 0 5.28988 0ZM5.28988 0.813827C2.81782 0.813827 0.813827 2.81782 0.813827 5.28988C0.813827 7.18992 2.19647 9.37898 4.99937 11.8314L5.20149 12.0066C5.25232 12.0503 5.32742 12.0503 5.37825 12.0066C8.31673 9.48289 9.76593 7.23511 9.76593 5.28988C9.76593 2.81782 7.76193 0.813827 5.28988 0.813827ZM5.28988 3.25531C6.41354 3.25531 7.32445 4.16622 7.32445 5.28988C7.32445 6.41354 6.41354 7.32445 5.28988 7.32445C4.16622 7.32445 3.25531 6.41354 3.25531 5.28988C3.25531 4.16622 4.16622 3.25531 5.28988 3.25531ZM5.28988 4.06914C4.61568 4.06914 4.06914 4.61568 4.06914 5.28988C4.06914 5.96407 4.61568 6.51062 5.28988 6.51062C5.96407 6.51062 6.51062 5.96407 6.51062 5.28988C6.51062 4.61568 5.96407 4.06914 5.28988 4.06914Z" fill="white"/>
</svg>
