<svg id="Layer_1" data-name="Layer 1" xmlns="http://www.w3.org/2000/svg" width="44.5" height="39.6" viewBox="0 0 44.5 39.6">
  <defs>
    <style>
      .cls-1 {
        fill: none;
        stroke: #8c2e47;
        stroke-linecap: round;
        stroke-linejoin: round;
        stroke-width: 1.04px;
      }
    </style>
  </defs>
  <g>
    <path class="cls-1" d="M5.8,27.1A6.9,6.9,0,0,0,9,26.3a11.4,11.4,0,0,0,2.9-2.9,14.3,14.3,0,0,0,1.8-3.5,5.6,5.6,0,0,0,.4-1.2v7.6h-.2a.5.5,0,0,0-.4.5.5.5,0,0,0-.5.4v1.3h3.4V27.2a.4.4,0,0,0-.4-.4.5.5,0,0,0-.5-.5h-.2V15.8c.4,0,.7-.2.7-.6h0a2.6,2.6,0,0,0,1.1-2,2.6,2.6,0,0,0-2.3-2.4,2.4,2.4,0,0,0-2.4,2.4,2.3,2.3,0,0,0,1.1,2h0a.6.6,0,0,0,.6.6v1.4a17.7,17.7,0,0,1-.8,2.5c-.8,2.1-2.2,4.9-4.5,6.2a6.3,6.3,0,0,1-5.4.3V26a.7.7,0,0,0,.6-.7H4a2.2,2.2,0,0,0,1.1-2,2.3,2.3,0,0,0-2.3-2.3A2.3,2.3,0,0,0,.4,23.2a2.4,2.4,0,0,0,1.1,2h0a.7.7,0,0,0,.7.7V36.4H2a.5.5,0,0,0-.5.5.5.5,0,0,0-.4.5v1.3H4.5V37.4a.5.5,0,0,0-.5-.5.5.5,0,0,0-.4-.5H3.4V26.7A10.9,10.9,0,0,0,5.8,27.1Z"/>
    <path class="cls-1" d="M43,36.9h0a.5.5,0,0,0-.5-.5h-.2V26a.7.7,0,0,0,.7-.7h0a2.4,2.4,0,0,0,1.1-2,2.3,2.3,0,0,0-2.4-2.3,2.3,2.3,0,0,0-2.3,2.3,2.2,2.2,0,0,0,1.1,2h0a.7.7,0,0,0,.6.7v.2a6.3,6.3,0,0,1-5.4-.3c-2.3-1.3-3.7-4.1-4.5-6.2a17.7,17.7,0,0,1-.8-2.5V15.8a.6.6,0,0,0,.6-.6h0a2.3,2.3,0,0,0,1.1-2,2.3,2.3,0,0,0-2.3-2.4,2.6,2.6,0,0,0-2.4,2.4,2.6,2.6,0,0,0,1.1,2h0c0,.4.3.6.7.6V26.3H29a.5.5,0,0,0-.5.5.4.4,0,0,0-.4.4v1.3h3.4V27.2a.5.5,0,0,0-.5-.4.5.5,0,0,0-.4-.5h-.2V18.7a5.6,5.6,0,0,0,.4,1.2,14.3,14.3,0,0,0,1.8,3.5,11.4,11.4,0,0,0,2.9,2.9,6.9,6.9,0,0,0,3.2.8,10.9,10.9,0,0,0,2.4-.4v9.7h-.2a.5.5,0,0,0-.4.5.5.5,0,0,0-.5.5v1.3h3.4V37.4A.5.5,0,0,0,43,36.9Z"/>
    <polygon class="cls-1" points="16.5 29.8 6.2 39.5 38.2 39.5 27.9 29.8 16.5 29.8"/>
  </g>
</svg>
