<svg id="Layer_1" data-name="Layer 1" xmlns="http://www.w3.org/2000/svg" width="44.5" height="39.6" viewBox="0 0 44.5 39.6">
  <defs>
    <style>
      .cls-1 {
        fill: none;
        stroke: #8c2e47;
        stroke-linecap: round;
        stroke-linejoin: round;
        stroke-width: 1.04px;
      }
    </style>
  </defs>
  <g>
    <path class="cls-1" d="M41.2,37.3a3.3,3.3,0,0,0-2-2.3,3.6,3.6,0,0,0,.2-2.3,3.5,3.5,0,0,0-2.9-2.8,3.6,3.6,0,0,0-2.7.7,3.6,3.6,0,0,0-3.2-1.9,3.4,3.4,0,0,0-3,1.7,2.7,2.7,0,0,0-1.8-.5c-.9,0-2.2.6-4.2,1.9a3.5,3.5,0,0,0-1-1.9,3.3,3.3,0,0,0-2.7-1.2,3,3,0,0,0-1.6.5A3.4,3.4,0,0,0,15.1,28a2.1,2.1,0,0,0-1.2-.4,2.8,2.8,0,0,0-1.3,0,3.4,3.4,0,0,0-2.8,2.7c0,.3-.1.5-.1.8h0a3.7,3.7,0,0,0-2.1,1.2,4,4,0,0,0-.8,2.3h0a3.5,3.5,0,0,0-3.5,2.7,1.2,1.2,0,0,0,1.2,1.5H40a1.2,1.2,0,0,0,1.2-1.5Z"/>
    <line class="cls-1" x1="15.1" y1="14.5" x2="15.1" y2="28.7"/>
    <line class="cls-1" x1="19.7" y1="14.3" x2="15.1" y2="18.9"/>
    <line class="cls-1" x1="15.1" y1="17.6" x2="10.5" y2="13"/>
    <path class="cls-1" d="M18.9,22.2a7.2,7.2,0,0,1-4.4-1.6A6.8,6.8,0,0,1,9,22.1,6.9,6.9,0,0,1,8.3,8.6V7.7A6.8,6.8,0,0,1,21.9,6.5a5.3,5.3,0,0,1,0,2.5h0a6.8,6.8,0,0,1-2.3,13ZM21.3,8.9Z"/>
    <line class="cls-1" x1="34.1" y1="21" x2="34.1" y2="31.1"/>
    <line class="cls-1" x1="36.6" y1="20.6" x2="34.2" y2="23"/>
    <line class="cls-1" x1="34" y1="22.3" x2="32.3" y2="20.5"/>
    <path class="cls-1" d="M36.5,25.7a4.7,4.7,0,0,1-3-1,4.7,4.7,0,0,1-7.6-2.9,4.6,4.6,0,0,1,3.3-5.2v-.4a4.7,4.7,0,0,1,4.6-4.7,4.7,4.7,0,0,1,4.8,3.9,7.6,7.6,0,0,1,.1,1.5,4.7,4.7,0,0,1-1.8,8.8Z"/>
  </g>
</svg>
