<svg id="Layer_1" data-name="Layer 1" xmlns="http://www.w3.org/2000/svg" width="44.5" height="39.6" viewBox="0 0 44.5 39.6">
  <defs>
    <style>
      .cls-1 {
        fill: none;
        stroke: #8c2e47;
        stroke-linecap: round;
        stroke-linejoin: round;
        stroke-width: 1.04px;
      }
    </style>
  </defs>
  <path class="cls-1" d="M39.4,35H31.5a2.6,2.6,0,0,0,1.4-2.1c0-1.5-1.8-2.6-3.3-2.6l-2.2.3a8.3,8.3,0,0,1-1.4-3,7.5,7.5,0,0,1,1-5.5l1.1-1.3a7.3,7.3,0,0,0,2.3-6.7c-1.2-4.1-6.3-7-7.8-7.7a3.6,3.6,0,0,0,1.3-2.6A3.8,3.8,0,0,0,22.3.9h-.4a4,4,0,0,0-1.5,2.9,3.7,3.7,0,0,0,1.2,2.6c-1.3.8-5.8,3.6-7.3,7.7-.1.2-1.2,3.4,1.7,6.7,0,0,2.4,2.5,2.6,4.8a7.5,7.5,0,0,1-1.5,5l-2.2-.3c-1.5,0-3.3,1.1-3.3,2.6A2.6,2.6,0,0,0,13,35H5.1a2.1,2.1,0,0,0,0,4.2H39.4a2.1,2.1,0,0,0,0-4.2ZM22.3,33.9A5.2,5.2,0,0,0,25,35H19.5A5.6,5.6,0,0,0,22.3,33.9Zm2.8-18.6c0-2.3-1.4-4.1-3-4.1s-2.9,1.8-2.9,4.1a4.4,4.4,0,0,0,1.9,3.9,3.1,3.1,0,0,1-2.4-.3,4.2,4.2,0,0,1-1.6-5.4,14.9,14.9,0,0,1,5-6.6c3.1,2.5,5,4.8,5.5,6.6a4.5,4.5,0,0,1-2,5.4,3.3,3.3,0,0,1-2.5.3C24.3,18.7,25.1,17.1,25.1,15.3Z"/>
</svg>
