<svg width="35" height="27" viewBox="0 0 35 27" fill="none" xmlns="http://www.w3.org/2000/svg">
<g clip-path="url(#clip0_547_130)">
<path d="M33.6813 24.6899C32.8713 24.7099 32.1312 24.9299 31.4412 25.3699C30.4612 25.9999 29.3812 26.3199 28.4112 26.3199C27.1412 26.3199 26.1312 26.0599 25.2212 25.4999C23.5012 24.4299 21.8412 24.4899 20.1012 25.5199C18.1512 26.6699 16.1113 26.6699 14.1613 25.4999C12.7613 24.6599 11.3712 24.4399 9.86125 25.0699C9.60125 25.1799 9.37125 25.3499 9.12125 25.4899C7.09125 26.6399 5.05125 26.6599 3.04125 25.4899C2.25125 25.0299 1.45125 24.7199 0.53125 24.6999" stroke="#8C2E47" stroke-width="1.04" stroke-linecap="round" stroke-linejoin="round"/>
<path d="M1.85938 18.78L10.9094 13.55C11.7494 13.06 12.0694 12 11.6194 11.13L10.5294 9.01C10.0594 8.1 10.4294 6.99 11.3394 6.53L23.1094 0.710004C23.9894 0.270004 25.0594 0.610004 25.5294 1.48C26.0094 2.37 25.6794 3.48 24.7994 3.96L17.9094 7.7C16.9794 8.21 16.6694 9.39 17.2394 10.29L22.4194 18.44" stroke="#8C2E47" stroke-width="1.04" stroke-linecap="round" stroke-linejoin="round"/>
<path d="M32.8316 11.74C32.8316 14.36 30.7116 16.48 28.0916 16.48C25.4716 16.48 23.3516 14.36 23.3516 11.74C23.3516 9.12 25.4716 7 28.0916 7C30.7116 7 32.8316 9.12 32.8316 11.74Z" stroke="#8C2E47" stroke-width="1.04" stroke-linecap="round" stroke-linejoin="round"/>
<path d="M33.6813 18.47C32.8713 18.49 32.1312 18.71 31.4412 19.15C30.4612 19.78 29.3812 20.1 28.4112 20.1C27.1412 20.1 26.1312 19.84 25.2212 19.28C23.5012 18.21 21.8412 18.27 20.1012 19.3C18.1512 20.45 16.1113 20.45 14.1613 19.28C12.7613 18.44 11.3712 18.22 9.86125 18.85C9.60125 18.96 9.37125 19.13 9.12125 19.27C7.09125 20.42 5.05125 20.44 3.04125 19.27C2.25125 18.81 1.45125 18.5 0.53125 18.48" stroke="#8C2E47" stroke-width="1.04" stroke-linecap="round" stroke-linejoin="round"/>
</g>
<defs>
<clipPath id="clip0_547_130">
<rect width="34.2" height="26.9" fill="white"/>
</clipPath>
</defs>
</svg>
