<svg width="47" height="43" viewBox="0 0 47 43" fill="none" xmlns="http://www.w3.org/2000/svg">
<g clip-path="url(#clip0_547_53)">
<path d="M2.94922 42.47V3.59002C2.94922 1.90002 4.32922 0.52002 6.01922 0.52002H25.4592C27.1492 0.52002 28.5292 1.89002 28.5292 3.59002V42.47" stroke="#8C2E47" stroke-width="1.04" stroke-linecap="round" stroke-linejoin="round"/>
<path d="M0.519531 42.47H30.9495" stroke="#8C2E47" stroke-width="1.04" stroke-linecap="round" stroke-linejoin="round"/>
<path d="M28.5312 33.26H31.6012C32.7312 33.26 33.6513 34.18 33.6513 35.31V40.43C33.6513 41.56 34.5713 42.48 35.7013 42.48H37.7512C38.8812 42.48 39.8012 41.56 39.8012 40.43V19.97" stroke="#8C2E47" stroke-width="1.04" stroke-linejoin="round"/>
<path d="M24.4291 4.61011H7.03906V14.8401H24.4291V4.61011Z" stroke="#8C2E47" stroke-width="1.04" stroke-linejoin="round"/>
<path d="M36.7109 3.59009V8.71009" stroke="#8C2E47" stroke-width="1.04" stroke-linecap="round" stroke-linejoin="round"/>
<path d="M42.8516 3.59009V8.71009" stroke="#8C2E47" stroke-width="1.04" stroke-linecap="round" stroke-linejoin="round"/>
<path d="M15.2197 37.35L19.3197 29.17H13.1797L17.2697 20.98" stroke="#8C2E47" stroke-width="1.04" stroke-linecap="round" stroke-linejoin="round"/>
<path d="M44.9006 15.87C44.9006 18.13 42.6106 19.96 39.7806 19.96C36.9506 19.96 34.6606 18.13 34.6606 15.87V12.8L33.6406 11.78V8.70996H45.9206V11.78L44.9006 12.8V15.87Z" stroke="#8C2E47" stroke-width="1.04" stroke-linejoin="round"/>
</g>
<defs>
<clipPath id="clip0_547_53">
<rect width="46.44" height="42.99" fill="white"/>
</clipPath>
</defs>
</svg>
