<svg width="82" height="82" viewBox="0 0 82 82" fill="none" xmlns="http://www.w3.org/2000/svg">
<path d="M21.6621 38V27.328H28.6541V28.512H22.9901V31.952H28.5421V33.136H22.9901V36.816H28.6541V38H21.6621ZM38.1474 38L34.7394 33.456L31.3314 38H29.7154L33.8754 32.528L29.9554 27.328H31.5714L34.7394 31.6L37.8914 27.328H39.5074L35.6034 32.512L39.7474 38H38.1474ZM41.2089 38V27.328H45.4969C47.6409 27.328 48.8409 28.8 48.8409 30.544C48.8409 32.288 47.6089 33.76 45.4969 33.76H42.5369V38H41.2089ZM47.4649 30.544C47.4649 29.344 46.6009 28.512 45.3369 28.512H42.5369V32.576H45.3369C46.6009 32.576 47.4649 31.744 47.4649 30.544ZM50.1676 32.672C50.1676 29.52 52.2956 27.152 55.4636 27.152C58.6156 27.152 60.7596 29.52 60.7596 32.672C60.7596 35.824 58.6156 38.192 55.4636 38.192C52.2956 38.192 50.1676 35.824 50.1676 32.672ZM59.3836 32.672C59.3836 30.176 57.8476 28.336 55.4636 28.336C53.0636 28.336 51.5436 30.176 51.5436 32.672C51.5436 35.152 53.0636 37.008 55.4636 37.008C57.8476 37.008 59.3836 35.152 59.3836 32.672ZM22.2364 54V52.208C26.6044 48.992 27.8844 47.888 27.8844 46.576C27.8844 45.648 27.0364 45.184 26.1404 45.184C24.9404 45.184 24.0124 45.664 23.2924 46.416L21.9964 44.912C23.0364 43.712 24.6204 43.168 26.1084 43.168C28.3804 43.168 30.1884 44.448 30.1884 46.576C30.1884 48.4 28.6844 49.984 25.8204 52H30.2684V54H22.2364ZM31.6221 48.672C31.6221 45.92 32.9821 43.168 36.0381 43.168C39.0781 43.168 40.4541 45.92 40.4541 48.672C40.4541 51.424 39.0781 54.192 36.0381 54.192C32.9821 54.192 31.6221 51.424 31.6221 48.672ZM38.1341 48.672C38.1341 46.704 37.5581 45.184 36.0381 45.184C34.5021 45.184 33.9261 46.704 33.9261 48.672C33.9261 50.64 34.5021 52.176 36.0381 52.176C37.5581 52.176 38.1341 50.64 38.1341 48.672ZM41.752 54V52.208C46.12 48.992 47.4 47.888 47.4 46.576C47.4 45.648 46.552 45.184 45.656 45.184C44.456 45.184 43.528 45.664 42.808 46.416L41.512 44.912C42.552 43.712 44.136 43.168 45.624 43.168C47.896 43.168 49.704 44.448 49.704 46.576C49.704 48.4 48.2 49.984 45.336 52H49.784V54H41.752ZM51.1378 48.672C51.1378 45.92 52.4978 43.168 55.5538 43.168C58.5938 43.168 59.9698 45.92 59.9698 48.672C59.9698 51.424 58.5938 54.192 55.5538 54.192C52.4978 54.192 51.1378 51.424 51.1378 48.672ZM57.6498 48.672C57.6498 46.704 57.0738 45.184 55.5538 45.184C54.0178 45.184 53.4418 46.704 53.4418 48.672C53.4418 50.64 54.0178 52.176 55.5538 52.176C57.0738 52.176 57.6498 50.64 57.6498 48.672Z" fill="#8C2E47"/>
<circle cx="40.5491" cy="40.5491" r="39.2991" stroke="#8C2E47" stroke-width="2.5"/>
</svg>
