<svg width="82" height="82" viewBox="0 0 82 82" fill="none" xmlns="http://www.w3.org/2000/svg">
<circle cx="40.5491" cy="40.5491" r="39.2991" stroke="#8C2E47" stroke-width="2.5"/>
<path d="M28.6801 53.7773C28.1783 53.5655 27.9409 53.7249 27.7333 54.1856C26.847 56.1527 25.9174 58.0995 25.0042 60.054C24.9495 60.1707 24.8947 60.2873 24.8341 60.401C24.5496 60.9404 24.0882 61.1309 23.6075 60.9103C23.1211 60.6868 22.9462 60.161 23.2009 59.5933C23.5566 58.8003 23.9344 58.0169 24.3035 57.2296C24.8764 56.005 25.4503 54.7794 26.0222 53.5538C26.0885 53.4109 26.1481 53.2651 26.2212 53.096C25.3474 52.5984 24.6053 51.9987 24.0536 51.1813C23.4076 50.225 23.0106 49.1801 23.0096 48.0167C23.0019 41.3872 22.9904 34.7577 23.0144 28.1292C23.0231 25.8422 25.0542 23.6117 27.3065 23.4737C29.2511 23.3551 31.2054 23.3969 33.1558 23.3979C33.5576 23.3979 33.7863 23.2861 33.9805 22.9216C34.3968 22.1402 34.8745 21.3928 35.3109 20.622C35.5493 20.2002 35.8906 19.999 36.3664 20C38.9089 20.0029 41.4524 20.0029 43.995 20C44.4708 20 44.812 20.1992 45.0514 20.622C45.5118 21.4346 46.0011 22.2306 46.4568 23.045C46.601 23.3036 46.7682 23.3959 47.0614 23.394C48.7724 23.3804 50.4835 23.3784 52.1945 23.3901C54.8409 23.4076 56.849 25.0773 57.3065 27.6481C57.3738 28.0262 57.3623 28.4208 57.3623 28.8076C57.3652 34.9842 57.345 41.1608 57.3738 47.3374C57.3854 49.8148 56.4529 51.711 54.3266 52.9774C54.2728 53.0095 54.2286 53.0562 54.1488 53.1203C54.2122 53.2661 54.2709 53.4119 54.3382 53.5538C55.2581 55.5229 56.1886 57.4872 57.0893 59.4651C57.2143 59.7391 57.2998 60.124 57.2037 60.3816C57.1105 60.6323 56.7798 60.9045 56.5183 60.9482C56.2597 60.991 55.9291 60.8005 55.682 60.6333C55.5301 60.5303 55.4667 60.2844 55.3783 60.0949C54.4554 58.1267 53.5201 56.1654 52.6262 54.1836C52.4185 53.7239 52.1811 53.5635 51.6783 53.7764C52.0484 54.7755 52.4195 55.7815 52.7915 56.7864C53.1443 57.7379 53.5115 58.6836 53.847 59.641C54.1132 60.402 53.6518 61.0697 52.9395 60.99C52.5281 60.9434 52.2916 60.68 52.1513 60.3048C51.8485 59.4903 51.5294 58.6807 51.2429 57.8594C51.1487 57.5892 51.0266 57.4911 50.7354 57.4911C43.6989 57.4998 36.6624 57.4998 29.625 57.4911C29.3338 57.4911 29.2117 57.5892 29.1175 57.8594C28.8195 58.7108 28.4984 59.5535 28.1706 60.3932C28.0236 60.7694 27.7294 61.0522 27.3295 60.9725C27.0364 60.9142 26.6538 60.7159 26.5432 60.4729C26.4183 60.1969 26.475 59.7732 26.5855 59.4612C27.2046 57.7156 27.863 55.9856 28.508 54.2497C28.5638 54.1 28.6176 53.9494 28.6811 53.7764L28.6801 53.7773ZM40.2134 25.2552C36.2164 25.2552 32.2195 25.2853 28.2235 25.2426C26.0664 25.2192 24.7889 26.8628 24.8005 28.6929C24.8418 34.9958 24.813 41.2998 24.8178 47.6037C24.8197 50.0762 26.5019 51.8617 28.9445 51.8704C36.426 51.8967 43.9075 51.8938 51.389 51.8724C53.7931 51.8656 55.5292 50.1064 55.534 47.7222C55.5474 41.3056 55.5455 34.8889 55.5244 28.4723C55.5224 27.9883 55.4061 27.4634 55.1966 27.0299C54.5775 25.7509 53.4894 25.2445 52.1061 25.2494C48.1419 25.263 44.1766 25.2542 40.2124 25.2542L40.2134 25.2552ZM29.9663 55.6133H50.3941C50.2047 55.0924 50.0125 54.6326 49.8721 54.1583C49.7664 53.8026 49.5789 53.7083 49.2175 53.7093C44.6323 53.7229 40.0461 53.7181 35.4609 53.7181C33.9911 53.7181 32.5213 53.7132 31.0506 53.7249C30.8987 53.7258 30.6565 53.7871 30.6123 53.8891C30.3729 54.4441 30.1826 55.0204 29.9672 55.6123L29.9663 55.6133ZM35.8444 23.3483H44.5112C44.2372 22.8798 44.0084 22.457 43.7422 22.0595C43.672 21.9545 43.4845 21.8768 43.35 21.8758C41.24 21.8642 39.13 21.8632 37.0191 21.8768C36.8739 21.8768 36.6749 21.972 36.5952 22.0887C36.3337 22.4706 36.1155 22.8827 35.8435 23.3473L35.8444 23.3483Z" fill="#8C2E47"/>
<path d="M40.202 26.0796C44.1663 26.0796 48.1315 26.0796 52.0958 26.0796C53.776 26.0796 54.7181 27.0126 54.721 28.7096C54.7287 32.815 54.7315 36.9204 54.72 41.0259C54.7152 42.8025 53.8145 44.0204 52.2303 44.4218C51.9102 44.5024 51.5661 44.5102 51.2335 44.5112C43.8635 44.516 36.4935 44.4947 29.1244 44.5287C27.2432 44.5374 26.033 43.3284 25.7571 42.0804C25.6745 41.7062 25.6389 41.3136 25.6379 40.9296C25.6293 36.8728 25.6293 32.816 25.6341 28.7582C25.636 27.0019 26.5636 26.0786 28.3083 26.0786C32.2726 26.0786 36.2378 26.0786 40.202 26.0786V26.0796ZM27.4855 30.3502C27.7133 30.3502 27.9007 30.3502 28.0892 30.3502C34.9507 30.3502 41.8112 30.3502 48.6727 30.3541C48.9092 30.3541 49.1581 30.3668 49.3792 30.4416C49.8118 30.5874 49.9992 30.9266 49.9598 31.3853C49.9243 31.7994 49.607 32.1269 49.1822 32.1774C48.9928 32.1998 48.7986 32.194 48.6073 32.194C41.7785 32.194 34.9487 32.194 28.1199 32.194C27.9181 32.194 27.7162 32.194 27.4768 32.194C27.4768 32.4243 27.4768 32.5847 27.4768 32.7451C27.4768 35.4781 27.4759 38.2102 27.4768 40.9432C27.4768 42.199 27.945 42.6723 29.1802 42.6723C36.505 42.6723 43.8299 42.6723 51.1547 42.6723C52.4197 42.6723 52.8792 42.2068 52.8792 40.916C52.8801 36.9059 52.8792 32.8957 52.8792 28.8855C52.8792 27.9923 52.81 27.9224 51.9237 27.9224C44.0865 27.9224 36.2503 27.9224 28.4131 27.9224C28.2535 27.9224 28.0594 27.8738 27.9421 27.9467C27.7623 28.0584 27.5191 28.247 27.5047 28.42C27.4518 29.042 27.4845 29.6709 27.4845 30.3502H27.4855Z" fill="#8C2E47"/>
<path d="M26.1484 48.1924C26.1513 46.7715 27.2645 45.645 28.6698 45.6411C30.0608 45.6372 31.2028 46.7734 31.2239 48.1798C31.2441 49.5745 30.0416 50.7865 28.6583 50.7671C27.2587 50.7467 26.1465 49.6056 26.1494 48.1924H26.1484ZM29.3677 48.1866C29.361 47.7774 29.0688 47.4926 28.6621 47.4975C28.2632 47.5024 27.9748 47.8027 27.9796 48.208C27.9845 48.6152 28.2757 48.9 28.6833 48.8951C29.0909 48.8903 29.3735 48.5977 29.3667 48.1856L29.3677 48.1866Z" fill="#8C2E47"/>
<path d="M54.2086 48.1944C54.2105 49.6076 53.0945 50.7515 51.6978 50.768C50.3116 50.7846 49.111 49.5726 49.1331 48.1788C49.1552 46.7715 50.2982 45.6363 51.6882 45.6411C53.0935 45.646 54.2057 46.7734 54.2076 48.1944H54.2086ZM52.3764 48.2041C52.3793 47.7988 52.09 47.5014 51.6901 47.4975C51.2854 47.4936 50.9932 47.7823 50.9884 48.1905C50.9835 48.6016 51.2681 48.8932 51.6766 48.8951C52.0842 48.8981 52.3735 48.6113 52.3764 48.2031V48.2041Z" fill="#8C2E47"/>
<path d="M52.2725 31.3232C52.2494 31.8413 51.8389 32.2135 51.3266 32.1824C50.8536 32.1533 50.4547 31.7217 50.4691 31.2552C50.4845 30.7731 50.943 30.3387 51.416 30.3591C51.9139 30.3805 52.2946 30.8091 52.2715 31.3232H52.2725Z" fill="#8C2E47"/>
</svg>
