<svg width="46" height="42" viewBox="0 0 46 42" fill="none" xmlns="http://www.w3.org/2000/svg">
<g clip-path="url(#clip0_547_118)">
<path d="M27.68 9.41992H10V26.0599H27.68V9.41992Z" stroke="#8C2E47" stroke-width="1.04" stroke-linecap="round" stroke-linejoin="round"/>
<path d="M27.3298 9.16002H10.3398L18.9298 0.52002L27.3298 9.16002Z" stroke="#8C2E47" stroke-width="1.04" stroke-linecap="round" stroke-linejoin="round"/>
<path d="M23.1789 26.0601H15.3789V20.0801C15.3789 17.8901 17.1589 16.1101 19.3489 16.1101C21.5389 16.1101 23.1789 17.8201 23.1789 19.9401V26.0601Z" stroke="#8C2E47" stroke-width="1.04" stroke-linecap="round" stroke-linejoin="round"/>
<path d="M9.99953 24.1299H0.519531V36.6799H9.99953V24.1299Z" stroke="#8C2E47" stroke-width="1.04" stroke-linecap="round" stroke-linejoin="round"/>
<path d="M0.519531 28.3101H9.99953" stroke="#8C2E47" stroke-width="1.04" stroke-linecap="round" stroke-linejoin="round"/>
<path d="M0.519531 32.3101H9.99953" stroke="#8C2E47" stroke-width="1.04" stroke-linecap="round" stroke-linejoin="round"/>
<path d="M13.21 26.0601H10V38.6001H13.21V26.0601Z" stroke="#8C2E47" stroke-width="1.04" stroke-linecap="round" stroke-linejoin="round"/>
<path d="M27.96 26.0601H24.75V38.6001H27.96V26.0601Z" stroke="#8C2E47" stroke-width="1.04" stroke-linecap="round" stroke-linejoin="round"/>
<path d="M13.1992 29.8501H24.7492" stroke="#8C2E47" stroke-width="1.04" stroke-linecap="round" stroke-linejoin="round"/>
<path d="M0.519531 36.6799V38.5999" stroke="#8C2E47" stroke-width="1.04" stroke-linecap="round" stroke-linejoin="round"/>
<path d="M27.9597 28.31C31.9797 27.93 32.4997 32.54 33.9897 35.19C35.4797 37.84 38.5497 41.58 41.9797 41.27C43.2597 41.15 44.7097 40.12 44.5797 38.7C44.3997 36.82 42.3297 36.04 40.8997 35.28C38.8597 34.2 37.7097 32.67 36.8797 30.51C36.0597 28.36 35.0797 26.08 33.0297 24.83C31.4797 23.88 29.4697 23.57 27.6797 23.87" stroke="#8C2E47" stroke-width="1.04" stroke-linecap="round" stroke-linejoin="round"/>
</g>
<defs>
<clipPath id="clip0_547_118">
<rect width="45.11" height="41.81" fill="white"/>
</clipPath>
</defs>
</svg>
