<svg width="43" height="48" viewBox="0 0 43 48" fill="none" xmlns="http://www.w3.org/2000/svg">
<g clip-path="url(#clip0_547_105)">
<path d="M10 11.7401C11.35 11.7401 12.7 11.7401 14.05 11.7401C15.12 11.7401 16.2 11.7801 17.27 11.6901C18.73 11.5701 19.66 10.4301 19.56 9.00011C19.46 7.66011 18.34 6.67011 16.94 6.70011C16.02 6.71011 15.81 6.54011 15.66 5.65011C15.49 4.62011 14.46 4.21011 13.6 4.82011C13.39 4.97011 13.12 5.10011 12.86 5.12011C12.3 5.16011 12.09 4.72011 11.89 4.29011C11.26 2.95011 9.74001 2.04011 8.40001 2.20011C6.61001 2.41011 5.38001 3.47011 5.04001 5.10011C4.80668 6.22011 4.12334 6.78011 2.99001 6.78011C1.33001 6.78011 0.13001 8.43011 0.65001 10.0101C1.01001 11.1201 1.91001 11.7301 3.24001 11.7401C5.50001 11.7401 7.75001 11.7401 10.01 11.7401" stroke="#8C2E47" stroke-width="1.04" stroke-linecap="round" stroke-linejoin="round"/>
<path d="M11.0214 29.5L7.85141 26.2L4.69141 29.5V29.6299V46.5099H11.0214V29.6299V29.5Z" stroke="#8C2E47" stroke-width="1.04" stroke-linecap="round" stroke-linejoin="round"/>
<path d="M17.3395 29.5L14.1795 26.2L11.0195 29.5V29.6299V46.5099H17.3395V29.6299V29.5Z" stroke="#8C2E47" stroke-width="1.04" stroke-linecap="round" stroke-linejoin="round"/>
<path d="M23.6698 29.5L20.5098 26.2L17.3398 29.5V29.6299V46.5099H23.6698V29.6299V29.5Z" stroke="#8C2E47" stroke-width="1.04" stroke-linecap="round" stroke-linejoin="round"/>
<path d="M30.0019 29.5L26.8319 26.2L23.6719 29.5V29.6299V46.5099H30.0019V29.6299V29.5Z" stroke="#8C2E47" stroke-width="1.04" stroke-linecap="round" stroke-linejoin="round"/>
<path d="M36.32 29.5L33.16 26.2L30 29.5V29.6299V46.5099H36.32V29.6299V29.5Z" stroke="#8C2E47" stroke-width="1.04" stroke-linecap="round" stroke-linejoin="round"/>
<path d="M39.2905 6.93003C40.8605 8.50003 41.8305 10.67 41.8305 13.07C41.8305 17.86 37.9505 21.74 33.1505 21.74C28.3505 21.74 24.4805 17.86 24.4805 13.07C24.4805 10.74 25.4005 8.63003 26.8805 7.08003V6.80003C26.8805 3.34003 29.6605 0.530029 33.0905 0.530029C36.5205 0.530029 39.2705 3.34003 39.2705 6.80003V6.94003L39.2905 6.93003Z" stroke="#8C2E47" stroke-width="1.04" stroke-linecap="round" stroke-linejoin="round"/>
<path d="M33.1406 6.42993V21.7399" stroke="#8C2E47" stroke-width="1.04" stroke-linecap="round" stroke-linejoin="round"/>
<path d="M36.2902 10.6499L33.1602 13.1299" stroke="#8C2E47" stroke-width="1.04" stroke-linecap="round" stroke-linejoin="round"/>
<path d="M37.1002 11.8999L33.1602 15.3199" stroke="#8C2E47" stroke-width="1.04" stroke-linecap="round" stroke-linejoin="round"/>
<path d="M29.1211 11.8999L33.1411 15.9599" stroke="#8C2E47" stroke-width="1.04" stroke-linecap="round" stroke-linejoin="round"/>
<path d="M31.2188 28.3199V21.8999H35.0987V28.3199" stroke="#8C2E47" stroke-width="1.04" stroke-linecap="round" stroke-linejoin="round"/>
</g>
<defs>
<clipPath id="clip0_547_105">
<rect width="42.35" height="47.03" fill="white"/>
</clipPath>
</defs>
</svg>
