<svg width="46" height="43" viewBox="0 0 46 43" fill="none" xmlns="http://www.w3.org/2000/svg">
<g clip-path="url(#clip0_547_98)">
<path d="M16.7595 37.23H4.52953C2.30953 37.23 0.519531 35.43 0.519531 33.22V4.53002C0.519531 2.32002 2.31953 0.52002 4.52953 0.52002H32.8795C35.0995 0.52002 36.8895 2.32002 36.8895 4.53002V19.78" stroke="#8C2E47" stroke-width="1.04" stroke-linecap="round" stroke-linejoin="round"/>
<path d="M32.8382 39.2899H39.3782C39.3782 39.2899 39.3582 40.0799 39.3582 41.1599C39.3582 42.2399 40.4482 42.2499 40.4482 42.2499C40.4482 42.2499 41.5382 42.2899 42.4782 42.1499C43.2182 41.8999 43.1482 40.6899 43.1382 40.0799C43.1382 39.7099 43.0282 39.2299 43.1982 38.9299C43.4882 38.3999 43.6482 38.0299 43.6282 37.4099C43.5582 35.5099 43.5182 33.5999 43.4682 31.6999C44.0082 31.3999 44.7582 31.0799 45.0882 30.5399C45.4182 29.9899 45.3682 29.2099 44.7382 28.9099C44.3482 28.7299 43.8882 28.7799 43.4782 28.8399C43.3782 28.8599 42.3882 29.1099 42.3582 29.0599L40.7682 25.8499C40.2782 24.7499 39.2982 24.0499 38.1082 23.9199C37.2482 23.8199 36.3782 23.9199 35.5082 23.9199C34.6182 23.9199 33.7282 23.9199 32.8482 23.9299H29.0582C28.1982 23.9099 27.3182 23.8199 26.4582 23.9099C25.2682 24.0399 24.2882 24.7499 23.7982 25.8399L22.2082 29.0499C22.1882 29.0999 21.1982 28.8499 21.0882 28.8299C20.6782 28.7599 20.2182 28.7099 19.8282 28.8999C19.1982 29.1999 19.1482 29.9899 19.4782 30.5299C19.8082 31.0699 20.5582 31.3899 21.0982 31.6899C21.0482 33.5899 21.0082 35.4999 20.9382 37.3999C20.9182 38.0299 21.0782 38.3899 21.3682 38.9199C21.5282 39.2199 21.4282 39.6999 21.4282 40.0699C21.4182 40.6799 21.3482 41.8899 22.0882 42.1399C23.0382 42.2799 24.1182 42.2399 24.1182 42.2399C24.1182 42.2399 25.2082 42.2399 25.2082 41.1499C25.2082 40.0599 25.1882 39.2799 25.1882 39.2799H32.8482L32.8382 39.2899Z" stroke="#8C2E47" stroke-width="1.04" stroke-linecap="round" stroke-linejoin="round"/>
<path d="M32.4899 30.34H39.9199C41.6199 30.34 41.0099 29.29 41.0099 29.29C40.7199 28.72 40.4299 28.15 40.1499 27.57C39.8599 26.98 39.6399 26.42 39.2799 25.81C39.1199 25.54 38.8599 25.26 38.5499 25.26C38.2699 25.26 38.0399 25.25 37.7499 25.25H26.8899C26.5899 25.25 26.3599 25.26 26.0899 25.26C25.7699 25.26 25.5099 25.55 25.3599 25.81C24.9999 26.42 24.7799 26.98 24.4899 27.57C24.2099 28.15 23.9199 28.72 23.6299 29.29C23.6299 29.29 23.0199 30.34 24.7199 30.34H32.5099H32.4899Z" stroke="#8C2E47" stroke-width="1.04" stroke-linecap="round" stroke-linejoin="round"/>
<path d="M26.7708 36.4701H24.5108C23.5708 36.4701 22.8008 35.71 22.8008 34.76C22.8008 33.81 23.5608 33.05 24.5108 33.05H26.7708C27.7108 33.05 28.4808 33.81 28.4808 34.76C28.4808 35.71 27.7208 36.4701 26.7708 36.4701Z" stroke="#8C2E47" stroke-width="1.04" stroke-linecap="round" stroke-linejoin="round"/>
<path d="M39.9192 36.4701H37.6592C36.7192 36.4701 35.9492 35.71 35.9492 34.76C35.9492 33.81 36.7092 33.05 37.6592 33.05H39.9192C40.8592 33.05 41.6292 33.81 41.6292 34.76C41.6292 35.71 40.8692 36.4701 39.9192 36.4701Z" stroke="#8C2E47" stroke-width="1.04" stroke-linecap="round" stroke-linejoin="round"/>
<path d="M9.89062 6.42993H19.6706C21.8206 6.42993 23.6106 6.62993 25.0606 7.02993C26.5106 7.42993 27.6506 8.28993 28.5006 9.61993C29.3506 10.9499 29.7706 12.4399 29.7706 14.0799C29.7706 16.7299 28.9306 18.7299 27.2506 20.0999C25.5706 21.4699 23.1406 22.1499 19.9606 22.1499H13.3606V32.6299H9.89062V6.42993ZM13.3606 19.0499H19.9906C22.2206 19.0499 23.8106 18.6299 24.7506 17.7999C25.7006 16.9699 26.1706 15.7599 26.1706 14.1899C26.1706 13.1399 25.9106 12.2099 25.3806 11.3999C24.8506 10.5899 24.1906 10.0799 23.3906 9.85993C22.5806 9.64993 21.4306 9.53993 19.9106 9.53993H13.3506V19.0499H13.3606Z" stroke="#8C2E47" stroke-width="1.04" stroke-linecap="round" stroke-linejoin="round"/>
</g>
<defs>
<clipPath id="clip0_547_98">
<rect width="45.8" height="42.78" fill="white"/>
</clipPath>
</defs>
</svg>
