<svg width="82" height="82" viewBox="0 0 82 82" fill="none" xmlns="http://www.w3.org/2000/svg">
<circle cx="40.5491" cy="40.5491" r="39.2991" stroke="#8C2E47" stroke-width="2.5"/>
<path d="M56.5217 48.6545H52.0032V46.4135H53.8026C54.9842 46.4135 55.9455 45.4522 55.9455 44.2706V36.5096C55.9455 35.3281 54.9844 34.3667 53.8026 34.3667H27.8227C26.6412 34.3667 25.6798 35.3281 25.6798 36.5096V44.2706C25.6798 45.4521 26.6411 46.4135 27.8227 46.4135H29.571V48.6545H25.347C24.503 48.6545 23.8164 49.3411 23.8164 50.185V51.5823C23.8164 52.4264 24.503 53.1129 25.347 53.1129H26.9563V57.5199C26.9563 58.3639 27.6429 59.0505 28.4869 59.0505H30.5043C31.3483 59.0505 32.0349 58.3639 32.0349 57.5199V53.1129H49.6046V57.5199C49.6046 58.3639 50.2912 59.0505 51.1352 59.0505H53.1525C53.9966 59.0505 54.6831 58.3639 54.6831 57.5199V53.1129H56.5217C57.3659 53.1129 58.0523 52.4263 58.0523 51.5823V50.185C58.0523 49.3411 57.3657 48.6545 56.5217 48.6545ZM27.5165 39.594H31.8155C32.3227 39.594 32.7339 39.1828 32.7339 38.6756C32.7339 38.1684 32.3227 37.7572 31.8155 37.7572H27.5165V36.5097C27.5165 36.3438 27.6566 36.2036 27.8226 36.2036H53.8025C53.9685 36.2036 54.1086 36.3438 54.1086 36.5097V37.7572H35.7338C35.2266 37.7572 34.8154 38.1684 34.8154 38.6756C34.8154 39.1828 35.2266 39.594 35.7338 39.594H54.1086V41.1478H27.5165V39.594ZM27.8227 44.5768C27.6568 44.5768 27.5166 44.4366 27.5166 44.2707V42.9844H54.1087V44.2707C54.1087 44.4366 53.9686 44.5768 53.8026 44.5768H27.8227ZM50.1664 46.4136V48.6546H49.4245V46.4136H50.1664ZM47.5878 46.4136V48.6546H33.9865V46.4136H47.5878ZM32.1497 46.4136V48.6546H31.4076V46.4136H32.1497ZM30.1981 57.214H28.793V53.113H30.1981V57.214ZM52.8463 57.214H51.4413V53.113H52.8463V57.214ZM56.2155 51.2763H25.653V50.4913H56.2155V51.2763Z" fill="#8C2E47"/>
<path d="M22.9449 37.929C23.3802 37.1149 23.6214 36.1916 23.6214 35.2283C23.6214 33.6353 22.9728 31.878 21.9271 30.5247C22.3701 29.8053 22.6265 28.9587 22.6265 28.053C22.6265 25.6155 20.6504 22 17.9204 22C15.1904 22 13.2143 25.6156 13.2143 28.053C13.2143 28.9587 13.4707 29.8053 13.9139 30.5247C12.8682 31.8779 12.2196 33.6353 12.2196 35.2283C12.2196 36.1944 12.4618 37.1171 12.8959 37.9293C11.7155 39.4822 11 41.4623 11 43.2999C11 46.8142 13.6189 49.7245 17.0021 50.1766V58.2457C17.0021 58.7529 17.4133 59.1641 17.9205 59.1641C18.4277 59.1641 18.8389 58.7529 18.8389 58.2457V50.1767C22.2221 49.7247 24.8412 46.8142 24.8412 43.3C24.841 41.4622 24.1254 39.4818 22.9449 37.929ZM17.9206 23.8367C19.3441 23.8367 20.79 26.2897 20.79 28.053C20.79 29.6418 19.5028 30.9343 17.9206 30.9343C16.3385 30.9343 15.0513 29.6417 15.0513 28.053C15.0512 26.2897 16.4972 23.8367 17.9206 23.8367ZM18.8388 48.3179V46.5938L21.2573 44.1753C21.616 43.8167 21.616 43.2351 21.2573 42.8766C20.8988 42.518 20.3172 42.518 19.9587 42.8766L17.9205 44.9148L15.8825 42.8766C15.524 42.518 14.9424 42.518 14.5838 42.8766C14.2251 43.2352 14.2251 43.8168 14.5838 44.1753L17.0022 46.5938V48.3179C14.6361 47.8826 12.8369 45.7988 12.8369 43.2999C12.8369 42.0196 13.3093 40.6133 14.0765 39.4502C14.647 39.9727 15.3282 40.3843 16.093 40.6439C16.1908 40.677 16.2902 40.6927 16.3881 40.6927C16.7708 40.6927 17.128 40.4517 17.2577 40.0691C17.4207 39.5887 17.1633 39.0673 16.683 38.9043C15.112 38.3717 14.0565 36.8942 14.0565 35.2282C14.0565 34.1336 14.5037 32.8856 15.1917 31.893C15.962 32.4448 16.9038 32.771 17.9208 32.771C18.9377 32.771 19.8793 32.4448 20.6497 31.8931C21.3377 32.8857 21.7849 34.1337 21.7849 35.2282C21.7849 36.7782 20.869 38.1768 19.4512 38.7916C18.9859 38.9934 18.7722 39.5341 18.974 39.9994C19.1757 40.4648 19.7165 40.6787 20.1819 40.4766C20.7737 40.2201 21.3058 39.8709 21.7651 39.4503C22.5321 40.6133 23.0045 42.0195 23.0045 43.2998C23.0044 45.799 21.2051 47.8827 18.8388 48.3179Z" fill="#8C2E47"/>
<path d="M69.1031 37.929C69.5384 37.1149 69.7796 36.1916 69.7796 35.2283C69.7796 33.6353 69.131 31.878 68.0853 30.5247C68.5283 29.8053 68.7849 28.9587 68.7849 28.053C68.7849 25.6155 66.8087 22 64.0787 22C61.3487 22 59.3726 25.6156 59.3726 28.053C59.3726 28.9587 59.629 29.8053 60.0722 30.5247C59.0262 31.878 58.3778 33.6355 58.3778 35.2284C58.3778 36.1945 58.62 37.1172 59.0541 37.9294C57.8736 39.4823 57.1582 41.4625 57.1582 43.3002C57.1582 46.8144 59.7771 49.7247 63.1603 50.1769V58.2459C63.1603 58.7531 63.5715 59.1643 64.0787 59.1643C64.5859 59.1643 64.9971 58.7531 64.9971 58.2459V50.1767C68.3803 49.7247 70.9994 46.8142 70.9994 43.3C70.9992 41.4622 70.2836 39.4818 69.1031 37.929ZM64.0787 23.8367C65.5022 23.8367 66.9481 26.2897 66.9481 28.053C66.9481 29.6418 65.6609 30.9343 64.0787 30.9343C62.4966 30.9343 61.2094 29.6417 61.2094 28.053C61.2094 26.2897 62.6554 23.8367 64.0787 23.8367ZM64.997 48.3179V46.5938L67.4156 44.1753C67.7742 43.8167 67.7742 43.2351 67.4156 42.8766C67.0571 42.518 66.4756 42.518 66.1169 42.8766L64.0787 44.9148L62.0407 42.8766C61.6822 42.518 61.1006 42.518 60.742 42.8766C60.3834 43.2352 60.3834 43.8168 60.742 44.1753L63.1604 46.5938V48.3179C60.7943 47.8824 58.9951 45.7988 58.9951 43.2999C58.9951 42.0196 59.4675 40.6133 60.2346 39.4502C60.8051 39.9727 61.4863 40.3843 62.2511 40.6439C62.3489 40.677 62.4483 40.6927 62.5461 40.6927C62.9289 40.6927 63.2861 40.4517 63.4158 40.0691C63.5788 39.5887 63.3213 39.0673 62.8411 38.9043C61.2702 38.3715 60.2147 36.8941 60.2147 35.228C60.2147 34.1335 60.6619 32.8855 61.3499 31.8929C62.1202 32.4447 63.062 32.7708 64.079 32.7708C65.0959 32.7708 66.0375 32.4447 66.8079 31.893C67.4959 32.8856 67.9431 34.1336 67.9431 35.228C67.9431 36.7781 67.0272 38.1767 65.6094 38.7915C65.1441 38.9933 64.9304 39.534 65.1322 39.9993C65.3339 40.4647 65.8747 40.6786 66.3401 40.4765C66.9318 40.22 67.464 39.8708 67.9233 39.4502C68.6901 40.6136 69.1624 42.0198 69.1624 43.3C69.1626 45.799 67.3633 47.8827 64.997 48.3179Z" fill="#8C2E47"/>
</svg>
