<svg width="82" height="82" viewBox="0 0 82 82" fill="none" xmlns="http://www.w3.org/2000/svg">
<circle cx="40.5491" cy="40.5491" r="39.2991" stroke="#8C2E47" stroke-width="2.5"/>
<g clip-path="url(#clip0_544_810)">
<path d="M41.2619 37.0979C43.3134 36.5333 45.2427 36.0042 47.3974 35.4124C47.0741 34.9733 46.8567 34.6215 46.5823 34.3187C44.9873 32.5405 44.1259 30.4568 43.9629 28.0786C43.8487 26.4368 43.5634 24.7731 43.7102 23.1531C43.9167 20.873 45.8051 19.0239 48.0659 18.8384C50.1174 18.6721 52.2097 18.6639 54.2585 18.863C56.6632 19.0948 58.7718 21.3721 58.837 23.8403C58.9402 27.7622 58.568 31.5996 55.5899 34.6242C54.9785 35.246 55.1035 35.6715 56.0056 35.9497C57.5816 36.4351 59.231 36.8388 60.6603 37.6215C62.8558 38.827 64.0052 40.8289 63.9916 43.4171C63.9807 45.5444 64.0432 47.6717 63.9481 49.7963C63.9264 50.2736 63.4563 51.0481 63.0786 51.1245C62.1384 51.3154 62.0759 50.5081 62.0787 49.7827C62.0868 47.8817 62.0814 45.9808 62.0787 44.0826C62.0787 41.1725 60.8722 39.4379 58.1359 38.4943C57.2909 38.2024 56.4105 38.0224 55.5573 37.7961C54.4921 39.9534 52.7966 40.8589 50.4516 40.5643C48.6773 40.3434 47.411 39.2497 47.0578 37.4933C45.3867 37.9679 43.7292 38.437 41.7999 38.9852C44.0118 41.6171 43.1939 44.4589 43.0499 47.3008C43.7944 47.3417 44.5145 47.2953 45.1938 47.4372C49.1582 48.2526 50.851 53.2218 48.1474 56.301C45.9736 58.7774 43.6314 61.1038 41.3679 63.4984C40.7484 64.1529 40.1424 64.172 39.5175 63.5093C37.2268 61.0765 34.909 58.671 32.6619 56.1973C32.1972 55.6873 31.8793 54.9673 31.7163 54.2909C31.6348 53.9555 31.9717 53.35 32.2951 53.1482C32.4988 53.02 33.151 53.3064 33.3874 53.5873C35.6536 56.2519 37.8762 58.9574 40.0935 61.6274C41.3299 60.482 42.4004 59.5465 43.4058 58.5456C44.4601 57.4928 45.4655 56.391 46.4654 55.2891C47.892 53.7182 47.8567 51.5882 46.4084 50.1863C44.9954 48.8172 43.3243 48.9699 41.6749 50.6172C40.4929 51.7982 40.4576 51.7136 39.1642 50.6336C38.4143 50.009 37.4306 49.6108 36.4905 49.289C35.6481 49.0026 35.102 48.2363 35.7106 47.7808C36.6019 47.1099 36.2323 46.2671 36.4334 45.5008C36.5285 45.138 37.0312 44.6498 37.3545 44.6471C37.6589 44.6417 38.2784 45.2662 38.2295 45.5008C37.8219 47.4453 39.0827 48.2117 40.7348 49.0599C40.9005 48.0672 41.0826 47.1481 41.2021 46.2208C41.3163 45.3262 41.4005 44.4262 41.444 43.5235C41.5364 41.6171 40.6913 40.1143 39.061 39.2879C37.523 38.5079 35.8166 38.0633 34.1509 37.4579C33.6238 40.3516 32.8195 41.1016 30.4011 41.1507C27.5616 41.208 26.7899 40.5861 26.0943 37.5506C24.6841 37.9924 23.2331 38.3115 21.8989 38.8952C19.4914 39.9479 18.5594 41.9007 18.8909 44.4917C19.1654 46.6408 19.3664 48.8036 19.4914 50.9636C19.5132 51.3645 19.0186 51.7982 18.7605 52.2154C18.3828 51.8691 17.7225 51.5554 17.6763 51.1681C17.3557 48.4299 16.9372 45.678 17.0079 42.9425C17.0432 41.5871 18.0649 40.2616 18.6138 38.9115C18.8121 38.4206 19.1246 37.8752 19.0648 37.3924C18.4969 32.7805 18.986 28.2941 20.5131 23.9194C20.706 23.3712 20.9044 22.7658 21.2821 22.3567C21.6082 22.0049 22.1951 21.893 22.6652 21.6748C22.7657 22.1876 23.1162 22.8285 22.9287 23.194C21.2305 26.5568 20.9098 30.1896 20.7577 33.8524C20.7142 34.8778 20.8935 35.9115 20.9751 36.9997C22.6326 36.536 24.1732 36.1051 25.8416 35.636C23.7059 33.3014 22.7956 30.5932 22.9124 27.5441C22.9749 25.9377 23.4206 25.6649 24.9395 26.2186C26.7845 26.8922 28.4556 26.2922 29.874 24.4431C30.8848 23.1258 30.9011 23.2158 32.3304 24.124C33.1537 24.6476 34.2134 25.0185 35.1753 25.0349C36.4252 25.054 36.8491 25.5258 36.9415 26.6768C37.2078 29.9686 36.5611 32.966 34.1319 35.5597C35.8818 36.0479 37.4931 36.4979 39.512 37.0624C39.3653 34.4524 39.3599 31.9541 39.0501 29.4941C38.6914 26.6495 37.7811 23.9522 35.928 21.6803C34.1564 19.5094 31.844 18.6612 29.0996 19.0102C28.3551 19.1057 27.6703 19.1303 27.4937 18.2684C27.2953 17.3057 28.0698 17.1829 28.7626 17.0957C32.776 16.5911 35.8927 18.113 38.1371 21.4212C40.1669 24.4131 40.9603 27.8413 41.2348 31.3814C41.3815 33.2633 41.2619 35.1697 41.2619 37.0951V37.0979ZM56.6714 27.3204C53.6987 27.5659 51.1853 27.0013 49.4381 24.6913C48.6881 25.3676 48.1229 26.2486 47.354 26.4995C45.5552 27.0831 45.6584 28.2559 46.1611 29.5541C46.5931 30.6723 47.085 31.8314 47.8186 32.756C49.4381 34.7987 52.0656 35.0278 54.0275 33.4023C55.8399 31.8969 56.4975 29.8432 56.6741 27.3231L56.6714 27.3204ZM31.0968 26.0386C29.5805 27.9941 27.3904 28.6623 24.4124 28.2804C25.146 30.1514 25.5454 31.796 26.3851 33.1705C27.8741 35.6142 30.6022 36.0369 32.6048 34.2587C34.7324 32.3714 35.2541 29.895 35.0177 27.3095C33.6727 26.8731 32.4961 26.4913 31.0968 26.0386ZM50.0114 20.7885C50.5195 24.3858 53.1797 26.074 56.905 25.2395C57.2284 21.6448 54.8753 20.0985 50.0114 20.7885ZM48.8702 36.3206C49.2452 37.117 49.4326 38.1615 49.8402 38.2597C50.7994 38.4861 51.908 38.407 52.8618 38.1288C53.1743 38.0361 53.1987 36.9479 53.3536 36.3206H48.8702ZM28.1214 37.1524C28.3034 37.777 28.3795 38.8025 28.6648 38.8652C29.6213 39.0752 30.6864 39.0834 31.632 38.8515C31.9337 38.7779 31.9962 37.7142 32.1538 37.1524H28.1214ZM47.9382 20.8757C45.9138 21.683 45.1394 23.2131 45.6964 25.1222C47.5251 24.4267 48.142 23.2812 47.9382 20.8757Z" fill="#8C2E47"/>
<path d="M23.91 48.4131C23.91 49.2723 24.0187 50.1505 23.8692 50.9796C23.785 51.435 23.2633 51.8114 22.9399 52.226C22.6247 51.8196 22.065 51.4296 22.0405 51.0068C21.9373 49.2504 21.9481 47.4831 22.0378 45.7267C22.0568 45.334 22.5677 44.9658 22.853 44.584C23.2062 44.9576 23.7877 45.2876 23.8665 45.7104C24.0241 46.5858 23.9154 47.5077 23.9154 48.4104L23.91 48.4131Z" fill="#8C2E47"/>
<path d="M59.1706 47.9197C59.1706 48.6861 59.2657 49.4716 59.1325 50.2161C59.0673 50.5789 58.5674 51.1352 58.2902 51.1189C57.9397 51.097 57.3528 50.6007 57.3337 50.2816C57.2414 48.6615 57.2495 47.0306 57.3528 45.4133C57.3718 45.116 57.9832 44.7042 58.3663 44.6469C58.5864 44.6142 59.0836 45.1569 59.1325 45.4897C59.2467 46.286 59.1706 47.1097 59.1706 47.9224V47.9197Z" fill="#8C2E47"/>
<path d="M33.1817 48.8389C33.6137 49.5098 34.0702 49.9025 34.0294 50.238C33.9887 50.5762 33.4561 51.0889 33.1382 51.0889C32.8366 51.0889 32.3203 50.5407 32.2959 50.2025C32.2714 49.8643 32.7333 49.488 33.1844 48.8389H33.1817Z" fill="#8C2E47"/>
<path d="M24.7798 18.2139C25.258 18.8521 25.758 19.2312 25.7308 19.5666C25.7036 19.8994 25.1683 20.3903 24.8124 20.4312C24.5434 20.4612 23.9945 19.9075 23.9646 19.5775C23.932 19.2339 24.3749 18.8466 24.7798 18.2139Z" fill="#8C2E47"/>
</g>
<defs>
<clipPath id="clip0_544_810">
<rect width="47" height="47" fill="white" transform="translate(17 17)"/>
</clipPath>
</defs>
</svg>
