<svg width="22" height="21" viewBox="0 0 22 21" fill="none" xmlns="http://www.w3.org/2000/svg">
<g id="Layer_1" clip-path="url(#clip0_515_1794)">
<path id="Vector" d="M0.000257264 7.42134C0.404758 6.44373 0.822522 5.4718 1.21045 4.48735C1.8813 2.78477 1.87356 2.76998 3.67503 2.78477C5.08305 2.79615 4.7747 2.55602 5.3063 3.90465C5.75279 5.03705 6.19266 6.17172 6.62811 7.30867C6.87125 7.94373 6.74636 8.13379 6.07993 8.14289C5.31514 8.15314 4.54924 8.14517 3.7325 8.14517C3.7325 8.41376 3.7325 8.61634 3.7325 8.81892C3.7325 12.5518 3.7325 16.2836 3.7325 20.0166C3.7325 20.1861 3.78113 20.3842 3.71261 20.5173C3.63303 20.6721 3.45841 20.844 3.30589 20.8656C3.19095 20.8815 2.99312 20.6983 2.92902 20.556C2.85829 20.3978 2.88813 20.1873 2.88813 20.0006C2.88703 16.3053 2.88703 12.611 2.88703 8.91565C2.88703 8.69145 2.88703 8.46725 2.88703 8.14517C2.19959 8.14517 1.54974 8.1611 0.899886 8.13834C0.598168 8.12696 0.29866 8.03933 -0.00195312 7.98584C-0.00195312 7.79691 -0.00195312 7.60799 -0.00195312 7.42021L0.000257264 7.42134ZM5.72848 7.28705C5.27204 6.11027 4.84654 4.99608 4.39893 3.89099C4.3503 3.77263 4.16795 3.64744 4.04085 3.63948C3.58661 3.60989 3.12796 3.61672 2.67262 3.6372C2.57094 3.64175 2.41953 3.73166 2.38306 3.82271C1.92551 4.95852 1.48564 6.10002 1.02367 7.28705H5.72959H5.72848Z" fill="white"/>
<path id="Vector_2" d="M16.8203 11.3344C17.7155 11.1807 18.3245 11.5768 18.761 12.2778C19.2042 12.9903 19.0241 13.6845 18.6008 14.3389C18.4903 14.5108 18.3797 14.7156 18.2173 14.8146C17.6083 15.1856 17.5276 15.7513 17.5486 16.4023C17.5652 16.9281 17.5122 17.4573 17.4867 17.9842C17.4702 18.3302 17.4724 18.6113 17.1386 18.9106C16.8977 19.1268 16.9706 19.7164 16.9054 20.1397C16.8413 20.5551 16.8148 20.9626 16.2235 20.9535C15.4996 20.9432 15.3968 20.8749 15.3018 20.0976C15.1117 18.5362 15.357 18.7422 13.8363 18.7297C12.4249 18.7183 11.0147 18.7376 9.60338 18.7217C9.12704 18.716 8.88059 18.8787 8.89053 19.4011C8.89495 19.6424 8.82422 19.8848 8.7977 20.1284C8.71702 20.8772 8.27715 21.1765 7.59967 20.8943C7.45268 20.8328 7.32005 20.6109 7.27695 20.4379C7.19627 20.1124 7.21616 19.7608 7.13769 19.4341C7.08244 19.2031 6.92439 19.0005 6.82935 18.7786C6.74535 18.5806 6.63373 18.3746 6.62488 18.1674C6.58731 17.3765 6.6061 16.5821 6.55857 15.7922C6.54642 15.5817 6.40385 15.3564 6.27012 15.18C6.05571 14.9 5.76946 14.6792 5.5639 14.3935C5.03561 13.6583 4.98478 12.8753 5.38596 12.2346C5.85456 11.4846 6.50884 11.2035 7.49246 11.3822C7.47478 11.0043 7.42173 10.6401 7.44715 10.2816C7.51014 9.38595 7.54993 8.48231 7.7124 7.6037C7.85386 6.83777 8.38546 6.31539 9.10605 6.05477C11.1286 5.32411 13.1599 5.32525 15.1813 6.04794C16.302 6.44854 16.7164 7.40795 16.8037 8.51304C16.8756 9.42692 16.8181 10.3522 16.8181 11.3321L16.8203 11.3344ZM9.5006 14.1147C11.0987 14.1147 12.7996 14.1215 14.4994 14.101C14.6165 14.0999 14.7669 13.9201 14.842 13.7869C15.115 13.3067 15.3637 12.8116 15.6212 12.3222C15.6963 12.1788 15.8245 12.0411 15.8378 11.8909C15.924 10.9372 16.0577 9.97889 16.0378 9.02631C16.0047 7.46258 15.5162 6.88102 14.0595 6.56804C12.6825 6.27214 11.2976 6.29945 9.9261 6.63974C8.98889 6.87191 8.40646 7.45575 8.34567 8.47093C8.30146 9.21751 8.29041 9.97206 8.3302 10.7187C8.36004 11.2763 8.41751 11.8567 8.60097 12.3757C8.80764 12.9607 9.16904 13.4888 9.50171 14.1136L9.5006 14.1147ZM16.7297 17.9592C16.7297 17.0794 16.7009 16.2338 16.7474 15.3928C16.7617 15.1413 16.9607 14.8795 17.1253 14.6633C17.426 14.2706 17.8194 13.9429 18.0725 13.5229C18.3123 13.1268 18.1731 12.6807 17.7896 12.4372C17.5575 12.2892 17.143 12.1492 16.9651 12.2619C16.3053 12.6841 15.6919 13.2577 15.6422 14.1045C15.567 15.3768 15.6223 16.6572 15.6223 17.958H16.7286L16.7297 17.9592ZM8.51366 17.9637C8.51366 16.9201 8.4783 15.9072 8.52361 14.8977C8.56892 13.9155 8.2451 13.1473 7.52783 12.51C7.17085 12.1925 6.83819 12.0195 6.40937 12.3393C5.9684 12.6682 5.80151 13.1576 6.08444 13.6128C6.32427 13.9986 6.70225 14.2922 6.98407 14.6553C7.14875 14.867 7.33221 15.1265 7.35652 15.3791C7.4361 16.235 7.44715 17.0965 7.48473 17.9637H8.51477H8.51366ZM14.7359 16.6276H9.38456V17.8112H14.7359V16.6276ZM14.7293 15.0343H9.37682V15.6898H14.7293V15.0343Z" fill="white"/>
<path id="Vector_3" d="M21.1264 20.0666V0.885307H13.2917C13.2917 1.76505 13.2917 2.64251 13.2917 3.51998C13.2917 3.87848 13.3315 4.24494 13.2707 4.59206C13.2409 4.76163 13.0209 4.89707 12.8872 5.04729C12.7391 4.89365 12.465 4.74342 12.4606 4.58523C12.4263 3.22863 12.4341 1.86975 12.444 0.512014C12.4473 0.0374313 12.7899 0.00442674 13.1436 0.00442674C15.0677 0.00556483 16.9908 0.00442674 18.9149 0.00442674C19.7206 0.00442674 20.5274 0.0169457 21.3331 -0.000125608C21.8271 -0.0103684 22.0006 0.195625 22.0006 0.710041C21.9885 7.21649 21.9896 13.7229 21.9984 20.2294C21.9984 20.7085 21.8525 20.9168 21.3673 20.9065C20.3229 20.8849 19.2785 20.8974 18.2341 20.902C17.9423 20.9031 17.6351 20.8849 17.6207 20.5094C17.6042 20.0883 17.9335 20.0666 18.2419 20.0666C19.1901 20.0666 20.1395 20.0666 21.1242 20.0666H21.1264Z" fill="white"/>
<path id="Vector_4" d="M17.193 5.14094C16.3708 5.14094 15.5474 5.1307 14.7251 5.14549C14.2643 5.15346 14.0576 4.96909 14.0731 4.4763C14.0963 3.76158 14.093 3.04572 14.0731 2.331C14.0609 1.8826 14.2234 1.66522 14.6732 1.6675C16.3741 1.67433 18.0739 1.67319 19.7748 1.6675C20.1859 1.66636 20.3793 1.84732 20.3727 2.27865C20.3627 3.03093 20.3627 3.78434 20.3727 4.53662C20.3782 4.96909 20.1815 5.14777 19.7715 5.14436C18.9127 5.13525 18.0529 5.14208 17.193 5.14208V5.14094ZM14.9429 4.21454H19.5327V2.59163H14.9429V4.21454Z" fill="white"/>
<path id="Vector_5" d="M19.5375 9.00023V7.25667C19.0401 7.25667 18.5549 7.25667 18.0709 7.25667C17.757 7.25667 17.442 7.21001 17.4597 6.79347C17.4752 6.40652 17.7802 6.40083 18.0709 6.40425C18.6577 6.40994 19.2435 6.41563 19.8303 6.40311C20.2006 6.39514 20.3741 6.55903 20.3719 6.93801C20.3686 7.73012 20.3686 8.52223 20.3719 9.31434C20.373 9.66714 20.205 9.83331 19.8668 9.83331C19.2623 9.83331 18.6555 9.8629 18.0543 9.81396C17.883 9.8003 17.7305 9.55447 17.5691 9.41449C17.7294 9.27678 17.8786 9.0412 18.0521 9.02071C18.5207 8.96495 18.9992 9.00136 19.5375 9.00136V9.00023Z" fill="white"/>
<path id="Vector_6" d="M19.5382 18.4111V16.6834C19.2509 16.6834 18.9691 16.7392 18.7237 16.6652C18.5425 16.6106 18.4109 16.3864 18.2562 16.2373C18.4154 16.095 18.5723 15.9505 18.7359 15.8128C18.758 15.7946 18.8066 15.8094 18.8431 15.8094C20.5285 15.8196 20.366 15.6216 20.3694 17.3162C20.3694 17.7111 20.3694 18.106 20.3694 18.501C20.3694 18.6136 20.4091 18.7752 20.3528 18.8299C20.1793 19.0006 19.956 19.268 19.7737 19.2521C19.2686 19.2054 18.6309 19.5867 18.2838 18.9425C18.1402 18.6774 18.3546 18.4361 18.6707 18.4145C18.9414 18.3963 19.2144 18.4111 19.5382 18.4111Z" fill="white"/>
<path id="Vector_7" d="M20.3672 12.8659C20.3672 13.2609 20.4092 13.6626 20.3485 14.0473C20.3197 14.2294 20.0932 14.3785 19.9572 14.5435C19.8257 14.3739 19.5903 14.2112 19.5815 14.0348C19.5406 13.2279 19.5406 12.4175 19.5815 11.6106C19.5903 11.4399 19.8345 11.2829 19.9694 11.1201C20.102 11.2886 20.323 11.4433 20.3496 11.6277C20.4081 12.0329 20.3672 12.4528 20.3672 12.8659Z" fill="white"/>
</g>
<defs>
<clipPath id="clip0_515_1794">
<rect width="22" height="21" fill="white"/>
</clipPath>
</defs>
</svg>
