<svg width="25" height="22" viewBox="0 0 25 22" fill="none" xmlns="http://www.w3.org/2000/svg">
<g id="Group 50426">
<path id="Vector" d="M13 15.0817C14.1395 15.743 15.8577 16 17.7777 16C21.2141 16 24 15.1786 24 12.6765C24 10.1744 21.2096 1 17.7732 1C15.8622 1 14.1529 3.83909 13.0135 6.7877" stroke="white" stroke-miterlimit="10"/>
<path id="Vector_2" d="M12.2501 9.97641C12.7722 9.60428 13.1189 8.99088 13.1189 8.29569C13.1189 7.15477 12.1971 6.23058 11.059 6.23058C10.7163 6.23058 10.3941 6.31645 10.1086 6.46367C10.0555 4.54168 8.48917 3 6.55977 3C4.63037 3 3.00282 4.60302 3.00282 6.56999C3.00282 7.08116 3.11296 7.56779 3.30468 8.00944C1.93819 8.70871 1 10.1277 1 11.7716C1 14.1066 2.88861 16 5.21776 16H10.8265C12.5805 16 14 14.5769 14 12.8185C14 11.5753 13.2862 10.5039 12.2542 9.9805L12.2501 9.97641Z" stroke="white" stroke-miterlimit="10"/>
<path id="Vector_3" d="M8 20V9" stroke="white" stroke-miterlimit="10"/>
<path id="Vector_4" d="M18 20V10" stroke="white" stroke-miterlimit="10"/>
<path id="Vector_5" d="M8 11L11 10" stroke="white" stroke-miterlimit="10"/>
<path id="Vector_6" d="M18 14L20 12" stroke="white" stroke-miterlimit="10"/>
<path id="Vector_7" d="M8 14L6 12" stroke="white" stroke-miterlimit="10"/>
<path id="Vector_8" d="M2 21C2 21 6.92518 20 13 20C19.0748 20 24 21 24 21" stroke="white" stroke-miterlimit="10"/>
</g>
</svg>
