<svg id="Layer_1" data-name="Layer 1" xmlns="http://www.w3.org/2000/svg" xmlns:xlink="http://www.w3.org/1999/xlink" width="44.8" height="39.9" viewBox="0 0 44.8 39.9">
  <defs>
    <style>
      .cls-1, .cls-3 {
        fill: none;
      }

      .cls-2 {
        clip-path: url(#clip-path);
      }

      .cls-3 {
        stroke: #8c2e47;
        stroke-linecap: round;
        stroke-linejoin: round;
        stroke-width: 1.04px;
      }
    </style>
    <clipPath id="clip-path" transform="translate(0.2 0.2)">
      <rect class="cls-1" width="44.5" height="39.52"/>
    </clipPath>
  </defs>
  <g class="cls-2">
    <g>
      <path class="cls-3" d="M11.8,26.2a3,3,0,0,0-3.4-2.5,2.9,2.9,0,0,0-2.6,2.6,2.8,2.8,0,0,0,2.4,2.9v6.2A1.6,1.6,0,0,0,9.8,37h.4a1.6,1.6,0,0,0,1.6-1.6V26.2Z" transform="translate(0.2 0.2)"/>
      <path class="cls-3" d="M38.1,26.2a3,3,0,0,1,3.4-2.5,2.9,2.9,0,0,1,2.6,2.6,2.8,2.8,0,0,1-2.4,2.9v6.2A1.6,1.6,0,0,1,40.1,37h-.4a1.6,1.6,0,0,1-1.6-1.6V26.2Z" transform="translate(0.2 0.2)"/>
      <path class="cls-3" d="M11.8,36.3H38.1" transform="translate(0.2 0.2)"/>
      <path class="cls-3" d="M9,36.8v1a.9.9,0,0,0,1,1h.1a.9.9,0,0,0,1-1V37" transform="translate(0.2 0.2)"/>
      <path class="cls-3" d="M38.8,36.8v1a.9.9,0,0,0,1,1h.1a.9.9,0,0,0,1-1V37" transform="translate(0.2 0.2)"/>
      <path class="cls-3" d="M12.2,32.3H37.7" transform="translate(0.2 0.2)"/>
      <path class="cls-3" d="M11.8,32v-.3a1.5,1.5,0,0,1,1.5-1.5H36.6a1.5,1.5,0,0,1,1.5,1.5V32" transform="translate(0.2 0.2)"/>
      <path class="cls-3" d="M24.8,29.8V18" transform="translate(0.2 0.2)"/>
      <path class="cls-3" d="M9.7,23.7v-2A3.8,3.8,0,0,1,13.5,18H36.4a3.8,3.8,0,0,1,3.8,3.7v2" transform="translate(0.2 0.2)"/>
      <path class="cls-3" d="M32.3,19.4h4.2a2,2,0,0,1,1.9,2" transform="translate(0.2 0.2)"/>
      <path class="cls-3" d="M29.1,19.4h1.8" transform="translate(0.2 0.2)"/>
      <path class="cls-3" d="M16.5,17.6v-5" transform="translate(0.2 0.2)"/>
      <path class="cls-3" d="M20,10.4,18.2,3.6H15l-1.8,6.8Z" transform="translate(0.2 0.2)"/>
      <path class="cls-3" d="M15.4,10.8v.3a1.1,1.1,0,0,0,2.2,0v-.7" transform="translate(0.2 0.2)"/>
      <path class="cls-3" d="M23.3,17.6V.3H42.4V23.7" transform="translate(0.2 0.2)"/>
      <path class="cls-3" d="M23.3,6.5H42.4" transform="translate(0.2 0.2)"/>
      <path class="cls-3" d="M23.3,7.9H42.4" transform="translate(0.2 0.2)"/>
      <path class="cls-3" d="M23.3,13.6H42.4" transform="translate(0.2 0.2)"/>
      <path class="cls-3" d="M23.3,15.1H42.4" transform="translate(0.2 0.2)"/>
      <path class="cls-3" d="M33.8,13.6a5.4,5.4,0,0,1-1.5-3.5h5.4a5,5,0,0,1-1.4,3.5" transform="translate(0.2 0.2)"/>
      <path class="cls-3" d="M5.2,39.2l1.2-6.5H.3l1.3,6.5Z" transform="translate(0.2 0.2)"/>
      <path class="cls-3" d="M3.2,32.7s-1.4-11.1,4.3-18" transform="translate(0.2 0.2)"/>
      <path class="cls-3" d="M4.6,19.8s-1.4-6.9,5.8-7.9C10.4,11.9,9.7,17.6,4.6,19.8Z" transform="translate(0.2 0.2)"/>
      <path class="cls-3" d="M3.2,24.4a7.6,7.6,0,0,1-1.1-4.6" transform="translate(0.2 0.2)"/>
      <path class="cls-3" d="M2.2,22.1s2.4-3.8.3-7.4C2.5,14.7-1.1,18.3,2.2,22.1Z" transform="translate(0.2 0.2)"/>
    </g>
  </g>
</svg>
