<svg width="82" height="82" viewBox="0 0 82 82" fill="none" xmlns="http://www.w3.org/2000/svg">
<circle cx="40.5491" cy="40.5491" r="39.2991" stroke="#8C2E47" stroke-width="2.5"/>
<g clip-path="url(#clip0_544_816)">
<path d="M53.269 21H53.9716C54.3957 21.2293 54.6477 21.6049 54.8856 22.011C56.9184 25.4784 58.9607 28.9394 60.9998 32.4029V33.0273C60.5796 34.1807 59.5413 33.8576 58.6719 33.9382C60.6023 39.1177 60.4489 44.179 58.1743 49.1957C58.6391 49.1957 59.0569 49.2239 59.4693 49.1894C60.1876 49.1292 60.7025 49.3866 60.999 50.0533V60.1283C60.7009 60.7934 60.1852 61.0031 59.4677 60.9969C56.4615 60.9703 53.4552 60.9867 50.4489 60.9843C49.6884 60.9843 49.2126 60.5023 49.2087 59.7417C49.2056 59.2284 49.2087 58.715 49.2087 58.1759C43.3683 60.748 37.6453 60.6072 31.873 57.6978C31.8222 57.7799 31.7658 57.9224 31.6665 58.0233C30.8159 58.8849 29.9622 59.7425 29.1007 60.5923C28.5663 61.1189 27.8856 61.1432 27.3644 60.626C25.3597 58.6368 23.3629 56.6398 21.3738 54.635C20.8558 54.1123 20.8832 53.4338 21.4122 52.8994C22.2079 52.0942 23.0084 51.2936 23.8151 50.4994C23.9716 50.3452 24.1649 50.2294 24.3018 50.1261C21.3863 44.3402 21.2541 38.6051 23.8245 32.7996C23.7322 32.7268 23.65 32.665 23.5694 32.6001C21.5303 30.9521 20.6453 28.8142 21.1399 26.246C21.636 23.666 23.2494 21.9922 25.776 21.2269C26.0843 21.1338 26.4028 21.0751 26.7165 21C27.2369 21 27.758 21 28.2784 21C28.323 21.0235 28.3652 21.061 28.4122 21.0681C30.1978 21.3404 31.6133 22.2239 32.6923 23.6606C32.7385 23.7216 32.7705 23.7936 32.7838 23.8155C38.9669 21.1276 44.9325 21.3897 50.7784 24.652C51.3151 23.7427 51.859 22.8444 52.3769 21.9312C52.5992 21.5392 52.8566 21.2003 53.269 21ZM33.7267 55.9355C33.8214 56.0021 33.8503 56.0294 33.8848 56.0459C34.0139 56.1077 34.1438 56.1672 34.2744 56.2243C35.9654 56.963 37.7267 57.42 39.5687 57.5749C42.8558 57.8519 45.9505 57.2071 48.8707 55.682C49.1453 55.5388 49.2181 55.3721 49.2158 55.0787C49.2009 53.5434 49.2072 52.0073 49.2095 50.472C49.2103 49.6605 49.6774 49.1973 50.4943 49.1957C52.017 49.1941 53.5397 49.184 55.0616 49.2043C55.3934 49.209 55.564 49.1112 55.715 48.8138C58.1164 44.0796 58.2932 39.264 56.287 34.3545C56.1446 34.0062 55.9583 33.9084 55.596 33.9108C52.9677 33.9264 50.3386 33.9209 47.7103 33.9155C47.4654 33.9155 47.2072 33.91 46.9795 33.8341C46.2596 33.5931 46.0037 32.7761 46.4208 32.0617C47.3903 30.4012 48.3715 28.7462 49.3464 27.0888C49.4161 26.9706 49.4763 26.847 49.546 26.7155C49.4427 26.6474 49.3715 26.5927 49.2932 26.5496C44.3363 23.8335 39.2651 23.6207 34.0773 25.843C33.8175 25.9541 33.7729 26.0958 33.8214 26.3485C33.877 26.6404 33.9028 26.9409 33.9161 27.2382C34.096 31.2776 30.4051 34.518 26.4176 33.8161C26.1195 33.7637 25.9669 33.809 25.8316 34.1189C24.107 38.073 23.8816 42.103 25.2025 46.2096C25.4255 46.9029 25.7236 47.572 26.0131 48.3193C26.5076 47.8153 26.9192 47.3818 27.3464 46.964C27.8715 46.4498 28.5585 46.4405 29.0827 46.9608C31.0671 48.9328 33.046 50.9118 35.0186 52.8955C35.571 53.451 35.5577 54.1279 35.0021 54.6898C34.5913 55.1053 34.1657 55.5075 33.7267 55.9348V55.9355ZM31.5671 27.444C31.5632 25.1927 29.7252 23.3491 27.4779 23.3436C25.2298 23.3382 23.3503 25.2201 23.359 27.4667C23.3683 29.7149 25.2118 31.5507 27.4622 31.5523C29.7439 31.5538 31.571 29.7259 31.5671 27.444ZM58.6399 51.5628H51.5804V58.6251H58.6399V51.5628ZM28.2737 49.5134C26.8347 50.9517 25.3895 52.3978 24.01 53.7766C25.4129 55.1796 26.8488 56.6171 28.2275 57.9959C29.6258 56.5983 31.0647 55.1601 32.4904 53.7359C31.0913 52.3352 29.6602 50.9016 28.2737 49.5134ZM57.7502 31.5335C56.359 29.1711 54.9967 26.8564 53.607 24.4963C52.2134 26.865 50.8543 29.1758 49.4662 31.5335H57.7494H57.7502Z" fill="#8C2E47"/>
<path d="M37.4564 39.6622C36.6301 38.2905 36.6082 36.8397 36.947 35.3991C37.422 33.3771 39.4478 32.0147 41.4321 32.2674C43.6231 32.5468 45.1974 34.2738 45.2232 36.4265C45.2444 38.1794 45.2005 38.4024 44.5706 39.6607C44.6653 39.7123 44.76 39.7679 44.8578 39.8172C47.249 41.0223 48.4721 42.9723 48.5699 45.6383C48.5839 46.028 48.5816 46.4193 48.5699 46.809C48.548 47.5125 48.0511 48.0148 47.3531 48.0156C43.1246 48.0211 38.8954 48.0203 34.6669 48.0156C34.0292 48.0156 33.4971 47.5868 33.4603 46.9702C33.3735 45.5069 33.4337 44.0569 34.1434 42.7156C34.8359 41.4073 35.8383 40.4268 37.1872 39.807C37.2678 39.7702 37.3429 39.7233 37.4564 39.6622ZM35.8375 45.6423H46.1739C46.2584 43.8252 44.9423 41.9926 43.1192 41.7336C41.7357 41.5364 40.2796 41.5364 38.8954 41.7336C37.073 41.9926 35.7584 43.8198 35.8367 45.643L35.8375 45.6423ZM39.0229 36.8608C39.0589 36.8718 39.0957 36.8827 39.1317 36.8937C39.1317 37.0627 39.1262 37.2325 39.1325 37.4008C39.1692 38.3288 39.8922 39.1223 40.771 39.2021C41.7803 39.2945 42.6458 38.7193 42.8077 37.7451C42.8993 37.1926 42.8954 36.5979 42.7983 36.047C42.6591 35.2567 42.1106 34.7864 41.3148 34.6471C40.5315 34.5101 39.868 34.7785 39.4728 35.4492C39.2279 35.8639 39.1661 36.3866 39.0221 36.8608H39.0229Z" fill="#8C2E47"/>
</g>
<defs>
<clipPath id="clip0_544_816">
<rect width="40" height="40" fill="white" transform="translate(21 21)"/>
</clipPath>
</defs>
</svg>
