<svg width="18" height="18" viewBox="0 0 18 18" fill="none" xmlns="http://www.w3.org/2000/svg">
<path d="M16.758 14.7245C16.7751 14.6722 16.79 14.6261 16.7986 14.6016C16.7922 14.6218 16.7772 14.6658 16.758 14.7245ZM16.758 14.7245C16.7441 14.7661 16.7292 14.8119 16.7132 14.8599C17.1484 13.5372 17.2018 12.8993 16.0583 12.2838C15.317 11.8848 14.5671 11.4302 13.7916 11.1134C12.293 10.5022 12.3943 12.3091 11.3244 12.8947C10.6289 13.2756 9.64763 12.5855 9.0407 12.2036C7.98043 11.5358 7.04071 10.657 6.25991 9.64046C5.85991 9.12097 4.9767 8.14394 5.0855 7.41537C5.2583 6.25907 6.62576 6.20108 6.23429 4.78663C6.02522 4.02927 5.65083 3.28389 5.37029 2.55426C4.99483 1.57609 4.84018 0.949824 3.74471 1.00316C2.95325 1.04156 2.42845 1.37996 1.94205 2.01466C0.625784 3.72885 0.82419 6.04 1.70845 7.9206C2.96072 10.582 5.10684 13.0911 7.3991 14.7125C8.95856 15.8155 11.0129 16.817 12.9009 16.9866C14.2833 17.1114 16.2172 16.3639 16.7121 14.863M16.758 14.7245C16.7452 14.7629 16.7324 14.8033 16.7121 14.863M16.7121 14.863C16.6663 15.0039 16.6407 15.0794 16.6289 15.1167C16.6449 15.0687 16.678 14.9676 16.7121 14.863Z" stroke="white"/>
</svg>
