<svg width="20" height="20" viewBox="0 0 20 20" fill="none" xmlns="http://www.w3.org/2000/svg">
<path d="M11.4434 18.1415L11.8952 17.3783L10.8194 16.7416L10.3677 17.5048L11.4434 18.1415ZM8.10485 17.3783L8.5566 18.1415L9.63227 17.5048L9.18052 16.7416L8.10485 17.3783ZM10.3677 17.5048C10.2071 17.7762 9.79294 17.7762 9.63227 17.5048L8.5566 18.1415C9.20127 19.2307 10.7988 19.2307 11.4434 18.1415L10.3677 17.5048ZM8.75002 2.29175H11.25V1.04175H8.75002V2.29175ZM17.7084 8.75008V9.58341H18.9584V8.75008H17.7084ZM2.29169 9.58341V8.75008H1.04169V9.58341H2.29169ZM1.04169 9.58341C1.04169 10.5456 1.04135 11.2985 1.08278 11.9057C1.1246 12.5187 1.21105 13.0287 1.40643 13.5004L2.56128 13.0221C2.4395 12.7281 2.36736 12.3699 2.32989 11.8207C2.29203 11.2658 2.29169 10.5627 2.29169 9.58341H1.04169ZM6.5021 15.2014C5.4559 15.1833 4.90771 15.1168 4.47801 14.9388L3.99966 16.0937C4.67047 16.3715 5.4345 16.4332 6.48057 16.4512L6.5021 15.2014ZM1.40643 13.5004C1.89275 14.6745 2.82557 15.6073 3.99966 16.0937L4.47801 14.9388C3.6102 14.5793 2.92074 13.8899 2.56128 13.0221L1.40643 13.5004ZM17.7084 9.58341C17.7084 10.5627 17.708 11.2658 17.6702 11.8207C17.6327 12.3699 17.5605 12.7281 17.4388 13.0221L18.5936 13.5004C18.789 13.0287 18.8754 12.5187 18.9173 11.9057C18.9587 11.2985 18.9584 10.5456 18.9584 9.58341H17.7084ZM13.5194 16.4512C14.5655 16.4332 15.3296 16.3715 16.0004 16.0937L15.522 14.9388C15.0924 15.1168 14.5441 15.1833 13.4979 15.2014L13.5194 16.4512ZM17.4388 13.0221C17.0793 13.8899 16.3899 14.5793 15.522 14.9388L16.0004 16.0937C17.1744 15.6073 18.1073 14.6745 18.5936 13.5004L17.4388 13.0221ZM11.25 2.29175C12.626 2.29175 13.6142 2.29241 14.3849 2.36569C15.1464 2.43809 15.6309 2.57694 16.0172 2.81365L16.6704 1.74785C16.0546 1.37056 15.3562 1.20241 14.5033 1.12131C13.6596 1.04109 12.6019 1.04175 11.25 1.04175V2.29175ZM18.9584 8.75008C18.9584 7.39826 18.959 6.3405 18.8788 5.49684C18.7977 4.64388 18.6295 3.94546 18.2523 3.32977L17.1864 3.9829C17.4232 4.36917 17.562 4.8537 17.6344 5.61516C17.7077 6.38591 17.7084 7.37405 17.7084 8.75008H18.9584ZM16.0172 2.81365C16.4938 3.10568 16.8944 3.50635 17.1864 3.9829L18.2523 3.32977C17.8572 2.68503 17.3151 2.14295 16.6704 1.74785L16.0172 2.81365ZM8.75002 1.04175C7.3982 1.04175 6.34044 1.04109 5.49678 1.12131C4.64382 1.20241 3.9454 1.37056 3.32971 1.74785L3.98284 2.81365C4.36911 2.57694 4.85364 2.43809 5.6151 2.36569C6.38585 2.29241 7.37399 2.29175 8.75002 2.29175V1.04175ZM2.29169 8.75008C2.29169 7.37405 2.29235 6.38591 2.36563 5.61516C2.43803 4.8537 2.57688 4.36917 2.81359 3.9829L1.74779 3.32977C1.3705 3.94546 1.20235 4.64388 1.12125 5.49684C1.04103 6.3405 1.04169 7.39826 1.04169 8.75008H2.29169ZM3.32971 1.74785C2.68497 2.14295 2.14289 2.68503 1.74779 3.32977L2.81359 3.9829C3.10562 3.50635 3.50629 3.10568 3.98284 2.81365L3.32971 1.74785ZM9.18052 16.7416C9.01135 16.4557 8.86285 16.2035 8.71844 16.0053C8.56627 15.7967 8.39185 15.6087 8.1499 15.468L7.52145 16.5486C7.56096 16.5715 7.61479 16.6134 7.70823 16.7416C7.80937 16.8804 7.92365 17.0722 8.10485 17.3783L9.18052 16.7416ZM6.48057 16.4512C6.84648 16.4575 7.07825 16.4622 7.25492 16.4817C7.42001 16.5 7.484 16.5267 7.52145 16.5486L8.1499 15.468C7.90594 15.3261 7.65207 15.268 7.3925 15.2392C7.14451 15.2118 6.84481 15.2073 6.5021 15.2014L6.48057 16.4512ZM11.8952 17.3783C12.0764 17.0722 12.1906 16.8804 12.2918 16.7416C12.3852 16.6134 12.439 16.5715 12.4785 16.5486L11.8501 15.468C11.6082 15.6087 11.4337 15.7967 11.2816 16.0053C11.1372 16.2035 10.9887 16.4557 10.8194 16.7416L11.8952 17.3783ZM13.4979 15.2014C13.1552 15.2073 12.8555 15.2118 12.6075 15.2392C12.3479 15.268 12.0941 15.3261 11.8501 15.468L12.4785 16.5486C12.516 16.5267 12.58 16.5 12.7451 16.4817C12.9218 16.4622 13.1535 16.4575 13.5194 16.4512L13.4979 15.2014Z" fill="white"/>
<path opacity="0.5" d="M6.66669 7.5H13.3334" stroke="white" stroke-width="2" stroke-linecap="round"/>
<path opacity="0.5" d="M6.66669 10.4167H11.25" stroke="white" stroke-width="2" stroke-linecap="round"/>
</svg>
