<svg width="13" height="11" viewBox="0 0 13 11" fill="none" xmlns="http://www.w3.org/2000/svg">
<g id="style=fill">
<g id="email">
<path id="Subtract" fill-rule="evenodd" clip-rule="evenodd" d="M9.58108 0C10.5413 0 11.4097 0.239996 12.0399 0.825238C12.6762 1.41604 13 2.29338 13 3.41892V7.58108C13 8.70665 12.6762 9.58397 12.0399 10.1748C11.4097 10.76 10.5413 11 9.58108 11H3.63513C2.67486 11 1.80652 10.76 1.17631 10.1748C0.540032 9.58397 0.216216 8.70665 0.216216 7.58108V3.41892C0.216216 2.29338 0.540032 1.41604 1.17631 0.825238C1.80652 0.239996 2.67486 0 3.63513 0H9.58108ZM2.31008 3.33704C2.11523 3.18646 2.07932 2.90639 2.22993 2.71151C2.38048 2.51662 2.66053 2.48071 2.85544 2.6313L6.15372 5.17987C6.42135 5.38673 6.79493 5.38673 7.06262 5.17987L10.3608 2.6313C10.5557 2.48071 10.8358 2.51662 10.9864 2.71151C11.137 2.90639 11.1011 3.18646 10.9062 3.33704L7.60792 5.88565C7.01903 6.34064 6.19724 6.34064 5.60836 5.88565L2.31008 3.33704Z" fill="#EBEBEB"/>
</g>
</g>
</svg>
