<svg width="81" height="81" viewBox="0 0 81 81" fill="none" xmlns="http://www.w3.org/2000/svg">
<circle cx="40.0935" cy="40.0935" r="38.8435" stroke="#8C2E47" stroke-width="2.5"/>
<path d="M41.2539 40.2466V40.389L41.3763 40.4616L50.5383 45.8978L49.236 48.0336L38.6273 41.6684V29.5537H41.2539V40.2466ZM19.868 39.7255C19.868 28.3576 29.0735 19.1318 40.4408 19.1318C51.8295 19.1318 61.0554 28.358 61.0554 39.7255C61.0554 51.093 51.8295 60.3192 40.4408 60.3192C29.0735 60.3192 19.868 51.0935 19.868 39.7255ZM23.5367 39.7255C23.5367 49.0765 31.1107 56.6505 40.4617 56.6505C49.8127 56.6505 57.3866 49.0765 57.3866 39.7255C57.3866 30.3745 49.8127 22.8006 40.4617 22.8006C31.1107 22.8006 23.5367 30.3745 23.5367 39.7255Z" fill="#8C2E47" stroke="white" stroke-width="0.5"/>
</svg>
