<svg width="81" height="80" viewBox="0 0 81 80" fill="none" xmlns="http://www.w3.org/2000/svg">
<path d="M79.75 40C79.75 61.3864 62.1919 78.75 40.5 78.75C18.8081 78.75 1.25 61.3864 1.25 40C1.25 18.6136 18.8081 1.25 40.5 1.25C62.1919 1.25 79.75 18.6136 79.75 40Z" stroke="#8C2E47" stroke-width="2.5"/>
<path d="M50.3333 35.3333L56.3459 31.7258C58.1964 30.6154 59.1218 30.0602 59.8832 30.1312C60.547 30.1931 61.1528 30.536 61.5473 31.0734C62 31.6898 62 32.7689 62 34.9271V45.0729C62 47.231 62 48.3102 61.5473 48.9266C61.1528 49.464 60.547 49.807 59.8832 49.8688C59.1218 49.9398 58.1964 49.3847 56.3459 48.2742L50.3333 44.6667M27.4667 54H42.8667C45.4802 54 46.7871 54 47.7853 53.4913C48.6634 53.044 49.3774 52.33 49.8247 51.452C50.3333 50.4538 50.3333 49.1469 50.3333 46.5333V33.4667C50.3333 30.8531 50.3333 29.5463 49.8247 28.548C49.3774 27.6699 48.6634 26.956 47.7853 26.5086C46.7871 26 45.4802 26 42.8667 26H27.4667C24.8531 26 23.5463 26 22.548 26.5086C21.6699 26.956 20.956 27.6699 20.5086 28.548C20 29.5463 20 30.8531 20 33.4667V46.5333C20 49.1469 20 50.4538 20.5086 51.452C20.956 52.33 21.6699 53.044 22.548 53.4913C23.5463 54 24.8531 54 27.4667 54Z" stroke="#8C2E47" stroke-width="3" stroke-linecap="round" stroke-linejoin="round"/>
</svg>
