<svg width="82" height="82" viewBox="0 0 82 82" fill="none" xmlns="http://www.w3.org/2000/svg">
<circle cx="40.5491" cy="40.5491" r="39.2991" stroke="#8C2E47" stroke-width="2.5"/>
<path d="M35.0268 40.6901C32.1572 38.9043 30.4405 36.4014 30.0722 33.0701C29.7581 30.223 30.5563 27.6719 32.4263 25.4982C36.2234 21.0847 42.9157 20.8036 47.039 24.9044C49.3584 27.2104 50.334 30.0426 49.9176 33.2941C49.5028 36.5397 47.7786 38.9584 44.9916 40.6947C46.3009 41.0885 47.5335 41.5801 48.7286 42.2535C48.2446 42.7316 47.7831 43.1946 47.3081 43.6455C47.263 43.6876 47.1217 43.6666 47.048 43.6305C45.8575 43.0518 44.6203 42.6023 43.32 42.3482C38.3219 41.3696 33.8077 42.4505 29.8498 45.6554C27.0177 47.9494 25.2003 50.9168 24.4051 54.478C24.1646 55.5574 24.0624 56.6683 23.9091 57.7671C23.885 57.937 23.8414 58.0047 23.658 58.0001C23.1199 57.9881 22.5802 57.9956 22 57.9956C22.0406 53.9744 23.2176 50.3636 25.6257 47.1722C28.0294 43.9868 31.1726 41.8492 35.0268 40.6901ZM40.01 24.0055C35.6026 24.0085 32.0114 27.5938 32.0084 31.9953C32.0054 36.4014 35.6116 40.0017 40.0235 39.9956C44.4279 39.9896 48.0191 36.3908 48.0116 31.9938C48.0041 27.5863 44.4144 24.0025 40.01 24.0055Z" fill="#8C2E47" stroke="#8C2E47" stroke-width="0.5"/>
<path d="M54.788 39.0109C56.201 40.4224 57.5945 41.8159 59.03 43.2485C58.8226 43.444 58.6001 43.6424 58.3897 43.8529C54.2017 48.0394 50.0168 52.2275 45.8273 56.4111C45.7251 56.5133 45.5823 56.6035 45.444 56.6396C43.7274 57.074 42.0077 57.4964 40.288 57.9203C40.2143 57.9384 40.1407 57.9519 40.0234 57.9775C40.0986 57.6708 40.1647 57.3987 40.2339 57.1266C40.6172 55.6038 41.0005 54.0795 41.3914 52.5582C41.4199 52.4455 41.4816 52.3252 41.5627 52.244C45.925 47.8726 50.2904 43.5041 54.6557 39.1356C54.6993 39.092 54.7459 39.053 54.791 39.0109H54.788ZM42.7743 55.2265C42.8675 55.2115 42.9261 55.207 42.9833 55.1934C43.4763 55.0717 43.9709 54.9544 44.4624 54.8236C44.5676 54.7951 44.6774 54.7364 44.754 54.6598C48.5196 50.8986 52.2806 47.1345 56.0417 43.3688C56.0898 43.3207 56.1318 43.2696 56.1559 43.2425C55.6914 42.772 55.2389 42.3135 54.7805 41.8475C54.7324 41.8926 54.6767 41.9452 54.6226 41.9993C53.859 42.763 53.0954 43.5266 52.3332 44.2903C49.3569 47.2683 46.379 50.2477 43.4042 53.2272C43.3395 53.2918 43.2568 53.3594 43.2343 53.4406C43.0765 54.0239 42.9322 54.6117 42.7758 55.228L42.7743 55.2265Z" fill="#8C2E47" stroke="#8C2E47" stroke-width="0.5"/>
</svg>
