<svg width="12" height="14" viewBox="0 0 12 14" fill="none" xmlns="http://www.w3.org/2000/svg">
<path id="Vector" d="M6 14C6.63158 14 5.88442 12.9718 8.99811 11.3726C9.16869 11.2848 9.33423 11.1869 9.49389 11.0795C11.0432 10.0403 12 8.13953 12 6.09358C12 2.72837 9.31389 0 6 0C2.68611 0 0 2.72837 0 6.09293C0 8.34726 1.16463 10.4277 2.99684 11.37C6.11369 12.9712 5.36842 14 6 14ZM6 8.53674C4.66674 8.53674 3.6 7.448 3.6 6.12419C3.6 4.80037 4.66674 3.71163 6 3.71163C7.33326 3.71163 8.4 4.80037 8.4 6.12419C8.4 7.448 7.33326 8.53674 6 8.53674Z" fill="#EBEBEB"/>
</svg>
