<?xml version="1.0" encoding="UTF-8"?>
<svg version="1.1" xmlns="http://www.w3.org/2000/svg" width="1280" height="1024">
<path d="M0 0 C1.02738016 -0.00155999 2.05476031 -0.00311998 3.1132732 -0.00472724 C6.54436668 -0.0087046 9.97541562 -0.00555991 13.4065094 -0.00241089 C15.87315395 -0.00376665 18.3397983 -0.00554757 20.80644226 -0.00772095 C26.81225051 -0.01180818 32.81804144 -0.01120727 38.82384901 -0.00830831 C43.7260532 -0.00604149 48.62825389 -0.0057473 53.53045845 -0.00683212 C54.58097787 -0.00706197 54.58097787 -0.00706197 55.6527199 -0.00729647 C57.07630165 -0.00761625 58.4998834 -0.00794047 59.92346514 -0.00826906 C73.28013407 -0.01112127 86.63679614 -0.00784447 99.99346394 -0.00246869 C111.36275732 0.00196685 122.73204044 0.00125004 134.10133362 -0.00338745 C147.36202715 -0.00879408 160.6227146 -0.01081289 173.88340908 -0.00777519 C175.31157593 -0.00745673 176.73974277 -0.00714236 178.16790962 -0.00683212 C178.87015686 -0.00667785 179.5724041 -0.00652357 180.29593156 -0.00636462 C185.1544165 -0.00551507 190.01289743 -0.00695037 194.87138176 -0.00931168 C219.9214975 -0.02031192 244.96942239 -0.0273137 270.01441956 0.53372192 C271.25475805 0.55883681 271.25475805 0.55883681 272.52015388 0.58445907 C285.4593586 0.85748443 297.98522104 1.89790996 310.55714417 5.12698364 C311.97301819 5.48687378 311.97301819 5.48687378 313.41749573 5.85403442 C333.20013931 11.04608093 351.08027398 18.97460763 367.55714417 31.12698364 C368.4839801 31.81018677 369.41081604 32.49338989 370.36573792 33.19729614 C390.11231867 48.63073073 405.16943788 67.91499708 416.55714417 90.12698364 C416.90615784 90.8005188 417.25517151 91.47405396 417.61476135 92.16799927 C437.99963085 131.96076755 440.9676963 177.94122586 427.48439026 220.42922974 C419.45395744 243.79317988 406.49342403 264.27522919 389.55714417 282.12698364 C389.08969788 282.62697876 388.62225159 283.12697388 388.14064026 283.64212036 C359.36734267 314.25854733 317.74712899 332.69851379 275.76026917 334.36526489 C263.5934938 334.63482818 251.23738568 334.3917336 241.51441956 326.01052856 C234.56945907 319.3271844 229.76352108 311.43365525 225.36964417 302.93948364 C224.24128916 300.80829303 223.11103166 298.67810877 221.97901917 296.54885864 C221.41118713 295.47700317 220.8433551 294.40514771 220.25831604 293.30081177 C217.62378332 288.38563878 214.87809415 283.53589782 212.11964417 278.68948364 C211.038761 276.78722739 209.95803326 274.88488281 208.87745667 272.98245239 C208.33508362 272.02774048 207.79271057 271.07302856 207.23390198 270.08938599 C204.29970372 264.90540787 201.39936923 259.7025135 198.49464417 254.50198364 C192.25151716 243.33673664 185.92082209 232.22383552 179.55714417 221.12698364 C176.93036496 216.54466708 174.30520887 211.96142714 171.68214417 207.37698364 C171.34267761 206.78384369 171.00321106 206.19070374 170.65345764 205.57958984 C165.86312431 197.20616789 161.12796587 188.80388648 156.43214417 180.37698364 C151.91943049 172.27972569 147.3150646 164.24460922 142.61964417 156.25198364 C137.76852074 147.98092172 132.99265764 139.67135872 128.31394958 131.30172729 C127.33060499 129.54392171 126.34249111 127.78878684 125.35426331 126.03372192 C124.75605774 124.95848267 124.15785217 123.88324341 123.54151917 122.77542114 C122.74826233 121.35495483 122.74826233 121.35495483 121.9389801 119.90579224 C118.67519294 113.34246618 117.68203658 107.38713543 118.55714417 100.12698364 C120.73118015 95.61787197 123.04807432 93.26879182 127.55714417 91.12698364 C130.50712147 90.23496198 133.18284363 89.98719626 136.25880432 89.94998169 C137.18722137 89.93714645 138.11563843 89.92431122 139.07218933 89.91108704 C140.07011505 89.9037001 141.06804077 89.89631317 142.09620667 89.88870239 C143.1322403 89.88063065 144.16827393 89.8725589 145.23570251 89.86424255 C147.4295841 89.85041804 149.62348705 89.83968859 151.81739807 89.83181763 C154.04988452 89.82031664 156.28234387 89.79989491 158.5146637 89.77029419 C161.75036703 89.72739752 164.98525343 89.71141592 168.22120667 89.70120239 C169.206987 89.68369431 170.19276733 89.66618622 171.2084198 89.64814758 C178.8446212 89.67172989 185.89243961 90.98406826 191.83424377 96.0798645 C192.30869934 96.76443726 192.78315491 97.44901001 193.27198792 98.15432739 C193.82354553 98.94436157 194.37510315 99.73439575 194.94337463 100.54837036 C197.83899226 105.17522563 200.5195878 109.89100563 203.11964417 114.68948364 C204.34822721 116.92099163 205.57874632 119.15143462 206.81105042 121.38088989 C207.43253967 122.50640259 208.05402893 123.63191528 208.6943512 124.79153442 C211.57385242 129.94746439 214.56210917 135.03757461 217.55714417 140.12698364 C222.9726622 149.3507261 228.2434652 158.64715362 233.4521637 167.98904419 C237.07873597 174.49202085 240.73256999 180.97775279 244.43214417 187.43948364 C245.14999084 188.69329834 245.14999084 188.69329834 245.88233948 189.97244263 C247.43990626 192.69102562 248.99848554 195.4090265 250.55714417 198.12698364 C253.18392342 202.70930031 255.80892111 207.29263071 258.43214417 211.87698364 C258.76828735 212.46414154 259.10443054 213.05129944 259.45075989 213.65625 C263.18072639 220.17389806 266.89055403 226.70187778 270.54933167 233.25979614 C271.18242249 234.39449341 271.81551331 235.52919067 272.4677887 236.69827271 C273.66135796 238.84207139 274.85258048 240.98717895 276.04103088 243.13381958 C279.3110928 249.02771435 279.3110928 249.02771435 282.94776917 254.69729614 C284.55714417 257.12698364 284.55714417 257.12698364 284.55714417 259.12698364 C291.55763874 258.75897128 297.38721661 257.48805183 303.80714417 254.68948364 C304.62561829 254.33748901 305.44409241 253.98549438 306.28736877 253.62283325 C328.51302437 243.65915931 347.59592117 224.51771245 356.31886292 201.68948364 C365.56751072 175.95055414 364.33758239 149.75233255 353.07667542 124.85354614 C349.88921548 118.75208129 346.013251 113.35960018 341.55714417 108.12698364 C340.7927301 107.22850708 340.02831604 106.33003052 339.24073792 105.40432739 C323.16119772 87.11039043 301.91707705 75.43769728 277.55714417 73.12698364 C276.71357857 73.04589896 275.87001297 72.96481429 275.00088477 72.88127249 C268.01831763 72.24943057 261.11628727 71.98231505 254.10749817 71.99327087 C252.47737325 71.98987254 252.47737325 71.98987254 250.81431651 71.98640555 C247.20807348 71.98012434 243.60186859 71.98089108 239.99562073 71.98171997 C237.39602612 71.97872496 234.79643196 71.97532165 232.19683838 71.97154236 C225.89116859 71.96327676 219.58550816 71.96048946 213.27983341 71.95992998 C208.15385213 71.95945326 203.02787392 71.95739078 197.90189362 71.95422935 C183.34887012 71.94543716 168.79585397 71.94080821 154.2428278 71.94155983 C153.068827 71.94161976 153.068827 71.94161976 151.87110901 71.94168091 C151.0874806 71.94172179 150.30385218 71.94176267 149.49647745 71.94180479 C136.77974138 71.94221177 124.06303484 71.93262531 111.34630731 71.91854254 C98.26938317 71.90417564 85.19247345 71.8972724 72.11554122 71.89813632 C64.78138843 71.89846798 57.44726669 71.8957339 50.11312103 71.88495827 C43.22168208 71.87489712 36.33030975 71.87519167 29.43886757 71.8824749 C26.91050178 71.88352163 24.38213191 71.88115263 21.85377312 71.87511444 C18.40205651 71.8674048 14.95056725 71.87203258 11.49885559 71.87974548 C10.49924246 71.87460192 9.49962933 71.86945836 8.46972489 71.86415893 C2.82092416 71.89204311 -2.02173522 72.51747787 -7.44285583 74.12698364 C-6.94790324 79.18671853 -5.90145422 82.71293586 -3.33738708 87.09182739 C-2.69092224 88.20880005 -2.0444574 89.32577271 -1.37840271 90.47659302 C-0.67091623 91.6726724 0.03677122 92.86863294 0.74464417 94.06448364 C1.47550128 95.3184357 2.20530413 96.57300277 2.93409729 97.82815552 C4.78205562 101.00507177 6.64263494 104.17437725 8.50727844 107.34152222 C10.06844305 109.99652764 11.61951242 112.65738627 13.17042542 115.31838989 C14.86740574 118.22975656 16.56513969 121.14064704 18.2671051 124.04910278 C23.41233817 132.84721917 28.46886325 141.69517179 33.5171051 150.54910278 C38.09002505 158.56804209 42.68915563 166.57137702 47.30714417 174.56448364 C49.1371687 177.73473696 50.96687884 180.90517142 52.79640198 184.07571411 C53.9620781 186.09576683 55.12808898 188.11562642 56.29444885 190.13528442 C57.92667867 192.96413743 59.55496084 195.79522557 61.18214417 198.62698364 C61.65490784 199.44481323 62.12767151 200.26264282 62.61476135 201.10525513 C73.4874479 220.06592106 73.4874479 220.06592106 72.55714417 230.12698364 C70.78910751 235.33286936 68.33292316 237.49543195 63.55714417 240.12698364 C59.38454326 241.39169775 55.16671866 241.41040265 50.83839417 241.54885864 C49.98467224 241.57675476 49.13095032 241.60465088 48.25135803 241.63339233 C46.4425601 241.68973437 44.63367574 241.74335828 42.82472229 241.79446411 C40.09416307 241.87587987 37.36503727 241.97974605 34.63526917 242.08401489 C21.46608824 242.50842616 8.93654629 242.35488643 -1.44285583 233.12698364 C-7.32063068 226.69940943 -11.59600443 219.70899183 -15.56785583 212.00198364 C-20.01794504 203.57888097 -24.60685234 195.27237949 -29.44285583 187.06448364 C-34.01695116 179.29193226 -38.52557262 171.48978808 -42.94285583 163.62698364 C-47.42969612 155.64398425 -51.99991511 147.71502026 -56.63035583 139.81448364 C-86.54982072 88.61401151 -86.54982072 88.61401151 -79.40769958 56.78713989 C-76.38367587 45.31543859 -71.57755924 36.43795706 -64.44285583 27.12698364 C-63.85375427 26.35225708 -63.26465271 25.57753052 -62.65769958 24.77932739 C-50.73095948 10.14580939 -31.06598786 2.5408364 -12.73968875 0.33251977 C-8.497106 -0.0471352 -4.25660141 -0.0100087 0 0 Z " fill="#F8CE6A" transform="translate(493.44285583496094,240.87301635742188)"/>
<path d="M0 0 C4.53653343 4.16238634 6.3128558 8.40757815 6.71875 14.37890625 C6.83667986 22.74209865 6.66995585 27.85161965 0.953125 34.265625 C-3.12919693 37.302229 -7.51012584 37.66377741 -12.484375 37.390625 C-15.27302168 36.78614956 -17.95386462 36.00574718 -20.6796875 35.1640625 C-27.15819038 33.37751157 -33.91621811 32.79296522 -40.484375 34.390625 C-40.34023946 36.3253958 -40.34023946 36.3253958 -39.484375 38.390625 C-37.43044314 39.81494856 -37.43044314 39.81494856 -34.8125 40.87109375 C-33.84376953 41.3084082 -32.87503906 41.74572266 -31.87695312 42.19628906 C-30.83990234 42.65229492 -29.80285156 43.10830078 -28.734375 43.578125 C-19.58502964 47.77556313 -11.34597397 52.07457258 -3.484375 58.390625 C-2.79601562 58.92558594 -2.10765625 59.46054687 -1.3984375 60.01171875 C6.02763111 66.51358231 11.00239105 77.41261719 11.71875 87.15234375 C11.91320814 99.28977251 8.73821249 109.4645091 0.51171875 118.62109375 C-12.97138801 131.47707926 -30.78326152 133.12908469 -48.55859375 132.76953125 C-55.14526598 132.47724565 -61.46385373 131.29291906 -67.83837891 129.63842773 C-68.59683105 129.45094971 -69.3552832 129.26347168 -70.13671875 129.0703125 C-70.78632568 128.89226074 -71.43593262 128.71420898 -72.10522461 128.53076172 C-74.69107897 128.25069229 -74.69107897 128.25069229 -77.90234375 129.3293457 C-83.8968195 130.95434923 -89.97492233 130.69590764 -96.14453125 130.69140625 C-97.44837265 130.69569138 -98.75221405 130.6999765 -100.0955658 130.70439148 C-102.84313041 130.71181461 -105.59056642 130.71159002 -108.33813477 130.70629883 C-111.84391673 130.70049438 -115.34917205 130.71747704 -118.85486698 130.7406435 C-122.2222765 130.75898163 -125.58957216 130.75519469 -128.95703125 130.75390625 C-130.83383324 130.76772087 -130.83383324 130.76772087 -132.74855042 130.78181458 C-140.84839032 130.73887269 -147.2679994 130.10969055 -153.484375 124.390625 C-153.484375 123.730625 -153.484375 123.070625 -153.484375 122.390625 C-157.66236783 123.90989512 -161.71933407 125.48219604 -165.734375 127.390625 C-181.921451 134.46396913 -201.56631628 134.89545285 -218.40625 129.609375 C-222.02810532 128.17534091 -225.36724321 126.53428095 -228.65234375 124.44140625 C-230.58556511 123.33258632 -232.30890697 122.82957753 -234.484375 122.390625 C-234.8246875 123.2878125 -234.8246875 123.2878125 -235.171875 124.203125 C-237.10521436 127.42535727 -239.74204784 128.83825564 -243.28849792 129.96258545 C-245.97502247 130.48626629 -248.50537094 130.53339545 -251.2434082 130.55175781 C-252.4017366 130.56136536 -253.560065 130.5709729 -254.75349426 130.58087158 C-256.00144272 130.58512146 -257.24939117 130.58937134 -258.53515625 130.59375 C-259.8224614 130.59945007 -261.10976654 130.60515015 -262.43608093 130.61102295 C-265.16043491 130.62151285 -267.88475955 130.62736849 -270.60913086 130.63085938 C-274.08584917 130.63633676 -277.56217443 130.66035656 -281.03876972 130.68883133 C-284.37089051 130.71203036 -287.70295894 130.71391208 -291.03515625 130.71875 C-292.27703201 130.7310968 -293.51890778 130.7434436 -294.79841614 130.75616455 C-302.18916568 130.73717101 -307.72463253 130.48688351 -313.609375 125.640625 C-315.41707615 124.141964 -315.41707615 124.141964 -317.67211914 124.65429688 C-320.57603926 125.36572617 -320.57603926 125.36572617 -323.66186523 126.56445312 C-334.67933725 130.61344145 -344.86167461 131.10426775 -356.53295898 130.93261719 C-359.57405134 130.89024636 -362.61295468 130.89161015 -365.65429688 130.8984375 C-367.60939028 130.88795845 -369.56447242 130.87502731 -371.51953125 130.859375 C-372.41752945 130.85917358 -373.31552765 130.85897217 -374.24073792 130.85876465 C-381.10252563 130.73012572 -385.87149988 129.53898899 -391.296875 125.078125 C-396.02131913 119.27380793 -395.77730878 113.13880482 -395.7590332 105.99829102 C-395.76414413 104.96502686 -395.76925507 103.9317627 -395.77452087 102.8671875 C-395.78839434 99.45957612 -395.78746184 96.05216748 -395.78515625 92.64453125 C-395.78904424 90.27090887 -395.79337912 87.89728717 -395.79814148 85.52366638 C-395.80559874 80.55148054 -395.80531583 75.57936572 -395.80004883 70.60717773 C-395.79425311 64.24063035 -395.81119035 57.87437379 -395.8343935 51.50787449 C-395.84913611 46.60676885 -395.85000183 41.70573318 -395.84688377 36.8046093 C-395.84739666 34.45750286 -395.85262821 32.11039247 -395.86269569 29.76330757 C-395.87505345 26.47946473 -395.86827205 23.19618754 -395.85668945 19.91235352 C-395.86433319 18.94641769 -395.87197693 17.98048187 -395.87985229 16.98527527 C-395.82497427 9.93402086 -394.75969167 5.15790203 -390.171875 -0.421875 C-384.72911363 -4.85202961 -379.09730584 -4.917569 -372.38671875 -4.91015625 C-371.51600235 -4.91444138 -370.64528595 -4.9187265 -369.7481842 -4.92314148 C-367.90838486 -4.92886795 -366.06856288 -4.92939748 -364.22875977 -4.92504883 C-361.45483228 -4.92191227 -358.68199719 -4.94528717 -355.90820312 -4.97070312 C-342.6820856 -5.01825423 -331.30707287 -4.05811929 -319.484375 2.390625 C-318.16044781 2.75955004 -316.82819283 3.102454 -315.484375 3.390625 C-315.2575 2.7925 -315.030625 2.194375 -314.796875 1.578125 C-312.8703204 -1.63279933 -310.2468293 -3.045234 -306.71484375 -4.17578125 C-299.15808933 -5.64478255 -291.1479192 -5.63526629 -284.484375 -1.609375 C-280.40599447 1.7439601 -278.8210406 4.33264836 -277.484375 9.390625 C-277.28834224 12.12459344 -277.18358894 14.75892862 -277.18139648 17.49145508 C-277.17295715 18.28076416 -277.16451782 19.07007324 -277.15582275 19.88330078 C-277.13016336 22.47559245 -277.11793576 25.06777063 -277.10546875 27.66015625 C-277.0892876 29.46523432 -277.07210695 31.27030368 -277.05397034 33.07536316 C-277.00838349 37.81448353 -276.97351774 42.55361555 -276.94177246 47.29284668 C-276.88978859 54.89620544 -276.82491481 62.49943715 -276.75355721 70.10263634 C-276.73066595 72.76224493 -276.71443781 75.42183709 -276.69883728 78.08149719 C-276.68543826 79.69992255 -276.67182413 81.31834615 -276.65795898 82.93676758 C-276.65534561 83.68115585 -276.65273224 84.42554413 -276.65003967 85.19248962 C-276.9139645 88.57879934 -276.9139645 88.57879934 -275.484375 91.390625 C-273.55958687 91.54869031 -271.6293829 91.64176 -269.69921875 91.70703125 C-268.52939453 91.74892578 -267.35957031 91.79082031 -266.15429688 91.83398438 C-264.92259766 91.87330078 -263.69089844 91.91261719 -262.421875 91.953125 C-261.18630859 91.99630859 -259.95074219 92.03949219 -258.67773438 92.08398438 C-255.61340165 92.19046698 -252.54898427 92.29247924 -249.484375 92.390625 C-249.64605164 91.39361572 -249.80772827 90.39660645 -249.9743042 89.36938477 C-250.52706293 85.47998354 -250.62507269 81.66148752 -250.64550781 77.73046875 C-250.65047272 76.99941925 -250.65543762 76.26836975 -250.66055298 75.51516724 C-250.6750464 73.11947662 -250.68195303 70.72385208 -250.6875 68.328125 C-250.69174107 67.09314774 -250.69174107 67.09314774 -250.69606781 65.83322144 C-250.71100411 61.48093347 -250.72027015 57.12867822 -250.72460938 52.77636719 C-250.73010293 48.29423502 -250.75416537 43.81240525 -250.78258133 39.33036804 C-250.80124347 35.86957937 -250.80641509 32.40886329 -250.80794525 28.94802856 C-250.81096143 27.29589169 -250.81895482 25.64375579 -250.83213043 23.9916687 C-250.84927543 21.67780696 -250.84729111 19.36468155 -250.84082031 17.05078125 C-250.84628876 15.08057007 -250.84628876 15.08057007 -250.85186768 13.07055664 C-250.31010982 7.64559988 -248.67546595 3.83924913 -245.171875 -0.421875 C-238.82866823 -5.58495028 -231.28806554 -5.23289085 -223.484375 -4.609375 C-218.34555306 -3.45336585 -214.78878868 -0.66908324 -211.484375 3.390625 C-209.70353902 7.75874947 -209.22660445 11.47314206 -209.19726562 16.17114258 C-209.19043259 16.8208049 -209.18359955 17.47046722 -209.17655945 18.13981628 C-209.16304372 19.54092303 -209.15394424 20.94207807 -209.14884949 22.34324074 C-209.14049992 24.56849047 -209.11993839 26.79334155 -209.09631348 29.01847839 C-209.04825724 33.74663403 -209.01524121 38.47483 -208.984375 43.203125 C-208.94855951 48.67620528 -208.9063959 54.14909016 -208.84843445 59.62198448 C-208.82855612 61.80041104 -208.8200846 63.97868306 -208.81213379 66.15718079 C-209.05504583 78.53683379 -209.05504583 78.53683379 -204.046875 89.390625 C-199.26260799 93.12468706 -194.3149214 92.88104479 -188.484375 92.390625 C-184.51663228 91.09209102 -183.00199172 90.15812565 -180.671875 86.703125 C-177.88872638 78.93960516 -178.32625217 70.68492064 -178.28514481 62.53581047 C-178.27321789 60.37824174 -178.25373581 58.22086109 -178.23202515 56.06336975 C-178.17084233 49.93480725 -178.11634705 43.80627308 -178.08300781 37.67749023 C-178.06199539 33.91389468 -178.02665508 30.15065902 -177.98225021 26.38726997 C-177.96815902 24.96127123 -177.95938343 23.53520901 -177.95619583 22.10914421 C-177.91774652 6.56634712 -177.91774652 6.56634712 -172.171875 -0.421875 C-167.13605837 -4.52079551 -161.96145411 -4.90613295 -155.66235352 -4.8840332 C-154.90218933 -4.88914413 -154.14202515 -4.89425507 -153.35882568 -4.89952087 C-150.86022951 -4.91335618 -148.36191104 -4.91246478 -145.86328125 -4.91015625 C-144.11742552 -4.91404636 -142.37157074 -4.91838168 -140.62571716 -4.92314148 C-136.97171964 -4.93059054 -133.31781877 -4.93032184 -129.66381836 -4.92504883 C-124.9921864 -4.91925427 -120.32095093 -4.93619116 -115.6493845 -4.9593935 C-112.04532069 -4.97415802 -108.4413518 -4.97499887 -104.83726311 -4.97188377 C-103.11535799 -4.97239556 -101.39344737 -4.97760649 -99.67157173 -4.98769569 C-97.25938605 -5.00009657 -94.84796537 -4.9932472 -92.43579102 -4.98168945 C-91.3796183 -4.99315506 -91.3796183 -4.99315506 -90.30210876 -5.00485229 C-85.25183634 -4.95163644 -81.89275599 -3.9041187 -77.484375 -1.609375 C-76.618125 -0.701875 -75.751875 0.205625 -74.859375 1.140625 C-73.68375 2.254375 -73.68375 2.254375 -72.484375 3.390625 C-68.80416992 3.06160004 -66.06227766 1.78311309 -62.859375 0.015625 C-46.19187137 -8.57894468 -16.08602657 -11.60991483 0 0 Z M-352.484375 34.390625 C-353.144375 35.050625 -353.804375 35.710625 -354.484375 36.390625 C-354.16396103 38.99343068 -354.16396103 38.99343068 -353.484375 41.390625 C-350.54345913 41.20647068 -350.54345913 41.20647068 -347.484375 40.390625 C-346.04799802 38.43899382 -346.04799802 38.43899382 -345.484375 36.390625 C-347.794375 35.730625 -350.104375 35.070625 -352.484375 34.390625 Z M-115.484375 36.390625 C-115.81770833 38.890625 -115.81770833 38.890625 -115.484375 41.390625 C-112.77751809 44.09748191 -111.20418851 43.71145556 -107.41796875 43.83984375 C-105.6071582 43.90461914 -105.6071582 43.90461914 -103.75976562 43.97070312 C-102.49326172 44.00615234 -101.22675781 44.04160156 -99.921875 44.078125 C-98.01631836 44.14870117 -98.01631836 44.14870117 -96.07226562 44.22070312 C-91.27889463 44.39128626 -91.27889463 44.39128626 -86.484375 44.390625 C-85.28742224 43.41151915 -85.28742224 43.41151915 -85.3515625 41.578125 C-85.35542969 40.4953125 -85.35542969 40.4953125 -85.359375 39.390625 C-85.35679687 38.66875 -85.35421875 37.946875 -85.3515625 37.203125 C-85.28742224 35.36973085 -85.28742224 35.36973085 -86.484375 34.390625 C-90.95769458 34.13682266 -95.4422096 34.20539779 -99.921875 34.203125 C-101.18837891 34.19087891 -102.45488281 34.17863281 -103.75976562 34.16601562 C-104.96697266 34.16408203 -106.17417969 34.16214844 -107.41796875 34.16015625 C-108.53228271 34.15604736 -109.64659668 34.15193848 -110.79467773 34.14770508 C-113.63559461 34.11475328 -113.63559461 34.11475328 -115.484375 36.390625 Z M-74.484375 65.390625 C-74.72671875 65.99390625 -74.9690625 66.5971875 -75.21875 67.21875 C-78.75323645 75.64714078 -78.75323645 75.64714078 -82.484375 78.390625 C-86.58262566 79.98930544 -90.08205424 80.65264408 -94.46875 80.734375 C-96.11810547 80.77884766 -96.11810547 80.77884766 -97.80078125 80.82421875 C-100.10546293 80.86879166 -102.41015054 80.91305843 -104.71484375 80.95703125 C-105.80925781 80.98667969 -106.90367187 81.01632812 -108.03125 81.046875 C-109.02995117 81.06556641 -110.02865234 81.08425781 -111.05761719 81.10351562 C-113.66452381 81.15801976 -113.66452381 81.15801976 -115.484375 83.390625 C-115.81770833 86.890625 -115.81770833 86.890625 -115.484375 90.390625 C-112.06567967 93.80932033 -107.20051413 92.7288167 -102.58203125 92.76171875 C-101.51106201 92.76147705 -101.51106201 92.76147705 -100.41845703 92.76123047 C-98.25602147 92.76558145 -96.09566488 92.80182606 -93.93359375 92.83984375 C-92.54948611 92.8457166 -91.16536882 92.84968286 -89.78125 92.8515625 C-87.89937988 92.86388916 -87.89937988 92.86388916 -85.97949219 92.87646484 C-81.86738184 92.30485967 -79.8149256 90.79399888 -76.484375 88.390625 C-69.92718832 86.29465173 -64.44888924 87.98418911 -58.234375 90.328125 C-50.5541383 92.99479006 -43.68313279 94.73978767 -35.484375 93.390625 C-34.494375 92.730625 -33.504375 92.070625 -32.484375 91.390625 C-35.76044333 83.32115143 -47.06958658 80.06794025 -54.49926758 76.43823242 C-59.68630812 73.87336132 -64.54150908 70.96936641 -69.34765625 67.73828125 C-71.53073188 66.24260503 -71.53073188 66.24260503 -74.484375 65.390625 Z M-354.484375 82.390625 C-354.72650373 84.37191008 -354.72650373 84.37191008 -354.609375 86.515625 C-354.568125 87.794375 -354.526875 89.073125 -354.484375 90.390625 C-352.19803203 91.78957458 -350.90405555 92.42213685 -348.1953125 92.21875 C-347.42445313 92.02796875 -346.65359375 91.8371875 -345.859375 91.640625 C-345.08335937 91.46015625 -344.30734375 91.2796875 -343.5078125 91.09375 C-341.29154 90.48834369 -341.29154 90.48834369 -339.484375 88.390625 C-339.57549438 85.85110956 -339.57549438 85.85110956 -340.484375 83.390625 C-343.44206897 81.41882902 -344.64855462 81.02132646 -348.046875 80.640625 C-349.22443359 80.49367188 -349.22443359 80.49367188 -350.42578125 80.34375 C-352.71298687 80.1586858 -352.71298687 80.1586858 -354.484375 82.390625 Z " fill="#010101" transform="translate(992.484375,604.609375)"/>
<path d="M0 0 C0.91162399 -0.00960754 1.82324799 -0.01921509 2.76249695 -0.02911377 C3.74168594 -0.03336365 4.72087494 -0.03761353 5.72973633 -0.04199219 C6.74594559 -0.04769226 7.76215485 -0.05339233 8.80915833 -0.05926514 C10.960164 -0.06870683 13.11118409 -0.07524582 15.26220703 -0.07910156 C18.53224382 -0.08877981 21.80164458 -0.11980027 25.0715332 -0.15136719 C27.16593053 -0.1579005 29.26033234 -0.16314968 31.35473633 -0.16699219 C32.32380417 -0.17933899 33.29287201 -0.19168579 34.29130554 -0.20440674 C41.40342876 -0.18139128 47.98473986 0.53842882 53.75488281 5.00317383 C58.72386537 10.99676072 62.66309398 17.29695693 66.43676758 24.09863281 C67.41548636 25.82862164 68.39422249 27.55860094 69.37399292 29.28799438 C70.38143259 31.06923834 71.38426399 32.85301669 72.38647461 34.63720703 C75.50147617 40.17251671 78.69240675 45.66409023 81.87426758 51.16113281 C83.12589392 53.33021657 84.37719535 55.49948784 85.62817383 57.66894531 C88.11357659 61.97714933 90.60068735 66.28436071 93.08911133 70.59082031 C96.20830908 75.98965223 99.32278213 81.39118718 102.43432617 86.79443359 C103.75883503 89.09307154 105.08447282 91.39101817 106.41186523 93.68798828 C111.11018055 101.8210912 115.76561035 109.9768356 120.37426758 118.16113281 C120.93758789 119.15612793 121.5009082 120.15112305 122.08129883 121.17626953 C133.87554545 142.15697163 139.66974622 163.60150236 133.87426758 187.72363281 C128.33930702 206.44539413 116.51946711 222.39815093 99.53540039 232.22509766 C87.37517921 238.78730361 74.95682331 241.55509426 61.16943359 241.83374023 C59.98470994 241.86661479 58.79998629 241.89948935 57.57936192 241.9333601 C39.60830064 242.37706203 21.62700815 242.36740872 3.65161133 242.39941406 C1.68549653 242.40347614 -0.28061815 242.4075934 -2.24673271 242.41176414 C-11.46292578 242.43067222 -20.6791114 242.44495237 -29.89532 242.45337611 C-40.46480709 242.46320554 -51.03408799 242.4897324 -61.60350233 242.52987701 C-69.83686874 242.56006221 -78.07017579 242.57484577 -86.30359644 242.57815713 C-91.19691342 242.5804972 -96.09000626 242.58932789 -100.98326302 242.6146183 C-105.56945201 242.6379583 -110.15526966 242.64210864 -114.74150276 242.63185692 C-116.41559083 242.63136353 -118.08969774 242.63762532 -119.7637291 242.65141296 C-140.09235671 242.80941397 -140.09235671 242.80941397 -147.7007761 236.41800404 C-152.87167263 231.14042571 -155.987026 224.32916148 -159.25073242 217.78613281 C-159.79729492 216.71363281 -160.34385742 215.64113281 -160.90698242 214.53613281 C-161.98171483 212.42266382 -163.04993413 210.30586806 -164.11108398 208.18554688 C-165.09843912 206.21401956 -166.09477228 204.2469552 -167.10131836 202.28515625 C-167.55023438 201.40633789 -167.99915039 200.52751953 -168.46166992 199.62207031 C-169.05407471 198.47037354 -169.05407471 198.47037354 -169.65844727 197.29541016 C-172.02122326 192.08203616 -172.58490089 186.53349583 -171.01245117 181.00488281 C-168.95217281 176.14008456 -166.51947454 173.97883558 -161.72338867 171.85253906 C-156.54496409 170.14568403 -151.54867657 170.02518101 -146.13711548 170.05433655 C-144.85792207 170.05517161 -144.85792207 170.05517161 -143.55288637 170.05602354 C-140.6964428 170.05905858 -137.84006922 170.06924138 -134.98364258 170.0793457 C-132.93517632 170.0829021 -130.8867092 170.08598802 -128.83824158 170.08863831 C-124.42718102 170.09518902 -120.01614073 170.10474838 -115.60509109 170.11653328 C-108.62974742 170.13482114 -101.65440868 170.14442383 -94.67904663 170.15245056 C-74.84387048 170.17660582 -55.00872433 170.21248088 -35.17358398 170.25708008 C-24.21868918 170.28163527 -13.26380614 170.29899302 -2.30888784 170.30863947 C4.62455612 170.31518082 11.55790314 170.33073676 18.4913137 170.35295689 C22.80623846 170.36469268 27.12113968 170.36805464 31.43607903 170.36905479 C33.43594606 170.37120106 35.43581283 170.37678859 37.43565941 170.38608551 C40.1677497 170.39829408 42.89957388 170.39811523 45.63168335 170.39491272 C46.42109105 170.40142052 47.21049876 170.40792832 48.02382791 170.41463333 C52.84075992 170.39269362 56.79953423 169.68737482 61.37426758 168.16113281 C62.17031921 161.94386882 59.4416865 157.91062468 56.43676758 152.72363281 C55.93242188 151.83111816 55.42807617 150.93860352 54.90844727 150.01904297 C51.71040276 144.38963614 48.42253633 138.8155081 45.05859375 133.28369141 C39.31535541 123.82292576 33.86653146 114.18685337 28.3503418 104.59277344 C26.42726955 101.25317577 24.49776297 97.91739557 22.56567383 94.58300781 C15.77175438 82.85214417 9.05090916 71.08569096 2.45678711 59.24121094 C-0.34736819 54.20864626 -3.17369562 49.19212893 -6.06323242 44.20800781 C-6.88464722 42.78838745 -6.88464722 42.78838745 -7.72265625 41.34008789 C-8.74590288 39.5764599 -9.77400172 37.81563353 -10.80810547 36.05834961 C-15.4398242 28.06800516 -19.01085993 20.6107805 -17.62573242 11.16113281 C-16.29232015 7.3329492 -14.40286574 4.7439828 -11.12573242 2.28613281 C-7.35676116 0.59009575 -4.12162176 0.03522554 0 0 Z " fill="#E2E2E2" transform="translate(538.625732421875,332.8388671875)"/>
<path d="M0 0 C1.02738016 -0.00155999 2.05476031 -0.00311998 3.1132732 -0.00472724 C6.54436668 -0.0087046 9.97541562 -0.00555991 13.4065094 -0.00241089 C15.87315395 -0.00376665 18.3397983 -0.00554757 20.80644226 -0.00772095 C26.81225051 -0.01180818 32.81804144 -0.01120727 38.82384901 -0.00830831 C43.7260532 -0.00604149 48.62825389 -0.0057473 53.53045845 -0.00683212 C54.58097787 -0.00706197 54.58097787 -0.00706197 55.6527199 -0.00729647 C57.07630165 -0.00761625 58.4998834 -0.00794047 59.92346514 -0.00826906 C73.28013407 -0.01112127 86.63679614 -0.00784447 99.99346394 -0.00246869 C111.36275732 0.00196685 122.73204044 0.00125004 134.10133362 -0.00338745 C147.36202715 -0.00879408 160.6227146 -0.01081289 173.88340908 -0.00777519 C175.31157593 -0.00745673 176.73974277 -0.00714236 178.16790962 -0.00683212 C178.87015686 -0.00667785 179.5724041 -0.00652357 180.29593156 -0.00636462 C185.1544165 -0.00551507 190.01289743 -0.00695037 194.87138176 -0.00931168 C219.9214975 -0.02031192 244.96942239 -0.0273137 270.01441956 0.53372192 C271.25475805 0.55883681 271.25475805 0.55883681 272.52015388 0.58445907 C285.4593586 0.85748443 297.98522104 1.89790996 310.55714417 5.12698364 C311.97301819 5.48687378 311.97301819 5.48687378 313.41749573 5.85403442 C333.20013931 11.04608093 351.08027398 18.97460763 367.55714417 31.12698364 C368.4839801 31.81018677 369.41081604 32.49338989 370.36573792 33.19729614 C390.11231867 48.63073073 405.16943788 67.91499708 416.55714417 90.12698364 C416.90615784 90.8005188 417.25517151 91.47405396 417.61476135 92.16799927 C437.99963085 131.96076755 440.9676963 177.94122586 427.48439026 220.42922974 C419.45395744 243.79317988 406.49342403 264.27522919 389.55714417 282.12698364 C389.08969788 282.62697876 388.62225159 283.12697388 388.14064026 283.64212036 C359.36734267 314.25854733 317.74712899 332.69851379 275.76026917 334.36526489 C263.5934938 334.63482818 251.23738568 334.3917336 241.51441956 326.01052856 C234.56945907 319.3271844 229.76352108 311.43365525 225.36964417 302.93948364 C224.24128916 300.80829303 223.11103166 298.67810877 221.97901917 296.54885864 C221.41118713 295.47700317 220.8433551 294.40514771 220.25831604 293.30081177 C217.62378332 288.38563878 214.87809415 283.53589782 212.11964417 278.68948364 C211.038761 276.78722739 209.95803326 274.88488281 208.87745667 272.98245239 C208.33508362 272.02774048 207.79271057 271.07302856 207.23390198 270.08938599 C204.29970372 264.90540787 201.39936923 259.7025135 198.49464417 254.50198364 C192.25151716 243.33673664 185.92082209 232.22383552 179.55714417 221.12698364 C176.93036496 216.54466708 174.30520887 211.96142714 171.68214417 207.37698364 C171.34267761 206.78384369 171.00321106 206.19070374 170.65345764 205.57958984 C165.86312431 197.20616789 161.12796587 188.80388648 156.43214417 180.37698364 C151.91943049 172.27972569 147.3150646 164.24460922 142.61964417 156.25198364 C137.76852074 147.98092172 132.99265764 139.67135872 128.31394958 131.30172729 C127.33060499 129.54392171 126.34249111 127.78878684 125.35426331 126.03372192 C124.75605774 124.95848267 124.15785217 123.88324341 123.54151917 122.77542114 C122.74826233 121.35495483 122.74826233 121.35495483 121.9389801 119.90579224 C118.67519294 113.34246618 117.68203658 107.38713543 118.55714417 100.12698364 C120.73118015 95.61787197 123.04807432 93.26879182 127.55714417 91.12698364 C130.50712147 90.23496198 133.18284363 89.98719626 136.25880432 89.94998169 C137.18722137 89.93714645 138.11563843 89.92431122 139.07218933 89.91108704 C140.07011505 89.9037001 141.06804077 89.89631317 142.09620667 89.88870239 C143.1322403 89.88063065 144.16827393 89.8725589 145.23570251 89.86424255 C147.4295841 89.85041804 149.62348705 89.83968859 151.81739807 89.83181763 C154.04988452 89.82031664 156.28234387 89.79989491 158.5146637 89.77029419 C161.75036703 89.72739752 164.98525343 89.71141592 168.22120667 89.70120239 C169.206987 89.68369431 170.19276733 89.66618622 171.2084198 89.64814758 C178.8446212 89.67172989 185.89243961 90.98406826 191.83424377 96.0798645 C192.30869934 96.76443726 192.78315491 97.44901001 193.27198792 98.15432739 C193.82354553 98.94436157 194.37510315 99.73439575 194.94337463 100.54837036 C197.83899226 105.17522563 200.5195878 109.89100563 203.11964417 114.68948364 C204.34822721 116.92099163 205.57874632 119.15143462 206.81105042 121.38088989 C207.43253967 122.50640259 208.05402893 123.63191528 208.6943512 124.79153442 C211.57385242 129.94746439 214.56210917 135.03757461 217.55714417 140.12698364 C222.9726622 149.3507261 228.2434652 158.64715362 233.4521637 167.98904419 C237.07873597 174.49202085 240.73256999 180.97775279 244.43214417 187.43948364 C245.14999084 188.69329834 245.14999084 188.69329834 245.88233948 189.97244263 C247.43990626 192.69102562 248.99848554 195.4090265 250.55714417 198.12698364 C253.18392342 202.70930031 255.80892111 207.29263071 258.43214417 211.87698364 C258.76828735 212.46414154 259.10443054 213.05129944 259.45075989 213.65625 C263.18072639 220.17389806 266.89055403 226.70187778 270.54933167 233.25979614 C271.18242249 234.39449341 271.81551331 235.52919067 272.4677887 236.69827271 C273.66135796 238.84207139 274.85258048 240.98717895 276.04103088 243.13381958 C279.3110928 249.02771435 279.3110928 249.02771435 282.94776917 254.69729614 C284.55714417 257.12698364 284.55714417 257.12698364 284.55714417 259.12698364 C291.55763874 258.75897128 297.38721661 257.48805183 303.80714417 254.68948364 C304.62561829 254.33748901 305.44409241 253.98549438 306.28736877 253.62283325 C328.51302437 243.65915931 347.59592117 224.51771245 356.31886292 201.68948364 C365.56751072 175.95055414 364.33758239 149.75233255 353.07667542 124.85354614 C349.88921548 118.75208129 346.013251 113.35960018 341.55714417 108.12698364 C340.7927301 107.22850708 340.02831604 106.33003052 339.24073792 105.40432739 C323.16119772 87.11039043 301.91707705 75.43769728 277.55714417 73.12698364 C276.71357857 73.04589896 275.87001297 72.96481429 275.00088477 72.88127249 C268.01831763 72.24943057 261.11628727 71.98231505 254.10749817 71.99327087 C252.47737325 71.98987254 252.47737325 71.98987254 250.81431651 71.98640555 C247.20807348 71.98012434 243.60186859 71.98089108 239.99562073 71.98171997 C237.39602612 71.97872496 234.79643196 71.97532165 232.19683838 71.97154236 C225.89116859 71.96327676 219.58550816 71.96048946 213.27983341 71.95992998 C208.15385213 71.95945326 203.02787392 71.95739078 197.90189362 71.95422935 C183.34887012 71.94543716 168.79585397 71.94080821 154.2428278 71.94155983 C153.068827 71.94161976 153.068827 71.94161976 151.87110901 71.94168091 C151.0874806 71.94172179 150.30385218 71.94176267 149.49647745 71.94180479 C136.77974138 71.94221177 124.06303484 71.93262531 111.34630731 71.91854254 C98.26938317 71.90417564 85.19247345 71.8972724 72.11554122 71.89813632 C64.78138843 71.89846798 57.44726669 71.8957339 50.11312103 71.88495827 C43.22168208 71.87489712 36.33030975 71.87519167 29.43886757 71.8824749 C26.91050178 71.88352163 24.38213191 71.88115263 21.85377312 71.87511444 C18.40205651 71.8674048 14.95056725 71.87203258 11.49885559 71.87974548 C10.49924246 71.87460192 9.49962933 71.86945836 8.46972489 71.86415893 C2.82092416 71.89204311 -2.02173522 72.51747787 -7.44285583 74.12698364 C-6.94790324 79.18671853 -5.90145422 82.71293586 -3.33738708 87.09182739 C-2.69092224 88.20880005 -2.0444574 89.32577271 -1.37840271 90.47659302 C-0.67091623 91.6726724 0.03677122 92.86863294 0.74464417 94.06448364 C1.47550128 95.3184357 2.20530413 96.57300277 2.93409729 97.82815552 C4.78205562 101.00507177 6.64263494 104.17437725 8.50727844 107.34152222 C10.06844305 109.99652764 11.61951242 112.65738627 13.17042542 115.31838989 C14.86740574 118.22975656 16.56513969 121.14064704 18.2671051 124.04910278 C23.41233817 132.84721917 28.46886325 141.69517179 33.5171051 150.54910278 C38.09002505 158.56804209 42.68915563 166.57137702 47.30714417 174.56448364 C49.1371687 177.73473696 50.96687884 180.90517142 52.79640198 184.07571411 C53.9620781 186.09576683 55.12808898 188.11562642 56.29444885 190.13528442 C57.92667867 192.96413743 59.55496084 195.79522557 61.18214417 198.62698364 C61.65490784 199.44481323 62.12767151 200.26264282 62.61476135 201.10525513 C73.4874479 220.06592106 73.4874479 220.06592106 72.55714417 230.12698364 C70.78910751 235.33286936 68.33292316 237.49543195 63.55714417 240.12698364 C59.38454326 241.39169775 55.16671866 241.41040265 50.83839417 241.54885864 C49.98467224 241.57675476 49.13095032 241.60465088 48.25135803 241.63339233 C46.4425601 241.68973437 44.63367574 241.74335828 42.82472229 241.79446411 C40.09416307 241.87587987 37.36503727 241.97974605 34.63526917 242.08401489 C21.46608824 242.50842616 8.93654629 242.35488643 -1.44285583 233.12698364 C-7.32063068 226.69940943 -11.59600443 219.70899183 -15.56785583 212.00198364 C-20.01794504 203.57888097 -24.60685234 195.27237949 -29.44285583 187.06448364 C-34.01695116 179.29193226 -38.52557262 171.48978808 -42.94285583 163.62698364 C-47.42969612 155.64398425 -51.99991511 147.71502026 -56.63035583 139.81448364 C-86.54982072 88.61401151 -86.54982072 88.61401151 -79.40769958 56.78713989 C-76.38367587 45.31543859 -71.57755924 36.43795706 -64.44285583 27.12698364 C-63.85375427 26.35225708 -63.26465271 25.57753052 -62.65769958 24.77932739 C-50.73095948 10.14580939 -31.06598786 2.5408364 -12.73968875 0.33251977 C-8.497106 -0.0471352 -4.25660141 -0.0100087 0 0 Z M-59.44285583 26.12698364 C-71.35618212 40.85263613 -76.81862154 57.26056682 -74.95848083 76.20120239 C-73.13632318 90.07444819 -66.35832351 101.22599509 -59.44285583 113.12698364 C-58.9083783 114.04914673 -58.37390076 114.97130981 -57.82322693 115.92141724 C-54.95235972 120.86705738 -52.06592872 125.80340766 -49.17332458 130.73635864 C-43.5435257 140.3551105 -38.03895603 150.04580316 -32.52130127 159.72912598 C-30.0944571 163.9873321 -27.66076187 168.24157322 -25.22410583 172.49417114 C-24.18110091 174.31542637 -23.13819008 176.13673545 -22.09532166 177.95806885 C-21.41355999 179.14839782 -20.73151513 180.33856465 -20.04917908 181.52856445 C-16.79424852 187.20652 -13.5534313 192.88865099 -10.42723083 198.63870239 C-9.97912048 199.46096313 -9.53101013 200.28322388 -9.06932068 201.13040161 C-8.27539342 202.59527949 -7.48839959 204.06395363 -6.71092224 205.53762817 C-2.97125871 212.44520991 0.98858806 218.25391291 8.55714417 221.12698364 C12.11258687 221.52046441 15.63221419 221.47668745 19.20558167 221.41995239 C20.72437424 221.41358513 20.72437424 221.41358513 22.27384949 221.40708923 C25.49355665 221.39035666 28.71262761 221.3527139 31.93214417 221.31448364 C34.12093718 221.29942982 36.30974005 221.28574264 38.49855042 221.27346802 C43.85163042 221.24047096 49.20434183 221.1903256 54.55714417 221.12698364 C50.68326545 213.15104244 46.52086392 205.43704919 41.99464417 197.81448364 C37.27225315 189.79343733 32.61510298 181.74261259 28.05714417 173.62698364 C23.68786066 165.85686607 19.25011 158.13143305 14.74464417 150.43948364 C8.96576851 140.5731893 3.2701207 130.66119121 -2.38890076 120.7258606 C-5.76404657 114.80248559 -9.15352172 108.88827552 -12.57957458 102.99417114 C-12.91663925 102.41345856 -13.25370392 101.83274597 -13.60098267 101.23443604 C-15.1951139 98.48801061 -16.7922343 95.74343942 -18.39573669 93.00247192 C-31.23417703 70.89452296 -31.23417703 70.89452296 -29.44285583 63.12698364 C-27.0538989 58.25718681 -24.10955541 55.80785361 -19.44285583 53.12698364 C-16.52266224 52.15358578 -14.66260776 51.99993792 -11.62339592 51.99555588 C-10.12533513 51.98979416 -10.12533513 51.98979416 -8.59701049 51.98391604 C-7.49675194 51.98478253 -6.39649339 51.98564901 -5.26289368 51.98654175 C-4.09626194 51.98357063 -2.92963021 51.9805995 -1.72764599 51.97753835 C1.51641725 51.97035055 4.76044826 51.96767843 8.00451827 51.96694088 C11.50176192 51.96509114 14.99899407 51.95754377 18.49623108 51.95080566 C26.14984176 51.93721322 33.80344722 51.93119499 41.45706797 51.92679501 C46.24079277 51.92403171 51.02451555 51.91979396 55.80823898 51.91529083 C69.06360561 51.90309241 82.31897061 51.8927972 95.57434273 51.88941574 C96.42313285 51.88919617 97.27192297 51.88897661 98.146434 51.88875039 C98.99723191 51.88853211 99.84802983 51.88831383 100.72460949 51.88808894 C102.44857287 51.88764548 104.17253625 51.88719892 105.89649963 51.88674927 C107.17921154 51.88641712 107.17921154 51.88641712 108.48783682 51.88607827 C122.31455257 51.8821384 136.14121534 51.86471182 149.96791066 51.84138975 C164.17799576 51.81761566 178.38805438 51.80521099 192.59815967 51.80404782 C200.57047015 51.80313397 208.54271179 51.79745588 216.5150032 51.77922821 C223.31104746 51.76374466 230.10700165 51.75875466 236.90306021 51.76696631 C240.36441045 51.7708451 243.82557979 51.77008128 247.2869072 51.75590897 C265.23689278 51.69490241 282.28450427 51.95992847 299.18214417 58.75198364 C300.06112366 59.09753296 300.94010315 59.44308228 301.84571838 59.79910278 C314.50578254 64.94592974 325.36349279 72.02065508 335.55714417 81.12698364 C336.16558167 81.65292114 336.77401917 82.17885864 337.40089417 82.72073364 C355.31689861 99.28458681 367.33505942 125.57525011 368.7124176 149.86526489 C369.99641802 183.69496185 361.07471523 210.06877526 338.47511292 235.46682739 C323.82643941 250.93082595 299.42970411 265.62823702 277.61964417 266.50198364 C276.78562073 266.55096802 275.95159729 266.59995239 275.09230042 266.65042114 C271.42057217 265.89231392 270.04529177 263.87852053 267.55714417 261.12698364 C265.80299377 258.41409302 265.80299377 258.41409302 264.20948792 255.47073364 C263.31145447 253.8302002 263.31145447 253.8302002 262.39527893 252.15652466 C262.0856723 251.58153229 261.77606567 251.00653992 261.45707703 250.41412354 C260.14080204 247.96993482 258.80530551 245.53642461 257.47113037 243.10197449 C256.7938818 241.86564859 256.11762264 240.62878018 255.44235229 239.39137268 C252.5646063 234.12048174 249.61184686 228.89602988 246.61964417 223.68948364 C246.1442218 222.86069702 245.66879944 222.0319104 245.17897034 221.17800903 C244.17999459 219.43710682 243.18055152 217.6964727 242.18067932 215.95608521 C239.38856774 211.09067332 236.60777214 206.21879545 233.82566833 201.34765625 C232.11680605 198.35588 230.40725077 195.36449979 228.69776917 192.37307739 C228.00570859 191.16197901 227.3136513 189.95087875 226.62159729 188.73977661 C226.1088324 187.84243805 226.1088324 187.84243805 225.58570862 186.92697144 C222.53956604 181.59622193 222.53956604 181.59622193 221.5390625 179.84533691 C220.87407868 178.68161778 220.20909048 177.51790114 219.5440979 176.35418701 C217.8841998 173.44940982 216.224378 170.54458907 214.56471252 167.63967896 C211.53789346 162.34201638 208.51047481 157.04470043 205.48031616 151.74894714 C198.75338259 139.9923552 192.0352515 128.23100168 185.36964417 116.43948364 C184.85313293 115.52578003 184.3366217 114.61207642 183.80445862 113.67068481 C183.31679016 112.80677124 182.8291217 111.94285767 182.32667542 111.05276489 C181.86341858 110.23372681 181.40016174 109.41468872 180.92286682 108.5708313 C179.98683037 106.89587155 179.06530834 105.21274158 178.15626526 103.52297974 C177.4942511 102.2963562 177.4942511 102.2963562 176.81886292 101.04495239 C176.43045227 100.31429565 176.04204163 99.58363892 175.64186096 98.83084106 C174.65810368 96.96315642 174.65810368 96.96315642 172.55714417 96.12698364 C170.95359964 96.03681987 169.34632194 96.00942289 167.74024963 96.01345825 C166.7393631 96.01353378 165.73847656 96.01360931 164.70726013 96.01368713 C163.62389374 96.01884842 162.54052734 96.0240097 161.42433167 96.02932739 C160.31735931 96.03074234 159.21038696 96.03215729 158.06987 96.03361511 C154.52393423 96.03922592 150.97806094 96.05178028 147.43214417 96.06448364 C145.03240549 96.06949725 142.63266583 96.0740604 140.23292542 96.07815552 C134.34097691 96.08919886 128.449065 96.10594754 122.55714417 96.12698364 C123.78388905 100.08527087 125.21224113 103.59312334 127.25245667 107.19729614 C127.79515198 108.16151489 128.33784729 109.12573364 128.89698792 110.11917114 C129.48608948 111.15299927 130.07519104 112.18682739 130.68214417 113.25198364 C131.60833557 114.89167114 131.60833557 114.89167114 132.55323792 116.56448364 C134.54748285 120.08938151 136.55007566 123.60937886 138.55714417 127.12698364 C138.88790955 127.70669922 139.21867493 128.28641479 139.5594635 128.88369751 C142.56467888 134.14880541 145.57382153 139.41166127 148.58839417 144.67141724 C153.00329238 152.37881571 157.35945847 160.11744341 161.68214417 167.87698364 C166.19473829 175.97428924 170.79873367 184.00965846 175.49464417 192.00198364 C181.80611205 202.74891991 187.87148419 213.62224524 193.90089417 224.52932739 C197.27151822 230.62394789 200.68533261 236.69306774 204.11964417 242.75198364 C208.02640173 249.64580412 211.91920978 256.54697364 215.78712463 263.462677 C216.96062635 265.56057435 218.13541696 267.65775128 219.3115387 269.75418091 C222.25642969 275.00410868 225.18484908 280.26206797 228.08448792 285.53713989 C229.22113401 287.58796141 230.35785004 289.63874418 231.49464417 291.68948364 C232.00189026 292.62276489 232.50913635 293.55604614 233.03175354 294.51760864 C237.26212212 302.11342116 242.00083089 310.09662269 250.55714417 313.12698364 C260.89178736 315.40060514 271.62075554 314.12079196 281.93214417 312.37698364 C283.57122742 312.10628052 283.57122742 312.10628052 285.24342346 311.83010864 C293.23473533 310.46230666 300.85151847 308.66841692 308.55714417 306.12698364 C309.49300354 305.86659302 310.42886292 305.60620239 311.39308167 305.33792114 C339.29255764 297.15917065 366.28472482 276.21038422 383.55714417 253.12698364 C384.27128479 252.18983521 384.98542542 251.25268677 385.72120667 250.28713989 C396.99100039 234.81606264 405.2399498 217.48095832 410.55714417 199.12698364 C410.78015198 198.38851196 411.00315979 197.65004028 411.23292542 196.88919067 C414.6655856 185.05125137 414.94202199 173.1729613 414.99464417 160.93948364 C415.00417618 159.80724365 415.00417618 159.80724365 415.01390076 158.65213013 C415.23593556 116.21061014 395.48483366 76.66770926 366.22120667 46.64651489 C336.93535553 17.74981812 297.55667883 6.96246211 257.41358948 6.44998169 C255.5654004 6.41720287 253.71722175 6.38383207 251.86905289 6.34993267 C227.85409047 5.94284189 203.83233701 5.96216135 179.8146925 5.95972657 C175.80064189 5.9590053 171.7865945 5.9569119 167.77254486 5.95422935 C154.43420903 5.94550071 141.09588105 5.94080012 127.75754234 5.94155983 C126.69324026 5.94161976 126.69324026 5.94161976 125.60743713 5.94168091 C124.89700651 5.94172179 124.18657588 5.94176267 123.45461705 5.94180479 C111.86328874 5.94221395 100.27199247 5.93255659 88.68067345 5.91854254 C76.67737572 5.90414778 64.67409366 5.89727336 52.6707871 5.89813632 C45.97123648 5.89846615 39.27172503 5.89560972 32.5721817 5.88495827 C26.29753153 5.87524591 20.02295333 5.87521951 13.74830055 5.8824749 C11.45828203 5.8835154 9.16825892 5.8811899 6.87824821 5.87511444 C-17.38105095 5.81494484 -41.80448407 6.98213173 -59.44285583 26.12698364 Z " fill="#010000" transform="translate(493.44285583496094,240.87301635742188)"/>
<path d="M0 0 C6.40996027 1.34762781 10.37489318 2.02065101 16.5859375 -0.24609375 C25.55294192 -1.09328312 32.3152505 -0.7575475 39.3984375 5.06640625 C44.512672 11.34960863 43.81124865 18.01822331 43.5859375 25.75390625 C47.58986983 22.53624462 51.29566662 19.13274598 54.73046875 15.3125 C55.28387939 14.69777832 55.83729004 14.08305664 56.4074707 13.44970703 C57.504031 12.2193265 58.59034306 10.97971402 59.66479492 9.72998047 C64.30246605 4.52884055 69.64155201 1.01563474 76.5859375 -0.24609375 C79.25609507 -0.36456 81.89958417 -0.433916 84.5703125 -0.44921875 C85.34473694 -0.45491882 86.11916138 -0.4606189 86.91705322 -0.4664917 C88.55438886 -0.47592226 90.19174332 -0.48246795 91.82910156 -0.48632812 C94.31349519 -0.49600632 96.79705128 -0.52703585 99.28125 -0.55859375 C100.87759929 -0.56512746 102.47395446 -0.57037648 104.0703125 -0.57421875 C104.80393005 -0.58656555 105.53754761 -0.59891235 106.293396 -0.6116333 C112.67445054 -0.58455566 118.08878657 0.79185909 123.2109375 4.81640625 C128.60957568 11.49366926 132.42134578 19.21016673 136.4609375 26.75390625 C136.86666992 27.50833008 137.27240234 28.26275391 137.69042969 29.04003906 C140.5859375 34.51540705 140.5859375 34.51540705 140.5859375 36.75390625 C141.5759375 36.75390625 142.5659375 36.75390625 143.5859375 36.75390625 C143.85615723 35.87162354 144.12637695 34.98934082 144.40478516 34.08032227 C145.51408771 30.95625296 146.79888174 28.37555324 148.484375 25.53125 C149.04640625 24.58056641 149.6084375 23.62988281 150.1875 22.65039062 C150.77273438 21.67392578 151.35796875 20.69746094 151.9609375 19.69140625 C152.5384375 18.71107422 153.1159375 17.73074219 153.7109375 16.72070312 C161.63048453 3.40393056 161.63048453 3.40393056 169.6640625 0.48046875 C176.06444052 -1.1110691 183.30693208 -1.40561206 189.5859375 0.87890625 C193.72842643 3.46796183 196.66744107 5.99841695 198.25390625 10.7578125 C200.24371598 21.77071981 192.86638745 32.36182864 187.6484375 41.50390625 C186.98590079 42.67885639 186.32412919 43.85423826 185.66308594 45.0300293 C183.9773698 48.02386054 182.28215102 51.01217843 180.58355713 53.99871826 C178.3949196 57.84935451 176.21677119 61.70594001 174.03686523 65.56152344 C172.93084346 67.51543703 171.82241181 69.46798914 170.71118164 71.41894531 C165.90762927 79.8702267 162.51062852 86.05168246 162.375 95.8984375 C162.34692498 97.31186041 162.31826048 98.72527171 162.2890625 100.13867188 C162.24791067 102.35033763 162.21099267 104.56178814 162.18457031 106.77368164 C162.15675677 108.9198799 162.11088868 111.06511707 162.0625 113.2109375 C162.04268066 114.4894458 162.02286133 115.7679541 162.00244141 117.08520508 C161.2523187 123.69252855 158.82988323 128.48557833 153.5859375 132.75390625 C147.6783258 135.77975614 139.829536 135.73792909 133.4296875 134.25390625 C129.2658786 132.64682211 126.37447966 130.17982947 123.5859375 126.75390625 C121.76359034 122.30613695 121.32609897 118.48910284 121.27734375 113.703125 C121.25217644 112.35090728 121.22677853 110.99869384 121.20117188 109.64648438 C121.17255212 107.5469685 121.14849246 105.44752686 121.12963867 103.34790039 C120.97944598 89.31066017 117.77130403 80.55131101 111.0234375 68.31640625 C110.4051709 67.18219238 109.7869043 66.04797852 109.14990234 64.87939453 C107.30401541 61.4993259 105.4472576 58.12549693 103.5859375 54.75390625 C103.04759277 53.77760254 102.50924805 52.80129883 101.95458984 51.79541016 C99.18132299 46.77238761 96.39217533 41.75857924 93.5859375 36.75390625 C90.11398297 38.24420089 87.86927197 40.22542814 85.21484375 42.89453125 C84.39306641 43.71824219 83.57128906 44.54195312 82.72460938 45.390625 C81.87447266 46.25300781 81.02433594 47.11539063 80.1484375 48.00390625 C79.30216797 48.85082031 78.45589844 49.69773437 77.58398438 50.5703125 C75.22768772 52.94321579 72.90046214 55.34031636 70.5859375 57.75390625 C70.00956543 58.33849609 69.43319336 58.92308594 68.83935547 59.52539062 C67.25038256 61.16397169 67.25038256 61.16397169 65.5859375 63.75390625 C65.87631375 67.78565332 67.05670978 69.70694394 69.9375 72.4609375 C70.62457031 73.13060547 71.31164062 73.80027344 72.01953125 74.49023438 C72.74269531 75.17537109 73.46585938 75.86050781 74.2109375 76.56640625 C79.03125724 81.20474339 83.65192322 85.87817719 88.00927734 90.95678711 C90.0784012 93.31522946 92.31293801 95.46806134 94.5859375 97.62890625 C100.91634263 103.87232871 107.68622498 110.84661014 107.8359375 120.06640625 C107.78422995 124.46154827 107.64738261 127.37575992 104.5859375 130.75390625 C96.30989385 136.69568118 84.41651888 135.68450317 74.71875 134.36328125 C65.23761006 131.73150575 58.66304362 123.00183098 52.5859375 115.75390625 C51.29854722 114.2502344 50.00696842 112.75013706 48.7109375 111.25390625 C48.13601563 110.58359375 47.56109375 109.91328125 46.96875 109.22265625 C46.51242187 108.73796875 46.05609375 108.25328125 45.5859375 107.75390625 C45.2559375 107.75390625 44.9259375 107.75390625 44.5859375 107.75390625 C44.54855469 108.61113281 44.51117188 109.46835937 44.47265625 110.3515625 C44.00556945 118.47520932 43.55167928 124.146923 38.2734375 130.56640625 C31.93990418 135.72160779 24.38109603 135.39540309 16.5859375 134.75390625 C13.00863508 133.85029699 10.31671963 132.39610873 7.5234375 129.94140625 C6.8840625 129.54953125 6.2446875 129.15765625 5.5859375 128.75390625 C3.56045049 129.33858291 1.56394138 130.02456059 -0.4140625 130.75390625 C-2.9131271 131.61095725 -5.41306376 132.46505617 -7.9140625 133.31640625 C-8.55214844 133.53748047 -9.19023437 133.75855469 -9.84765625 133.98632812 C-27.72738219 140.03764641 -49.81627919 138.20002377 -67.1640625 131.00390625 C-71.66595805 127.88720933 -74.31102406 124.09815017 -76.02734375 118.89453125 C-77.45922142 110.96858212 -77.18670727 102.90892219 -73.4140625 95.75390625 C-68.8469345 91.30095645 -64.98054973 90.46156092 -58.82177734 90.53125 C-54.9872244 90.88585477 -51.7500318 92.27414098 -48.2265625 93.75390625 C-40.44553804 96.77807851 -33.81409698 97.72835959 -25.4140625 96.75390625 C-24.7540625 96.42390625 -24.0940625 96.09390625 -23.4140625 95.75390625 C-24.44464287 92.90400085 -25.24353941 91.8602037 -27.85327148 90.23339844 C-29.36642944 89.52425293 -29.36642944 89.52425293 -30.91015625 88.80078125 C-32.58561523 87.99447266 -32.58561523 87.99447266 -34.29492188 87.171875 C-35.46861328 86.62144531 -36.64230469 86.07101562 -37.8515625 85.50390625 C-51.38918259 79.14497887 -67.2646503 71.1380298 -73.359375 56.48046875 C-77.44285192 44.54720126 -77.44209151 33.71368873 -72.1953125 22.04296875 C-65.92614961 10.72364687 -56.61278064 4.71683568 -44.515625 0.8203125 C-29.62175954 -3.44382158 -15.01848404 -3.20497546 0 0 Z M-31.4140625 38.75390625 C-31.0575311 41.31028358 -30.8278404 42.44000164 -28.73095703 44.03076172 C-28.01020996 44.39057129 -27.28946289 44.75038086 -26.546875 45.12109375 C-25.34901367 45.73343872 -25.34901367 45.73343872 -24.12695312 46.3581543 C-22.84594727 46.98717651 -22.84594727 46.98717651 -21.5390625 47.62890625 C-19.80161609 48.50688847 -18.06463457 49.38579131 -16.328125 50.265625 C-15.48411133 50.6889209 -14.64009766 51.1122168 -13.77050781 51.54833984 C-9.9138132 53.52143951 -6.1809294 55.69772331 -2.4453125 57.890625 C-0.27797654 59.07637914 -0.27797654 59.07637914 2.5859375 57.75390625 C2.5859375 52.80390625 2.5859375 47.85390625 2.5859375 42.75390625 C-8.64013568 38.68929355 -19.72722252 35.15795549 -31.4140625 38.75390625 Z " fill="#010101" transform="translate(366.4140625,600.24609375)"/>
<path d="M0 0 C2.64462847 1.95598342 4.58926674 4.3112527 6.55859375 6.9296875 C6.96335937 7.38859375 7.368125 7.8475 7.78515625 8.3203125 C8.44515625 8.3203125 9.10515625 8.3203125 9.78515625 8.3203125 C10.93262945 6.62059327 10.93262945 6.62059327 12.03515625 4.5078125 C14.38699545 0.58114292 16.39162529 -1.090538 20.78515625 -2.6796875 C21.40390625 -2.9065625 22.02265625 -3.1334375 22.66015625 -3.3671875 C29.58291377 -4.38524008 35.44132656 -3.63349425 41.78515625 -0.6796875 C44.34765625 1.3828125 44.34765625 1.3828125 45.78515625 3.3203125 C45.78515625 3.9803125 45.78515625 4.6403125 45.78515625 5.3203125 C49.33342214 3.25610564 49.33342214 3.25610564 52.56738281 0.74633789 C57.16140566 -2.20761273 63.23874033 -1.23409725 68.53515625 -1.2421875 C70.41074219 -1.29729492 70.41074219 -1.29729492 72.32421875 -1.35351562 C79.53831298 -1.38783214 84.07389947 -0.88197066 89.53613281 4.02758789 C89.94831055 4.45418701 90.36048828 4.88078613 90.78515625 5.3203125 C91.32140625 4.5571875 91.85765625 3.7940625 92.41015625 3.0078125 C96.84994794 -2.01616231 102.00987022 -3.49153251 108.47265625 -3.9296875 C114.53067051 -3.81666485 120.52587066 -2.47268273 124.84765625 2.0078125 C127.32777909 6.24802252 127.20119007 8.4943202 126.78515625 13.3203125 C127.44515625 13.3203125 128.10515625 13.3203125 128.78515625 13.3203125 C129.09259766 12.38058594 129.09259766 12.38058594 129.40625 11.421875 C129.81037109 10.19597656 129.81037109 10.19597656 130.22265625 8.9453125 C130.48949219 8.13320313 130.75632812 7.32109375 131.03125 6.484375 C131.78515625 4.3203125 131.78515625 4.3203125 132.78515625 2.3203125 C137.55069491 0.11189215 141.80555595 -0.27110615 146.78515625 1.3203125 C151.04118642 4.65111872 153.25674093 7.95827002 154.09765625 13.30859375 C154.47985669 15.48634002 154.85063871 17.31218643 155.78515625 19.3203125 C158.09413928 20.9382078 160.03518615 21.50550655 162.78515625 22.3203125 C162.85992188 21.63066406 162.9346875 20.94101562 163.01171875 20.23046875 C164.14475471 12.13259406 166.44210867 6.12828235 172.6875 0.65234375 C179.19215185 -3.67197787 186.2243254 -3.61808849 193.78515625 -2.6796875 C200.63066656 -0.90777888 204.57199969 3.89587343 208.78515625 9.3203125 C209.14867187 8.70542969 209.5121875 8.09054687 209.88671875 7.45703125 C215.12993784 -0.97245175 215.12993784 -0.97245175 220.78515625 -2.6796875 C228.00308426 -4.09629019 234.14965501 -4.06857897 240.78515625 -0.6796875 C244.14859049 1.60185432 246.92864803 4.44709955 249.78515625 7.3203125 C250.48640625 6.2271875 251.18765625 5.1340625 251.91015625 4.0078125 C254.83870912 -0.09879846 257.96959349 -1.64731449 262.66015625 -3.3671875 C269.47745352 -4.36973122 275.59863144 -3.81999572 281.78515625 -0.6796875 C284.17661203 1.2056695 285.14747576 2.62606395 286.78515625 5.3203125 C287.09765625 8.6953125 287.09765625 8.6953125 286.78515625 11.3203125 C287.44515625 11.3203125 288.10515625 11.3203125 288.78515625 11.3203125 C288.86765625 10.6190625 288.95015625 9.9178125 289.03515625 9.1953125 C290.26462947 4.48233184 292.36351933 1.32586056 296.34765625 -1.4921875 C303.60977703 -4.00092013 310.55949772 -4.54651762 317.78125 -1.69140625 C323.27505745 1.08227042 326.4621582 4.56501958 328.78515625 10.3203125 C329.344571 13.5857251 329.52184721 16.82574453 329.66015625 20.1328125 C329.71945312 20.98423828 329.77875 21.83566406 329.83984375 22.71289062 C330.20390701 30.18187585 329.08655838 36.50109489 324.28515625 42.3828125 C319.91857875 45.5202793 314.89505829 44.72015895 309.78515625 44.3203125 C308.81320312 44.27519531 307.84125 44.23007812 306.83984375 44.18359375 C301.59134977 43.8618196 297.14298344 43.50896654 292.78515625 40.3203125 C290.76134959 37.58595303 288.78515625 34.82400003 288.78515625 31.3203125 C288.12515625 31.3203125 287.46515625 31.3203125 286.78515625 31.3203125 C286.88828125 32.3515625 286.99140625 33.3828125 287.09765625 34.4453125 C286.7834923 38.34094546 286.15518943 40.18890739 283.46484375 43.03125 C278.05282886 47.18465678 271.37619471 47.94803045 264.78515625 47.3203125 C259.20110511 45.98138574 255.46190017 43.86217264 251.78515625 39.3203125 C249.75821338 35.46912105 249.29064428 31.61696078 248.78515625 27.3203125 C248.12515625 27.3203125 247.46515625 27.3203125 246.78515625 27.3203125 C245.65508178 28.48463165 244.52666877 29.65060503 243.40625 30.82421875 C240.81931573 33.21167857 237.87324641 35.00689984 234.9140625 36.8984375 C232.62352861 38.35396541 232.62352861 38.35396541 230.22265625 40.6328125 C226.84524269 42.97102189 223.86616068 43.51273707 219.78515625 43.3203125 C214.56375195 41.61331494 212.49531516 39.01097216 209.78515625 34.3203125 C209.12515625 35.0215625 208.46515625 35.7228125 207.78515625 36.4453125 C201.0815252 43.01786697 195.44545255 46.87869895 185.78515625 47.3203125 C179.44569673 46.99311459 175.31582441 44.7031176 170.51171875 40.66015625 C168.71432654 39.11237753 168.71432654 39.11237753 165.78515625 38.3203125 C164.82609375 39.7125 164.82609375 39.7125 163.84765625 41.1328125 C160.10433117 45.60576874 155.34004638 46.83919955 149.70703125 47.6015625 C143.17457548 47.91018246 137.97716757 46.03579962 132.91015625 42.0703125 C130.35760217 38.76700722 129.65787019 36.36653168 128.78515625 32.3203125 C128.12515625 32.3203125 127.46515625 32.3203125 126.78515625 32.3203125 C126.88828125 33.1865625 126.99140625 34.0528125 127.09765625 34.9453125 C126.76496629 38.53836407 125.9225208 40.35096675 123.46484375 42.99609375 C118.11222836 47.21594635 111.3547929 47.94599218 104.78515625 47.3203125 C99.20110511 45.98138574 95.46190017 43.86217264 91.78515625 39.3203125 C89.50252609 34.99532904 88.76016751 30.08127173 87.78515625 25.3203125 C87.31335938 26.53267578 87.31335938 26.53267578 86.83203125 27.76953125 C86.4040625 28.83816406 85.97609375 29.90679688 85.53515625 31.0078125 C85.1175 32.06355469 84.69984375 33.11929688 84.26953125 34.20703125 C81.59472873 39.8170776 78.67601202 43.16788443 72.78515625 45.3203125 C67.05184759 46.06009426 63.3778221 45.37673887 58.6015625 42.05859375 C55.16213366 38.76709734 53.54537307 34.67387367 51.78515625 30.3203125 C51.39199219 29.37285156 50.99882812 28.42539062 50.59375 27.44921875 C49.63021205 25.08233981 48.69465245 22.70837514 47.78515625 20.3203125 C47.77097656 21.55007813 47.75679688 22.77984375 47.7421875 24.046875 C47.69526655 25.67972408 47.64701928 27.31253542 47.59765625 28.9453125 C47.58895508 30.15767578 47.58895508 30.15767578 47.58007812 31.39453125 C47.36054697 37.39504952 46.21097398 40.19972358 41.78515625 44.3203125 C36.01833316 47.61268188 29.10059843 48.35505607 22.68359375 46.81640625 C17.98766992 45.2774799 14.94670971 43.22576089 11.78515625 39.3203125 C10.47265625 36.5078125 10.47265625 36.5078125 9.78515625 34.3203125 C9.12515625 34.3203125 8.46515625 34.3203125 7.78515625 34.3203125 C7.24890625 35.2071875 6.71265625 36.0940625 6.16015625 37.0078125 C2.88705892 42.13566498 -2.35832296 44.95497218 -8.08984375 46.6953125 C-14.14848017 47.93322643 -20.48635344 47.45756693 -26.08984375 44.7578125 C-30.92116323 40.9893833 -32.63096845 36.89909506 -33.96484375 31.0078125 C-34.62196352 21.3152959 -34.97313607 11.7383867 -30.46484375 2.8828125 C-22.92221509 -5.70740348 -9.44273753 -5.23519329 0 0 Z M126.78515625 17.3203125 C126.78515625 20.9503125 126.78515625 24.5803125 126.78515625 28.3203125 C127.11515625 28.3203125 127.44515625 28.3203125 127.78515625 28.3203125 C127.78515625 24.6903125 127.78515625 21.0603125 127.78515625 17.3203125 C127.45515625 17.3203125 127.12515625 17.3203125 126.78515625 17.3203125 Z M286.78515625 18.3203125 C286.78515625 21.6203125 286.78515625 24.9203125 286.78515625 28.3203125 C287.11515625 28.3203125 287.44515625 28.3203125 287.78515625 28.3203125 C287.78515625 25.0203125 287.78515625 21.7203125 287.78515625 18.3203125 C287.45515625 18.3203125 287.12515625 18.3203125 286.78515625 18.3203125 Z " fill="#000000" transform="translate(394.21484375,739.6796875)"/>
<path d="M0 0 C0.91162399 -0.00960754 1.82324799 -0.01921509 2.76249695 -0.02911377 C3.74168594 -0.03336365 4.72087494 -0.03761353 5.72973633 -0.04199219 C6.74594559 -0.04769226 7.76215485 -0.05339233 8.80915833 -0.05926514 C10.960164 -0.06870683 13.11118409 -0.07524582 15.26220703 -0.07910156 C18.53224382 -0.08877981 21.80164458 -0.11980027 25.0715332 -0.15136719 C27.16593053 -0.1579005 29.26033234 -0.16314968 31.35473633 -0.16699219 C32.32380417 -0.17933899 33.29287201 -0.19168579 34.29130554 -0.20440674 C41.40342876 -0.18139128 47.98473986 0.53842882 53.75488281 5.00317383 C58.72386537 10.99676072 62.66309398 17.29695693 66.43676758 24.09863281 C67.41548636 25.82862164 68.39422249 27.55860094 69.37399292 29.28799438 C70.38143259 31.06923834 71.38426399 32.85301669 72.38647461 34.63720703 C75.50147617 40.17251671 78.69240675 45.66409023 81.87426758 51.16113281 C83.12589392 53.33021657 84.37719535 55.49948784 85.62817383 57.66894531 C88.11357659 61.97714933 90.60068735 66.28436071 93.08911133 70.59082031 C96.20830908 75.98965223 99.32278213 81.39118718 102.43432617 86.79443359 C103.75883503 89.09307154 105.08447282 91.39101817 106.41186523 93.68798828 C111.11018055 101.8210912 115.76561035 109.9768356 120.37426758 118.16113281 C120.93758789 119.15612793 121.5009082 120.15112305 122.08129883 121.17626953 C133.87554545 142.15697163 139.66974622 163.60150236 133.87426758 187.72363281 C128.33930702 206.44539413 116.51946711 222.39815093 99.53540039 232.22509766 C87.37517921 238.78730361 74.95682331 241.55509426 61.16943359 241.83374023 C59.98470994 241.86661479 58.79998629 241.89948935 57.57936192 241.9333601 C39.60830064 242.37706203 21.62700815 242.36740872 3.65161133 242.39941406 C1.68549653 242.40347614 -0.28061815 242.4075934 -2.24673271 242.41176414 C-11.46292578 242.43067222 -20.6791114 242.44495237 -29.89532 242.45337611 C-40.46480709 242.46320554 -51.03408799 242.4897324 -61.60350233 242.52987701 C-69.83686874 242.56006221 -78.07017579 242.57484577 -86.30359644 242.57815713 C-91.19691342 242.5804972 -96.09000626 242.58932789 -100.98326302 242.6146183 C-105.56945201 242.6379583 -110.15526966 242.64210864 -114.74150276 242.63185692 C-116.41559083 242.63136353 -118.08969774 242.63762532 -119.7637291 242.65141296 C-140.09235671 242.80941397 -140.09235671 242.80941397 -147.7007761 236.41800404 C-152.87167263 231.14042571 -155.987026 224.32916148 -159.25073242 217.78613281 C-159.79729492 216.71363281 -160.34385742 215.64113281 -160.90698242 214.53613281 C-161.98171483 212.42266382 -163.04993413 210.30586806 -164.11108398 208.18554688 C-165.09843912 206.21401956 -166.09477228 204.2469552 -167.10131836 202.28515625 C-167.55023438 201.40633789 -167.99915039 200.52751953 -168.46166992 199.62207031 C-169.05407471 198.47037354 -169.05407471 198.47037354 -169.65844727 197.29541016 C-172.02122326 192.08203616 -172.58490089 186.53349583 -171.01245117 181.00488281 C-168.95217281 176.14008456 -166.51947454 173.97883558 -161.72338867 171.85253906 C-156.54496409 170.14568403 -151.54867657 170.02518101 -146.13711548 170.05433655 C-144.85792207 170.05517161 -144.85792207 170.05517161 -143.55288637 170.05602354 C-140.6964428 170.05905858 -137.84006922 170.06924138 -134.98364258 170.0793457 C-132.93517632 170.0829021 -130.8867092 170.08598802 -128.83824158 170.08863831 C-124.42718102 170.09518902 -120.01614073 170.10474838 -115.60509109 170.11653328 C-108.62974742 170.13482114 -101.65440868 170.14442383 -94.67904663 170.15245056 C-74.84387048 170.17660582 -55.00872433 170.21248088 -35.17358398 170.25708008 C-24.21868918 170.28163527 -13.26380614 170.29899302 -2.30888784 170.30863947 C4.62455612 170.31518082 11.55790314 170.33073676 18.4913137 170.35295689 C22.80623846 170.36469268 27.12113968 170.36805464 31.43607903 170.36905479 C33.43594606 170.37120106 35.43581283 170.37678859 37.43565941 170.38608551 C40.1677497 170.39829408 42.89957388 170.39811523 45.63168335 170.39491272 C46.42109105 170.40142052 47.21049876 170.40792832 48.02382791 170.41463333 C52.84075992 170.39269362 56.79953423 169.68737482 61.37426758 168.16113281 C62.17031921 161.94386882 59.4416865 157.91062468 56.43676758 152.72363281 C55.93242188 151.83111816 55.42807617 150.93860352 54.90844727 150.01904297 C51.71040276 144.38963614 48.42253633 138.8155081 45.05859375 133.28369141 C39.31535541 123.82292576 33.86653146 114.18685337 28.3503418 104.59277344 C26.42726955 101.25317577 24.49776297 97.91739557 22.56567383 94.58300781 C15.77175438 82.85214417 9.05090916 71.08569096 2.45678711 59.24121094 C-0.34736819 54.20864626 -3.17369562 49.19212893 -6.06323242 44.20800781 C-6.88464722 42.78838745 -6.88464722 42.78838745 -7.72265625 41.34008789 C-8.74590288 39.5764599 -9.77400172 37.81563353 -10.80810547 36.05834961 C-15.4398242 28.06800516 -19.01085993 20.6107805 -17.62573242 11.16113281 C-16.29232015 7.3329492 -14.40286574 4.7439828 -11.12573242 2.28613281 C-7.35676116 0.59009575 -4.12162176 0.03522554 0 0 Z M-12.62573242 6.16113281 C-12.13865809 10.76386199 -11.42946758 14.15053743 -9.02807617 18.11035156 C-8.48231934 19.0259082 -7.9365625 19.94146484 -7.37426758 20.88476562 C-6.77662598 21.8628418 -6.17898438 22.84091797 -5.56323242 23.84863281 C-4.27668193 26.00274863 -2.99158272 28.15773174 -1.70776367 30.31347656 C-0.69963623 31.99739502 -0.69963623 31.99739502 0.32885742 33.71533203 C3.37395865 38.82465097 6.31416613 43.99410986 9.25515747 49.16384888 C10.25698404 50.92469555 11.2605598 52.68453416 12.26464844 54.4440918 C14.64314213 58.61263643 17.01906673 62.7826435 19.39501953 66.95263672 C30.06035624 85.66993259 40.82216895 104.32698363 51.7464447 122.89472961 C53.30412256 125.54263023 54.86054438 128.19126842 56.41702271 130.83987427 C57.53586396 132.74209231 58.6570154 134.64293467 59.77832031 136.54370117 C60.47055538 137.7208092 61.16269849 138.89797131 61.85473633 140.07519531 C62.76582153 141.62134521 62.76582153 141.62134521 63.6953125 143.19873047 C67.45325544 149.82936586 70.40340215 155.58582123 68.97192383 163.34082031 C67.35415766 168.41428817 64.89454087 171.20556951 60.37426758 174.16113281 C54.92952123 176.09730908 50.14666902 176.43885905 44.45532227 176.38818359 C43.14293894 176.38863017 43.14293894 176.38863017 41.80404282 176.38908577 C38.88464323 176.38770148 35.96549819 176.37203864 33.04614258 176.35644531 C30.94812156 176.35260535 28.8500987 176.34967851 26.7520752 176.34759521 C22.24007765 176.34128005 17.72815522 176.32875319 13.21618652 176.3114624 C6.08106042 176.28439795 -1.0540408 176.27262522 -8.18920898 176.26318359 C-24.62277815 176.23910381 -41.05628216 176.1949841 -57.48980713 176.15072632 C-72.55278209 176.11036567 -87.61573525 176.07422866 -102.6787529 176.05429649 C-109.77110293 176.04433305 -116.86333867 176.02461569 -123.9556427 175.99743652 C-128.36780089 175.98251433 -132.77994337 175.97588542 -137.19212341 175.97150421 C-139.2371464 175.96776125 -141.28216645 175.96056143 -143.3271637 175.94963837 C-146.12044457 175.93518893 -148.91347513 175.93313152 -151.70678711 175.93408203 C-152.91803442 175.92329715 -152.91803442 175.92329715 -154.15375137 175.91229439 C-159.01687055 175.92999778 -163.00885764 176.61440171 -167.62573242 178.16113281 C-162.71140949 188.26449238 -157.51238677 198.20587702 -152.18823242 208.09863281 C-151.871828 208.68787537 -151.55542358 209.27711792 -151.22943115 209.88421631 C-150.32338379 211.57016294 -149.41407805 213.25435724 -148.50463867 214.93847656 C-147.70908569 216.41175415 -147.70908569 216.41175415 -146.89746094 217.91479492 C-145.81382503 220.06203175 -145.81382503 220.06203175 -144.62573242 221.16113281 C-141.98465545 221.26561114 -139.36949715 221.30445647 -136.72770691 221.30157471 C-135.89002394 221.30454583 -135.05234096 221.30751695 -134.18927366 221.31057811 C-131.35973374 221.319305 -128.53023593 221.32077675 -125.70068359 221.32226562 C-123.68062244 221.32689128 -121.66056217 221.3319156 -119.64050293 221.33731079 C-114.13373402 221.35046821 -108.62697733 221.35688719 -103.12019515 221.36132145 C-99.67894243 221.3642491 -96.23769307 221.3683535 -92.79644203 221.37282562 C-82.02800009 221.3865144 -71.25956579 221.39617214 -60.49111575 221.40002751 C-48.06553636 221.4045004 -35.64006741 221.42200671 -23.21452159 221.45102811 C-13.61099403 221.47267774 -4.00749744 221.48273368 5.59605426 221.48406863 C11.33091799 221.48511506 17.06567812 221.49098743 22.80051613 221.50888824 C28.20378891 221.52542374 33.60688085 221.52749784 39.01016998 221.51874924 C40.98696821 221.51798157 42.96377637 221.52228564 44.94054985 221.53220749 C55.16393578 221.58048377 64.56210924 221.44487159 74.37426758 218.16113281 C75.5112207 217.79632812 76.64817383 217.43152344 77.81958008 217.05566406 C92.15382814 211.26763679 103.6587987 200.37094899 110.08911133 186.27441406 C110.51321289 185.24703125 110.93731445 184.21964844 111.37426758 183.16113281 C111.78805664 182.1646875 112.2018457 181.16824219 112.62817383 180.14160156 C118.00110747 165.25838815 116.82095745 147.79246503 110.13452148 133.51367188 C106.48487727 126.24432925 102.4542626 119.1953424 98.37426758 112.16113281 C97.79257812 111.15421387 97.21088867 110.14729492 96.61157227 109.10986328 C93.70807411 104.09332687 90.78254847 99.09022053 87.84301758 94.09472656 C84.45323996 88.32056575 81.15381959 82.49842633 77.87426758 76.66113281 C72.94770808 67.90031779 67.92088702 59.20344771 62.83764648 50.53271484 C59.55086126 44.91767587 56.29373602 39.28716797 53.07348633 33.63378906 C52.71242294 33.00009903 52.35135956 32.366409 51.97935486 31.71351624 C50.21715895 28.61898073 48.45822399 25.52263797 46.703125 22.42407227 C46.06608643 21.30347412 45.42904785 20.18287598 44.77270508 19.02832031 C44.21244629 18.03944824 43.6521875 17.05057617 43.07495117 16.03173828 C40.11818632 10.80525389 40.11818632 10.80525389 36.37426758 6.16113281 C34.83943788 6.06793832 33.30034675 6.04367481 31.76269531 6.04760742 C30.781754 6.04768295 29.80081268 6.04775848 28.79014587 6.0478363 C27.72349197 6.05299759 26.65683807 6.05815887 25.55786133 6.06347656 C24.47167007 6.06489151 23.38547882 6.06630646 22.26637268 6.06776428 C18.78147683 6.07338233 15.29664416 6.08593789 11.81176758 6.09863281 C9.45564871 6.10364549 7.09952884 6.1082088 4.7434082 6.11230469 C-1.04632706 6.12335762 -6.83602523 6.1401133 -12.62573242 6.16113281 Z " fill="#010101" transform="translate(538.625732421875,332.8388671875)"/>
<path d="M0 0 C51.17444717 0 51.17444717 0 60 8 C64.80475998 13.87715718 67.42747772 18.94949665 67.26953125 26.66015625 C66.33199487 34.799059 63.0412396 40.97628059 57.0390625 46.47265625 C54.49861948 48.37555514 52.10877516 49.37824497 49 50 C49 50.66 49 51.32 49 52 C49.94875 52.04125 50.8975 52.0825 51.875 52.125 C58.24305662 53.09377129 63.52311329 56.45935185 67.97265625 61.0234375 C73.32195854 68.43405486 73.33962956 77.24307617 72 86 C69.67989697 94.32694512 64.21093934 99.82769151 56.953125 104.24609375 C39.14778347 113.66636165 20.86327019 109 0 109 C0 73.03 0 37.06 0 0 Z M37 33 C36.34 33.66 35.68 34.32 35 35 C35.32041397 37.60280568 35.32041397 37.60280568 36 40 C38.94091587 39.81584568 38.94091587 39.81584568 42 39 C43.43637698 37.04836882 43.43637698 37.04836882 44 35 C41.69 34.34 39.38 33.68 37 33 Z M35 81 C34.75787127 82.98128508 34.75787127 82.98128508 34.875 85.125 C34.91625 86.40375 34.9575 87.6825 35 89 C37.28634297 90.39894958 38.58031945 91.03151185 41.2890625 90.828125 C42.05992187 90.63734375 42.83078125 90.4465625 43.625 90.25 C44.40101563 90.06953125 45.17703125 89.8890625 45.9765625 89.703125 C48.192835 89.09771869 48.192835 89.09771869 50 87 C49.90888062 84.46048456 49.90888062 84.46048456 49 82 C46.04230603 80.02820402 44.83582038 79.63070146 41.4375 79.25 C40.25994141 79.10304688 40.25994141 79.10304688 39.05859375 78.953125 C36.77138813 78.7680608 36.77138813 78.7680608 35 81 Z " fill="#D9D9D9" transform="translate(603,606)"/>
<path d="M0 0 C4.24126602 2.51068601 7.2886986 5.9523972 9.5 10.375 C9.76988594 14.28589263 9.73164332 18.20584937 9.75 22.125 C9.7809375 23.75308594 9.7809375 23.75308594 9.8125 25.4140625 C9.84458343 31.9751231 9.65467086 36.90906829 5.03515625 41.984375 C-0.9808278 46.64397007 -6.01013829 48.80614097 -13.73828125 48.19921875 C-19.06218726 47.28891358 -22.55778061 45.26575001 -26.67578125 41.8125 C-28.53107664 40.35051134 -30.35879987 39.35815591 -32.5 38.375 C-32.726875 38.973125 -32.95375 39.57125 -33.1875 40.1875 C-34.94176201 43.11127001 -36.36849164 44.01347463 -39.5 45.375 C-45.84154541 46.07961616 -48.26965948 45.17888401 -53.5 41.375 C-58.0591033 41.375 -58.63060535 42.26200799 -61.87109375 45.12890625 C-66.52810431 48.69146349 -72.84816601 49.06530033 -78.5 48.375 C-84.12563604 47.0415159 -87.70964748 44.85450752 -91.5 40.375 C-91.83 39.715 -92.16 39.055 -92.5 38.375 C-93.985 37.88 -93.985 37.88 -95.5 37.375 C-95.726875 38.138125 -95.95375 38.90125 -96.1875 39.6875 C-97.84797089 43.08751182 -99.01161986 43.93414733 -102.5 45.375 C-108.84154541 46.07961616 -111.26965948 45.17888401 -116.5 41.375 C-121.0591033 41.375 -121.63060535 42.26200799 -124.87109375 45.12890625 C-129.52810431 48.69146349 -135.84816601 49.06530033 -141.5 48.375 C-147.08205196 47.05184694 -150.83015947 44.90833242 -154.5 40.375 C-159.15235446 31.53552652 -158.14387489 18.88200478 -155.75 9.40625 C-154.28446375 5.64470696 -153.26889293 3.82934582 -149.75 1.75 C-144.12087297 1.10048534 -140.20584845 1.03998817 -135.625 4.625 C-132.61148415 8.52484404 -131.64827383 11.44087485 -130.875 16.3125 C-129.81537737 20.86112399 -127.21051507 22.68199246 -123.47265625 25.24609375 C-121.40193058 26.51699159 -121.40193058 26.51699159 -118.5 27.375 C-117.9225 26.59125 -117.345 25.8075 -116.75 25 C-113.44379247 21.14275788 -111.80797353 20.52759691 -106.75 19.9375 C-101.77760355 20.02161949 -98.38399254 22.48266513 -94.5 25.375 C-94.46132813 24.12396484 -94.46132813 24.12396484 -94.421875 22.84765625 C-94.07040632 15.8741982 -93.72606789 9.19428198 -89.5 3.375 C-85.56729175 1.05112694 -81.81297645 1.0514283 -77.39453125 1.76953125 C-74.15112361 2.80608421 -72.53963113 4.73547736 -70.5 7.375 C-68.93640962 10.41988652 -68.41676599 12.89937426 -67.875 16.3125 C-66.81537737 20.86112399 -64.21051507 22.68199246 -60.47265625 25.24609375 C-58.40193058 26.51699159 -58.40193058 26.51699159 -55.5 27.375 C-54.9225 26.59125 -54.345 25.8075 -53.75 25 C-51.14581795 21.9617876 -49.64473769 20.5433885 -45.609375 20.2265625 C-42.04344118 20.16052669 -38.94774856 20.41301658 -35.5 21.375 C-35.35304688 20.82972656 -35.20609375 20.28445313 -35.0546875 19.72265625 C-32.73563641 11.92584655 -29.44402612 4.87638399 -22.4375 0.3125 C-15.52923129 -3.04827937 -7.02097074 -3.14550107 0 0 Z " fill="#010101" transform="translate(906.5,738.625)"/>
<path d="M0 0 C4.95 0 9.9 0 15 0 C15.00410889 2.2697168 15.00821777 4.53943359 15.01245117 6.87792969 C15.02972896 14.41777172 15.07436371 21.95727864 15.13209057 29.49691391 C15.1662298 34.06360049 15.19145006 38.62995717 15.19555664 43.19677734 C15.19986784 47.61266278 15.22856155 52.02780567 15.27343178 56.44345856 C15.28631733 58.11931262 15.29074655 59.79525595 15.28615379 61.47115326 C15.26427245 71.89007534 15.46220485 82.20326833 22.40690613 90.72674561 C28.90096894 96.63540928 37.35495914 98.31050078 45.86328125 98.1484375 C54.45204123 97.55177776 61.46881814 94.91293125 67.3125 88.4375 C72.3978181 78.07851868 72.46697115 67.13928157 72.51171875 55.859375 C72.52860249 54.23983432 72.54675757 52.62030644 72.56611633 51.00079346 C72.613222 46.7792359 72.64328453 42.55773028 72.66955566 38.33599854 C72.69956244 34.01165513 72.74602255 29.6874901 72.79101562 25.36328125 C72.87659903 16.90892798 72.94261733 8.45459174 73 0 C77.62 0 82.24 0 87 0 C87.06806278 9.70191268 87.12298057 19.40366405 87.15543652 29.10576248 C87.17102202 33.61194047 87.19212851 38.11794515 87.22631836 42.62402344 C87.25916789 46.98124622 87.27690637 51.3383034 87.28463173 55.69564056 C87.2901297 57.34923658 87.30086442 59.00282462 87.31719017 60.65634918 C87.45583963 75.29552323 86.31959963 88.47061519 76.25390625 100 C65.88153854 110.00577675 52.70709794 111.34336958 38.94140625 111.1484375 C28.34605656 110.7494055 17.70159119 107.70159119 10 100 C1.98905056 90.01712455 -0.13509576 79.03102165 -0.11352539 66.41235352 C-0.11367142 65.68956711 -0.11381744 64.9667807 -0.1139679 64.22209167 C-0.11327699 61.85766489 -0.10552352 59.4933191 -0.09765625 57.12890625 C-0.09578914 55.47981306 -0.09436662 53.83071931 -0.09336853 52.18162537 C-0.0895664 47.85965419 -0.07975597 43.53771708 -0.06866455 39.21575928 C-0.05840071 34.79814108 -0.05386029 30.38051733 -0.04882812 25.96289062 C-0.03813147 17.30857644 -0.02055352 8.6542964 0 0 Z " fill="#DDDDDD" transform="translate(748,606)"/>
<path d="M0 0 C4.62 0 9.24 0 14 0 C14.33 16.5 14.66 33 15 50 C19.9367652 44.51470534 24.82637691 39.07854208 29.5625 33.4375 C34.94567918 27.08744775 40.5745111 20.98747373 46.36206055 15.00390625 C49.91800092 11.31367488 52.96252524 7.66657294 55.875 3.4375 C57.79887764 1.15344435 59.11427311 0.15005256 62.07519531 -0.3515625 C67.4185012 -0.75138693 72.66975283 -0.46127139 78 0 C76.42035813 3.85027206 73.96855605 6.24625535 71.01953125 9.140625 C70.52845383 9.62650085 70.0373764 10.11237671 69.53141785 10.61297607 C67.96314352 12.16350303 66.38836518 13.70719156 64.8125 15.25 C62.75305435 17.27256102 60.69693151 19.29841484 58.64453125 21.328125 C58.14563385 21.82125183 57.64673645 22.31437866 57.13272095 22.82244873 C53.81431341 26.12626332 50.71282181 29.55176994 47.6784668 33.11425781 C45.79963 35.22511387 43.81664898 37.1805264 41.78125 39.140625 C40.72550781 40.15769531 40.72550781 40.15769531 39.6484375 41.1953125 C38.19200038 42.588196 36.72819039 43.97340343 35.2578125 45.3515625 C34.56429687 46.02445313 33.87078125 46.69734375 33.15625 47.390625 C32.52525391 47.98907227 31.89425781 48.58751953 31.24414062 49.20410156 C29.78561936 50.9147597 29.78561936 50.9147597 30.12060547 53.02734375 C31.11055603 55.24799908 32.16199934 56.49187208 33.9140625 58.171875 C34.50670898 58.74969727 35.09935547 59.32751953 35.70996094 59.92285156 C36.34192383 60.52581055 36.97388672 61.12876953 37.625 61.75 C38.91591025 63.00852414 40.2049946 64.26892407 41.4921875 65.53125 C42.10674805 66.13324219 42.72130859 66.73523438 43.35449219 67.35546875 C45.81314088 69.8126583 48.05340039 72.42674591 50.296875 75.078125 C53.23621638 78.39499647 56.44220719 81.44892758 59.59375 84.5625 C62.24404362 87.24721302 64.69224995 90.05152023 67.13671875 92.921875 C70.21024935 96.34979592 73.54601891 99.51286351 76.86328125 102.703125 C78.78384036 104.76763827 79.92853541 106.41901348 81 109 C64.53558719 110.52135231 64.53558719 110.52135231 58.7578125 107.0546875 C56.25087089 104.50088716 54.10909174 101.88853868 52 99 C50.88717653 97.71849062 49.76292774 96.44677075 48.625 95.1875 C48.08101563 94.55199219 47.53703125 93.91648437 46.9765625 93.26171875 C44.37614825 90.28614593 41.68853836 87.39585628 39 84.5 C35.17805784 80.37828616 31.40145363 76.23074681 27.7265625 71.9765625 C24.84043456 68.67253368 21.8742563 65.44044968 18.91796875 62.19921875 C17 60 17 60 15 57 C14.67 74.16 14.34 91.32 14 109 C9.38 109 4.76 109 0 109 C0 73.03 0 37.06 0 0 Z " fill="#DCDCDC" transform="translate(375,606)"/>
<path d="M0 0 C0 4.95 0 9.9 0 15 C-2.083125 14.175 -4.16625 13.35 -6.3125 12.5 C-12.5088102 10.29116567 -18.30780447 9.50520535 -24.875 9.5 C-25.64626221 9.49419922 -26.41752441 9.48839844 -27.2121582 9.48242188 C-34.9955861 9.64910841 -42.28809498 11.46659201 -48 17 C-49.98039664 20.96079328 -49.41027542 25.6829228 -49 30 C-45.41194817 38.64394304 -35.37656664 41.85163972 -27.40039062 45.52856445 C-13.67944598 51.87607043 -2.02953983 57.94092033 5 72 C5.6626906 81.71096614 5.40516212 89.03819234 -0.1875 97.1875 C-9.72695282 106.72695282 -22.37974396 109.36091235 -35.5 109.4375 C-46.32000289 109.30879432 -56.23888783 107.88055609 -66 103 C-66 97.72 -66 92.44 -66 87 C-63.40949051 88.0362038 -60.82061679 89.08018275 -58.2734375 90.21875 C-46.02662225 95.63243653 -33.03017813 98.34339271 -20 94 C-15.67235129 91.67589236 -12.81025472 89.62620651 -11 85 C-10.34477865 80.17077594 -10.46578749 76.26268412 -12.375 71.75 C-19.01565607 64.79312221 -28.58202459 61.15922198 -37.09765625 56.93359375 C-37.76297363 56.60343262 -38.42829102 56.27327148 -39.11376953 55.93310547 C-40.7806791 55.10849657 -42.45066 54.29010255 -44.12109375 53.47265625 C-52.89698911 48.9788999 -61.09636202 43.3399927 -65 34 C-66.7114159 26.67773955 -66.27376447 19.79588349 -63 13 C-56.90122742 3.60459359 -47.60588557 -0.53391604 -37 -3 C-25.52312802 -5.24310781 -10.51643865 -5.25821933 0 0 Z " fill="#DBDBDB" transform="translate(362,608)"/>
<path d="M0 0 C0 4.95 0 9.9 0 15 C-2.11588542 14.28385417 -4.23177083 13.56770833 -6.34765625 12.8515625 C-7.22292969 12.57054687 -8.09820313 12.28953125 -9 12 C-10.06347656 11.64292969 -11.12695312 11.28585937 -12.22265625 10.91796875 C-16.70042219 9.82978365 -20.78797262 9.6691812 -25.375 9.6875 C-26.17421875 9.67138672 -26.9734375 9.65527344 -27.796875 9.63867188 C-35.02463484 9.63282417 -41.46219806 10.7794233 -47 15.625 C-47.66 16.40875 -48.32 17.1925 -49 18 C-49.33 18.33 -49.66 18.66 -50 19 C-50.57520755 24.873754 -50.64553913 30.13928117 -47 35 C-40.77975095 39.89144395 -33.78891616 43.12715337 -26.625 46.375 C-14.65009817 51.97708232 -4.24524008 57.44862667 3 69 C5.06298364 75.18895091 5.29313154 84.79820381 2.875 91 C-3.02075939 100.43321502 -9.78307647 104.60872229 -20.4375 107.8125 C-34.66597431 110.98654427 -49.2283551 109.40821344 -63 105 C-63.99 104.34 -64.98 103.68 -66 103 C-66.22107787 100.2114711 -66.28107535 97.65346819 -66.1875 94.875 C-66.17396484 94.12089844 -66.16042969 93.36679687 -66.14648438 92.58984375 C-66.11109985 90.72625873 -66.05729167 88.86304022 -66 87 C-65.22398437 87.39832031 -64.44796875 87.79664063 -63.6484375 88.20703125 C-48.35749538 95.70652673 -34.37273621 98.16534949 -18 93 C-15.22691232 91.99336433 -14.27994706 91.52661371 -12.8828125 88.8984375 C-11.04046084 82.7635964 -10.65387449 79.01832195 -13 73 C-16.4425443 67.21461304 -22.12159981 65.01582 -27.9375 62.125 C-30.02223132 61.06008355 -32.10686737 59.99498059 -34.19140625 58.9296875 C-36.85989328 57.58108345 -39.52992417 56.23571526 -42.20263672 54.89550781 C-51.13199363 50.39964014 -61.24923622 45.14809082 -65.41015625 35.46484375 C-67.07201245 28.52026584 -67.4081931 20.1472985 -64.5 13.5 C-59.50890661 5.41583466 -51.36143757 0.32184221 -42.32421875 -1.90625 C-28.24408914 -4.9098983 -13.57972313 -5.43188925 0 0 Z " fill="#DBDBDB" transform="translate(979,608)"/>
<path d="M0 0 C19.8 0 39.6 0 60 0 C60 3.96 60 7.92 60 12 C44.82 12 29.64 12 14 12 C14 23.88 14 35.76 14 48 C27.86 48 41.72 48 56 48 C56 51.63 56 55.26 56 59 C42.14 59 28.28 59 14 59 C14 71.54 14 84.08 14 97 C29.84 97 45.68 97 62 97 C62 100.96 62 104.92 62 109 C41.54 109 21.08 109 0 109 C0 73.03 0 37.06 0 0 Z " fill="#DDDDDD" transform="translate(842,606)"/>
<path d="M0 0 C5.61 0 11.22 0 17 0 C18.03898437 2.02898438 19.07796875 4.05796875 20.1484375 6.1484375 C21.5558301 8.89137688 22.96530924 11.63324111 24.375 14.375 C24.7380423 15.08162781 25.10108459 15.78825562 25.47512817 16.51629639 C30.19365042 25.69130971 34.96432363 34.81902301 40.16748047 43.73193359 C42.12350966 47.13712827 43.52660877 50.07761555 44 54 C44.66 54 45.32 54 46 54 C46.22171875 53.21238281 46.4434375 52.42476562 46.671875 51.61328125 C48.41734055 46.86458821 50.79589982 42.60314235 53.25 38.1875 C53.76925049 37.24495361 54.28850098 36.30240723 54.82348633 35.33129883 C56.542501 32.21722295 58.27036721 29.10818991 60 26 C60.94915283 24.29070313 60.94915283 24.29070313 61.91748047 22.546875 C63.83679053 19.09149889 65.76127482 15.63902675 67.6875 12.1875 C68.29948242 11.09010498 68.91146484 9.99270996 69.54199219 8.86206055 C70.10950195 7.84926025 70.67701172 6.83645996 71.26171875 5.79296875 C71.76662842 4.8908667 72.27153809 3.98876465 72.79174805 3.05932617 C74 1 74 1 75 0 C77.53049402 -0.07313567 80.03304837 -0.09247527 82.5625 -0.0625 C83.62887695 -0.05573242 83.62887695 -0.05573242 84.71679688 -0.04882812 C86.47790013 -0.03700864 88.23896036 -0.01907263 90 0 C89.32962033 3.41072962 88.00566551 6.03444015 86.296875 9.05078125 C85.73508545 10.04795166 85.1732959 11.04512207 84.59448242 12.07250977 C83.98580322 13.14170654 83.37712402 14.21090332 82.75 15.3125 C82.12391846 16.42101318 81.49783691 17.52952637 80.8527832 18.67163086 C79.54860449 20.9795535 78.24288434 23.2865033 76.93408203 25.59179688 C75.11731301 28.79327322 73.30556125 31.99751752 71.49609375 35.203125 C69.40995856 38.89850416 67.321521 42.59255753 65.23046875 46.28515625 C64.488573 47.63407959 64.488573 47.63407959 63.73168945 49.01025391 C62.43437712 51.25005186 61.10035811 53.35105924 59.64916992 55.48583984 C52.32476432 66.66162319 51.73079624 76.37026978 51.9375 89.5 C51.9344165 91.40235473 51.92727874 93.30470736 51.91601562 95.20703125 C51.89742354 99.8060027 51.9331466 104.40150978 52 109 C47.38 109 42.76 109 38 109 C38.04825928 107.93491211 38.09651855 106.86982422 38.14624023 105.77246094 C39.08800695 81.60854326 37.58329348 64.57452279 24.03662109 44.12695312 C20.78103528 39.12844639 17.94866231 33.90469418 15.0625 28.6875 C14.00872167 26.83077452 12.95281798 24.97525326 11.89453125 23.12109375 C1.74917894 5.24753682 1.74917894 5.24753682 0 0 Z " fill="#D7D7D7" transform="translate(456,606)"/>
<path d="M0 0 C4.62 0 9.24 0 14 0 C14 32.01 14 64.02 14 97 C29.51 97 45.02 97 61 97 C61 100.96 61 104.92 61 109 C40.87 109 20.74 109 0 109 C0 73.03 0 37.06 0 0 Z " fill="#E1E1E1" transform="translate(680,606)"/>
<path d="M0 0 C5.8471875 -0.12375 5.8471875 -0.12375 11.8125 -0.25 C13.01753174 -0.28641602 14.22256348 -0.32283203 15.46411133 -0.36035156 C23.20747462 -0.43867582 31.63573419 0.21118154 37.74975586 5.51904297 C42.74664502 11.35421728 42.52416122 16.59379612 42 24 C40.36792973 28.98688137 37.50313054 32.32744439 33 35 C25.67986951 38.05623331 18.70977539 38.38032626 10.875 38.1875 C7.28625 38.125625 3.6975 38.06375 0 38 C0 25.46 0 12.92 0 0 Z M20 22 C19.75787127 23.98128508 19.75787127 23.98128508 19.875 26.125 C19.91625 27.40375 19.9575 28.6825 20 30 C22.28634297 31.39894958 23.58031945 32.03151185 26.2890625 31.828125 C27.05992187 31.63734375 27.83078125 31.4465625 28.625 31.25 C29.40101563 31.06953125 30.17703125 30.8890625 30.9765625 30.703125 C33.192835 30.09771869 33.192835 30.09771869 35 28 C34.90888062 25.46048456 34.90888062 25.46048456 34 23 C31.04230603 21.02820402 29.83582038 20.63070146 26.4375 20.25 C25.25994141 20.10304688 25.25994141 20.10304688 24.05859375 19.953125 C21.77138813 19.7680608 21.77138813 19.7680608 20 22 Z " fill="#000000" transform="translate(618,665)"/>
<path d="M0 0 C3.795 -0.061875 7.59 -0.12375 11.5 -0.1875 C13.27020508 -0.22846802 13.27020508 -0.22846802 15.07617188 -0.27026367 C22.46108798 -0.32823102 28.58073055 0.106772 34.4375 5.0625 C37.37453845 10.58413228 37.63253071 15.85642369 35.875 21.8125 C32.33124258 27.83688762 28.6027167 30.72320114 22 33 C15 34 15 34 0 34 C0 22.78 0 11.56 0 0 Z M22 20 C21.34 20.66 20.68 21.32 20 22 C20.32041397 24.60280568 20.32041397 24.60280568 21 27 C23.94091587 26.81584568 23.94091587 26.81584568 27 26 C28.43637698 24.04836882 28.43637698 24.04836882 29 22 C26.69 21.34 24.38 20.68 22 20 Z " fill="#000000" transform="translate(618,619)"/>
<path d="M0 0 C2.36497439 1.86708505 3.66030715 3.32061431 5 6 C5.35382027 11.39575915 5.39538538 14.55988065 2 19 C0 21 0 21 -3.375 21.375 C-7 21 -7 21 -9.3125 19.4375 C-12.35787427 15.03862606 -13.25659946 11.53959678 -12.375 6.25 C-9.77312581 0.10011556 -6.54122615 -0.81765327 0 0 Z " fill="#000000" transform="translate(578,744)"/>
<path d="M0 0 C13.44761854 -0.37011794 13.44761854 -0.37011794 15.9296875 1.29296875 C17.7173201 4.14404702 17.29117244 6.7388687 17 10 C16.01 11.485 16.01 11.485 15 13 C15.66 13.66 16.32 14.32 17 15 C17.1953125 17.3828125 17.1953125 17.3828125 17.125 20.125 C17.09792969 21.49011719 17.09792969 21.49011719 17.0703125 22.8828125 C17.04710937 23.58148437 17.02390625 24.28015625 17 25 C16.01 25 15.02 25 14 25 C13.67 21.7 13.34 18.4 13 15 C9.7 14.67 6.4 14.34 3 14 C3 17.63 3 21.26 3 25 C2.01 25 1.02 25 0 25 C0 16.75 0 8.5 0 0 Z " fill="#F7F7F7" transform="translate(687,742)"/>
<path d="M0 0 C9.35714286 0 9.35714286 0 13 3 C15.56632517 6.42176689 15.36435051 9.84640421 15 14 C13.76043745 16.78901573 12.71549246 18.44350587 10.3125 20.3125 C8 21 8 21 0 21 C0 14.07 0 7.14 0 0 Z " fill="#000000" transform="translate(368,744)"/>
<path d="M0 0 C13.48425157 -0.37112619 13.48425157 -0.37112619 15.89453125 1.36328125 C17.43768739 3.6480248 17.86849933 5.23848596 18 8 C16.8584081 10.2831838 15.80987317 12.19012683 14 14 C10.3308423 14.14310287 6.67284559 14.04221662 3 14 C3 17.63 3 21.26 3 25 C2.01 25 1.02 25 0 25 C0 16.75 0 8.5 0 0 Z " fill="#F7F7F7" transform="translate(608,742)"/>
<path d="M0 0 C3.4102576 2.84188133 4.92121982 5.63769099 5.5703125 10.0546875 C5.84393995 15.47251096 4.9390324 18.68744971 1.25 22.875 C-1.96897087 25.64689158 -3.4435573 25.875 -7.75 25.875 C-11.9866493 25.16221779 -14.05464847 23.22377008 -16.75 19.875 C-18.72338848 15.92822303 -18.19290148 11.17660477 -17.75 6.875 C-16.12795062 3.5729709 -14.84120239 1.70280871 -11.9375 -0.5 C-7.69110695 -1.71325516 -4.0913591 -1.67373781 0 0 Z M-12.625 4 C-15.04684566 7.27661471 -15.75 8.81163986 -15.75 12.875 C-14.62150296 17.44883271 -13.75284984 20.20643344 -9.75 22.875 C-4.6900049 23.42906809 -4.6900049 23.42906809 -0.375 21.0625 C2.66005025 16.97685543 2.64704238 12.78839943 2.25 7.875 C1.07986774 4.4546134 0.37689277 3.95959518 -2.75 1.875 C-7.13025187 1.30718957 -9.0287582 1.34190824 -12.625 4 Z " fill="#F3F3F3" transform="translate(580.75,742.125)"/>
<path d="M0 0 C13.2395151 -0.49493514 13.2395151 -0.49493514 16.875 1.87109375 C20.18256867 5.18474251 20.86322071 7.76898641 21.375 12.375 C20.89634826 17.00196684 19.62425273 19.17608888 17 23 C13.2632157 25.49118953 11.25548181 25.2065226 6.8125 25.125 C4.564375 25.08375 2.31625 25.0425 0 25 C0 16.75 0 8.5 0 0 Z M3 2 C3 8.93 3 15.86 3 23 C10.53164039 23.39047234 10.53164039 23.39047234 16 20 C18.56632517 16.57823311 18.36435051 13.15359579 18 9 C16.76043745 6.21098427 15.71549246 4.55649413 13.3125 2.6875 C10.12404026 1.62003964 10.12404026 1.62003964 3 2 Z " fill="#F9F9F9" transform="translate(365,742)"/>
<path d="M0 0 C2.5625 2.4375 2.5625 2.4375 4 5 C4 5.66 4 6.32 4 7 C3.01 7 2.02 7 1 7 C0.401875 6.34 -0.19625 5.68 -0.8125 5 C-2.88682978 2.73917405 -2.88682978 2.73917405 -6 2.5 C-9.04991104 2.78600356 -9.04991104 2.78600356 -11.3125 4.625 C-13.4121931 7.58012362 -13.85792953 9.377203 -14 13 C-13.36498926 16.72418608 -13.36498926 16.72418608 -12 20 C-8.50875983 22.32749345 -7.10777749 22.50299316 -3 22 C-0.81222534 20.0624994 -0.81222534 20.0624994 1 18 C1.99 18 2.98 18 4 18 C3.06117241 21.47366207 2.30769804 22.78532695 -0.6875 24.875 C-4.70806186 26.24047384 -6.91610982 26.11378823 -11 25 C-14.35211493 22.81383809 -15.72686604 21.81940188 -17 18 C-17.51236616 12.64955335 -17.64741984 8.31796182 -15.25 3.4375 C-10.71220736 -1.47844202 -6.27818574 -1.82009788 0 0 Z " fill="#F5F5F5" transform="translate(895,742)"/>
<path d="M0 0 C5.28 0 10.56 0 16 0 C16 0.66 16 1.32 16 2 C11.71 2 7.42 2 3 2 C3 4.97 3 7.94 3 11 C7.29 11 11.58 11 16 11 C16 11.66 16 12.32 16 13 C11.71 13 7.42 13 3 13 C3 16.3 3 19.6 3 23 C7.62 23 12.24 23 17 23 C17 23.66 17 24.32 17 25 C11.39 25 5.78 25 0 25 C0 16.75 0 8.5 0 0 Z " fill="#FBFBFB" transform="translate(648,742)"/>
<path d="M0 0 C5.28 0 10.56 0 16 0 C16 0.66 16 1.32 16 2 C11.71 2 7.42 2 3 2 C3 4.97 3 7.94 3 11 C7.29 11 11.58 11 16 11 C16 11.66 16 12.32 16 13 C11.71 13 7.42 13 3 13 C3 16.3 3 19.6 3 23 C7.62 23 12.24 23 17 23 C17 23.66 17 24.32 17 25 C11.39 25 5.78 25 0 25 C0 16.75 0 8.5 0 0 Z " fill="#FBFBFB" transform="translate(488,742)"/>
<path d="M0 0 C5.28 0 10.56 0 16 0 C16 0.66 16 1.32 16 2 C11.71 2 7.42 2 3 2 C3 4.97 3 7.94 3 11 C7.29 11 11.58 11 16 11 C16 11.66 16 12.32 16 13 C11.71 13 7.42 13 3 13 C3 16.3 3 19.6 3 23 C7.62 23 12.24 23 17 23 C17 23.66 17 24.32 17 25 C11.39 25 5.78 25 0 25 C0 16.75 0 8.5 0 0 Z " fill="#FBFBFB" transform="translate(408,742)"/>
<path d="M0 0 C1.89355469 0.28173828 1.89355469 0.28173828 4 1 C5.29437238 3.65405713 6.30440845 6.10094316 7.25 8.875 C7.518125 9.60847656 7.78625 10.34195313 8.0625 11.09765625 C9.16028874 14.17258492 10 16.71299088 10 20 C10.66 20 11.32 20 12 20 C12.17015625 19.39414062 12.3403125 18.78828125 12.515625 18.1640625 C14.31566942 11.94050468 16.49618433 5.97357039 19 0 C19.99 0 20.98 0 22 0 C19.68860831 8.61703042 16.39204534 16.76688023 13 25 C11.68 25 10.36 25 9 25 C7.4973608 21.02182489 5.99833048 17.04229973 4.5 13.0625 C4.07074219 11.92619141 3.64148438 10.78988281 3.19921875 9.61914062 C2.79316406 8.53955078 2.38710938 7.45996094 1.96875 6.34765625 C1.59169922 5.34742432 1.21464844 4.34719238 0.82617188 3.31665039 C0 1 0 1 0 0 Z " fill="#F0F0F0" transform="translate(445,742)"/>
<path d="M0 0 C8.38769385 -0.48624312 8.38769385 -0.48624312 11.125 1.6875 C12.21933965 4.57968336 12.01773215 6.10337772 11 9 C7.57067929 10.71466036 3.78283935 10.05404056 0 10 C0 6.7 0 3.4 0 0 Z " fill="#000000" transform="translate(611,744)"/>
<path d="M0 0 C0.99 0 1.98 0 3 0 C3 7.59 3 15.18 3 23 C7.29 23 11.58 23 16 23 C16 23.66 16 24.32 16 25 C10.72 25 5.44 25 0 25 C0 16.75 0 8.5 0 0 Z " fill="#FCFCFC" transform="translate(817,742)"/>
<path d="M0 0 C0.99 0 1.98 0 3 0 C3 7.59 3 15.18 3 23 C7.29 23 11.58 23 16 23 C16 23.66 16 24.32 16 25 C10.72 25 5.44 25 0 25 C0 16.75 0 8.5 0 0 Z " fill="#FCFCFC" transform="translate(754,742)"/>
<path d="M0 0 C0.99 0 1.98 0 3 0 C3 7.59 3 15.18 3 23 C7.29 23 11.58 23 16 23 C16 23.66 16 24.32 16 25 C10.72 25 5.44 25 0 25 C0 16.75 0 8.5 0 0 Z " fill="#FCFCFC" transform="translate(527,742)"/>
<path d="M0 0 C7.28850325 -0.48590022 7.28850325 -0.48590022 10.5625 1.75 C12 4 12 4 11.875 6.1875 C11 8 11 8 9 9 C5.99525503 9.13559318 3.00931153 9.04299016 0 9 C0 6.03 0 3.06 0 0 Z " fill="#000000" transform="translate(690,744)"/>
<path d="M0 0 C0.66 0 1.32 0 2 0 C5.91058106 4.51220891 5.29469532 9.37895957 5 15 C4.01 15 3.02 15 2 15 C1.67 11.7 1.34 8.4 1 5 C-2.3 4.67 -5.6 4.34 -9 4 C-9 3.67 -9 3.34 -9 3 C-5.92382812 2.70703125 -5.92382812 2.70703125 -2.84765625 2.4140625 C-2.23792969 2.27742187 -1.62820313 2.14078125 -1 2 C-0.67 1.34 -0.34 0.68 0 0 Z " fill="#E7E7E7" transform="translate(699,752)"/>
<path d="M0 0 C0.99 0 1.98 0 3 0 C2.54803755 1.60597325 2.08817673 3.20972508 1.625 4.8125 C1.36976563 5.70582031 1.11453125 6.59914063 0.8515625 7.51953125 C0 10 0 10 -2 13 C-2.66 13 -3.32 13 -4 13 C-3.71517632 11.58194169 -3.42181856 10.16559621 -3.125 8.75 C-2.96257812 7.96109375 -2.80015625 7.1721875 -2.6328125 6.359375 C-2.00849925 4.03168856 -1.15161458 2.10968048 0 0 Z " fill="#F6F6F6" transform="translate(464,742)"/>
<path d="M0 0 C0.33 0 0.66 0 1 0 C1.38434943 4.80436782 1.47968712 8.09024857 -0.8125 12.4375 C-3 15 -3 15 -6 17 C-6 12.70612989 -5.39715444 11.41133516 -3 8 C-2.34 7.67 -1.68 7.34 -1 7 C-0.59270772 4.67843403 -0.25561323 2.3431213 0 0 Z " fill="#E6E6E6" transform="translate(585,750)"/>
<path d="M0 0 C0.33 0 0.66 0 1 0 C1.49842868 6.10575128 0.42265865 9.11048764 -3 14 C-3.99 14.33 -4.98 14.66 -6 15 C-6.33 14.01 -6.66 13.02 -7 12 C-6.566875 11.608125 -6.13375 11.21625 -5.6875 10.8125 C-2.7159484 7.62083347 -0.79652111 4.301214 0 0 Z " fill="#E5E5E5" transform="translate(385,751)"/>
<path d="M0 0 C1.32 0.33 2.64 0.66 4 1 C5.87679987 4.37823976 6.21849583 7.17632299 6 11 C5.01 11.495 5.01 11.495 4 12 C2.68 8.04 1.36 4.08 0 0 Z " fill="#F9F9F9" transform="translate(445,742)"/>
<path d="M0 0 C0.99 0.33 1.98 0.66 3 1 C2.01 4.3 1.02 7.6 0 11 C-1.32 10.67 -2.64 10.34 -4 10 C-4 9.34 -4 8.68 -4 8 C-3.34 8 -2.68 8 -2 8 C-1.34 5.36 -0.68 2.72 0 0 Z " fill="#E0E0E0" transform="translate(459,754)"/>
<path d="M0 0 C-1.47692308 4.67692308 -1.47692308 4.67692308 -4.125 6.3125 C-5.053125 6.6528125 -5.053125 6.6528125 -6 7 C-6.33 6.01 -6.66 5.02 -7 4 C-3.375 0 -3.375 0 0 0 Z " fill="#EAEAEA" transform="translate(899,760)"/>
<path d="M0 0 C0.66 0 1.32 0 2 0 C2 0.99 2 1.98 2 3 C2.99 2.67 3.98 2.34 5 2 C5 3.32 5 4.64 5 6 C3.68 6 2.36 6 1 6 C0.67 4.02 0.34 2.04 0 0 Z " fill="#F6F6F6" transform="translate(453,761)"/>
</svg>
