<svg width="1092" height="299" viewBox="0 0 1092 299" fill="none" xmlns="http://www.w3.org/2000/svg">
<g clip-path="url(#clip0_1717_232)">
<path d="M353.93 0.629883L349.23 30.5199L352.5 29.7799C369 26.0299 385.95 23.9299 402.89 23.5199H427.96V162.56C427.94 172.92 426.52 182.87 423.87 191.33L422.94 194.28H471.89L470.96 191.33C468.31 182.87 466.89 172.92 466.87 162.56V23.5199H491.94C508.87 23.9299 525.82 26.0299 542.33 29.7799L545.6 30.5199L540.9 0.629883H353.94H353.93Z" fill="white"/>
<path d="M625.37 186.79L625.26 186.4C624.68 184.64 624.22 182.83 623.89 181.01L622.94 169.05V27.0401L623.89 15.0801C624.22 13.2601 624.68 11.4401 625.26 9.68014L625.28 9.63014C625.87 7.68014 626.48 5.66014 627.09 3.54014L627.93 0.640137H578.78L579.62 3.54014C580.24 5.68014 580.85 7.73014 581.43 9.63014L581.45 9.68014C582.03 11.4401 582.49 13.2501 582.82 15.0801L583.77 27.0301V169.06L582.82 181.02C582.48 182.85 582.02 184.66 581.45 186.42L581.41 186.54C580.95 188.06 580.32 190.14 579.91 190.76L577.57 194.29H629.14L626.81 190.76C626.42 190.17 625.85 188.31 625.39 186.79" fill="white"/>
<path d="M358.53 171.05C354.52 163.94 350.56 156.21 346.77 148.09L324.8 97.1201L316.31 76.8301L282.92 0.120117L279.06 0.190117H243.71L254.49 26.8901L254.51 26.9501C257.75 34.3701 257.95 43.0001 255.05 50.6101L224.68 138.48L168.86 0.260117L126.73 0.190117L139.25 28.3101C142.52 35.6601 142.79 44.2501 139.99 51.8601C139.87 52.1801 139.76 52.4901 139.65 52.7801C139.53 53.1201 139.42 53.4301 139.3 53.7201C131.25 75.5301 121.67 100.06 110.85 126.6L100.44 151.47L100.39 151.61C99.6503 153.77 98.7803 155.9 97.8103 157.93L96.3603 161.17C95.2903 163.58 94.4403 165.48 93.8003 166.88L93.7703 166.95C91.6203 172.04 89.1503 176.99 86.4303 181.66C83.9903 185.75 82.2903 188.61 81.0603 190.97L79.3203 194.3H125.08L119.58 185.11C119.23 182.83 119.21 180.51 119.51 178.22C121.11 169.57 123.65 161.17 127.05 153.26L127.1 153.14C138.02 123.25 147.24 98.1601 156.73 72.9101C156.79 72.8001 156.84 72.6801 156.88 72.5601C157.67 70.4501 158.46 68.3501 159.26 66.2601C159.51 65.6001 159.76 64.9301 160.01 64.2701L207.83 194.3H230.26L272.72 67.1901C274.32 70.9201 275.91 74.5901 277.45 78.1201C280.53 85.2301 283.59 92.3501 286.65 99.4601C289.81 106.81 293.08 114.4 296.31 121.86L298.54 127.02C302.3 135.71 306.18 144.7 310.04 153.5L310.73 155.18L311.29 157.15L311.39 157.34C311.78 158.12 312.17 158.94 312.57 159.86L312.59 159.91C313.89 162.71 315.23 165.93 316.69 169.76L316.72 169.83C318.21 173.39 319.56 177.08 320.72 180.78C321.22 182.44 320.72 184.83 320.03 188.12C319.81 189.16 319.57 190.34 319.33 191.61L318.82 194.3H373.59L371.07 190.71C366.23 183.83 362.14 177.4 358.55 171.05" fill="white"/>
<path d="M44.88 14.8998C45.21 13.0898 45.67 11.2798 46.25 9.53979L46.27 9.48979C46.87 7.48979 47.46 5.52979 48.07 3.43979L48.91 0.529785H0L0.84 3.42979C1.45 5.53979 2.07 7.58979 2.64 9.48979V9.53979C3.23 11.2898 3.69 13.0998 4.02 14.9098L4.96 26.7898V167.98L4.02 179.88C3.69 181.69 3.23 183.5 2.66 185.24L2.64 185.29C2.07 187.18 1.45 189.23 0.84 191.35L0 194.25H48.89L48.05 191.35C47.59 189.77 47.15 188.26 46.64 186.59L46.68 186.55L46.24 185.22C45.66 183.47 45.21 181.67 44.87 179.86L43.93 167.97V26.7798L44.87 14.8898L44.88 14.8998Z" fill="white"/>
<path d="M852.47 169.84C842.4 153.64 834.57 135.89 827 118.73C825.42 115.14 823.8 111.5 822.23 107.99C819.43 101.75 816.65 95.5098 813.87 89.2798C812.47 86.1498 811.08 83.0198 809.68 79.8998C808.04 76.2398 806.41 72.5698 804.78 68.9098C802.24 63.1998 799.69 57.4998 797.13 51.7698C795.27 47.6598 793.39 43.4598 791.57 39.3898L790.51 37.0098C788.49 32.4598 786.4 27.7598 784.31 23.1498L774.74 0.00976562H728.25L734.55 6.65977C736.64 8.84977 736.78 9.31977 737.01 10.0998L737.06 10.2698C737.34 11.5198 737.46 12.7298 737.44 13.8498C737.35 16.1798 736.96 18.5098 736.27 20.7798L736.07 21.4498C735.9 22.0198 735.72 22.6198 735.55 23.1098C712.41 76.3898 675.28 161.73 674.06 164.15C671.54 169.27 668.66 174.21 665.49 178.82C663.17 182.18 661.28 184.87 659.74 187.06L654.85 194.06H708.46L700.06 182.62C699.76 180.72 699.76 178.77 700.06 176.81C700.28 175.99 702.26 170.39 717.49 133.31C722.9 131.88 728.36 131.04 733.73 130.81L775.09 130.79C780.57 131.04 786.09 131.9 791.53 133.34C794.46 139.42 807.39 166.38 813.39 181.68C813.53 183.79 812.77 185.88 811.29 187.44L804.95 194.1L870.31 193.98L865.15 187.59C860.52 181.87 856.27 175.9 852.5 169.84M780.62 107.41H728.25C734.02 93.4398 747.14 61.6998 753.4 46.6798L780.63 107.41H780.62Z" fill="white"/>
<path d="M150.109 297.45V248.51H160.269C167.219 248.51 172.319 249.02 175.569 250.04C178.819 251.06 181.619 252.68 183.989 254.88C186.349 257.09 188.169 259.78 189.439 262.96C190.709 266.14 191.349 269.86 191.349 274.11C191.349 278.36 190.359 282.36 188.379 286.11C186.399 289.86 183.719 292.69 180.339 294.6C176.949 296.51 172.079 297.46 165.719 297.46H150.109V297.45ZM154.809 292.82H160.469C166.379 292.82 170.659 292.52 173.319 291.94C175.979 291.35 178.309 290.18 180.299 288.43C182.299 286.68 183.819 284.56 184.869 282.06C185.919 279.56 186.439 276.7 186.439 273.47C186.439 270.24 185.829 267.27 184.629 264.54C183.429 261.81 181.709 259.56 179.479 257.79C177.249 256.02 174.629 254.82 171.609 254.21C168.589 253.6 164.149 253.29 158.279 253.29H154.799V292.83L154.809 292.82Z" fill="white"/>
<path d="M226.789 248.51H254.869V253.35H231.689V268.62H254.659V273.39H231.689V292.61H254.659V297.45H226.789V248.51Z" fill="white"/>
<path d="M285.471 248.51H290.791L307.011 287.57L323.501 248.51H328.821L307.491 298.68H306.461L285.471 248.51Z" fill="white"/>
<path d="M362.971 248.51H391.051V253.35H367.871V268.62H390.841V273.39H367.871V292.61H390.841V297.45H362.971V248.51Z" fill="white"/>
<path d="M425.33 248.51H430.31V292.75H449.12V297.45H425.33V248.51Z" fill="white"/>
<path d="M480.609 273.18C480.609 268.45 481.749 264.09 484.019 260.09C486.289 256.09 489.399 252.96 493.359 250.68C497.309 248.41 501.619 247.27 506.269 247.27C510.919 247.27 515.269 248.4 519.289 250.64C523.309 252.89 526.469 256 528.759 259.98C531.049 263.96 532.199 268.27 532.199 272.93C532.199 277.59 531.059 281.9 528.789 285.88C526.519 289.86 523.399 292.98 519.419 295.25C515.449 297.52 511.129 298.66 506.469 298.66C501.809 298.66 497.479 297.54 493.489 295.29C489.489 293.04 486.339 289.94 484.049 285.98C481.759 282.03 480.609 277.76 480.609 273.17M527.089 272.97C527.089 267.11 525.059 262.16 520.989 258.11C516.919 254.06 512.029 252.04 506.299 252.04C500.569 252.04 495.539 254.08 491.609 258.14C487.679 262.21 485.719 267.16 485.719 273C485.719 278.84 487.739 283.78 491.789 287.82C495.829 291.87 500.719 293.89 506.439 293.89C512.159 293.89 517.039 291.91 521.059 287.96C525.079 284.01 527.089 279.01 527.089 272.97Z" fill="white"/>
<path d="M567.85 248.51H577.6C583.37 248.51 587.14 248.74 588.91 249.19C590.68 249.64 592.31 250.44 593.78 251.58C595.26 252.72 596.4 254.14 597.22 255.84C598.04 257.54 598.45 259.44 598.45 261.53C598.45 264.89 597.54 267.64 595.72 269.78C593.9 271.92 591.62 273.27 588.87 273.84C586.12 274.41 581.91 274.69 576.23 274.69H572.76V297.46H567.85V248.52V248.51ZM572.76 253.28V269.98H581.01C585.96 270.07 589.26 269.27 590.89 267.56C592.53 265.86 593.34 263.85 593.34 261.53C593.34 256.03 589.36 253.28 581.41 253.28H572.75H572.76Z" fill="white"/>
<path d="M631.92 297.45L638.87 248.51H639.62L659.52 288.66L679.28 248.51H680.03L687.06 297.45H682.22L677.44 262.41L660.13 297.45H658.91L641.39 262.14L636.62 297.45H631.92Z" fill="white"/>
<path d="M722.699 248.51H750.779V253.35H727.609V268.62H750.579V273.39H727.609V292.61H750.579V297.45H722.699V248.51Z" fill="white"/>
<path d="M785.131 297.45V248.51H786.221L818.741 286V248.51H823.581V297.45H822.481L790.181 260.44V297.45H785.131Z" fill="white"/>
<path d="M856.561 253.28V248.51H883.421V253.28H872.511V297.45H867.541V253.28H856.561Z" fill="white"/>
<path d="M911.289 288.32L915.449 285.87C918.359 291.23 921.739 293.91 925.609 293.91C928.109 293.91 930.249 293.11 932.019 291.52C933.789 289.93 934.679 287.95 934.679 285.59C934.679 283.73 933.929 281.84 932.429 279.93C930.929 278.02 928.439 275.76 924.969 273.15C921.489 270.54 919.149 268.58 917.949 267.29C916.749 265.99 915.859 264.61 915.289 263.13C914.719 261.66 914.439 260.17 914.439 258.67C914.439 255.49 915.559 252.8 917.809 250.59C920.059 248.39 922.889 247.28 926.289 247.28C928.969 247.28 931.309 247.95 933.309 249.29C935.309 250.63 937.239 252.62 939.099 255.25L935.149 258.32C933.879 256.59 932.559 255.16 931.199 254.03C929.839 252.89 928.169 252.32 926.189 252.32C924.209 252.32 922.599 252.91 921.349 254.09C920.099 255.27 919.479 256.77 919.479 258.59C919.479 260.41 920.039 261.99 921.149 263.33C922.259 264.67 924.789 266.79 928.719 269.7C932.649 272.61 935.509 275.29 937.309 277.74C939.109 280.2 939.999 282.78 939.999 285.51C939.999 289.06 938.619 292.13 935.879 294.75C933.129 297.36 929.939 298.67 926.299 298.67C919.889 298.67 914.889 295.22 911.309 288.31" fill="white"/>
<path d="M1029.7 171.43L976.25 172.17L961.06 172.31L965.16 166.99L1091.66 0.609863H908.94L901.73 30.6899L905.28 29.9099C923.93 25.8099 943.08 23.6399 962.17 23.4699H1027.62L932.83 145.56L894.82 194.29H1025.01H1030.2H1082.93L1090.14 164.21L1086.59 164.99C1067.94 169.09 1048.79 171.26 1029.7 171.43Z" fill="white"/>
</g>
<defs>
<clipPath id="clip0_1717_232">
<rect width="1091.66" height="298.68" fill="white"/>
</clipPath>
</defs>
</svg>
