<svg width="16" height="22" viewBox="0 0 16 22" fill="none" xmlns="http://www.w3.org/2000/svg">
<path d="M9.27461 22V20.0535C11.2641 19.9504 12.7766 19.409 13.9453 18.4293C15.1141 17.4496 15.6984 16.1477 15.6984 14.6395C15.6984 13.0152 15.2258 11.8164 14.1816 11.0559C13.1246 10.1922 11.6121 9.53477 9.38633 9.10938H9.27461V4.11641C10.7914 4.33555 12.0805 4.76094 13.3609 5.6375L15.2344 3.25273C13.3609 2.05391 11.3715 1.40937 9.27031 1.30625V0H7.51719V1.30195C5.76406 1.40508 4.23867 1.94648 3.06992 2.92617C1.90117 3.90586 1.3168 5.20781 1.3168 6.71601C1.3168 8.22422 1.78945 9.42305 2.83359 10.1836C3.76602 10.9441 5.40313 11.5887 7.5043 12.027V17.1188C5.86289 16.8996 4.22578 16.1391 2.59727 14.8371L0.496094 17.1188C2.59727 18.859 4.94336 19.8258 7.51289 20.0449V22H9.27461ZM9.38633 12.5641C10.5551 12.8863 11.2598 13.2086 11.7238 13.5438C12.0719 13.982 12.3082 14.4074 12.3082 15.0648C12.3082 15.7223 12.0719 16.1477 11.4875 16.5859C10.9031 17.0242 10.1941 17.2305 9.38633 17.3465V12.5641ZM5.3 7.90625C4.95195 7.58398 4.71563 7.04258 4.71563 6.50117C4.71563 5.85664 4.95195 5.41836 5.41172 4.98008C5.99609 4.5418 6.58047 4.33555 7.51289 4.21953V8.88594C6.34414 8.55078 5.64805 8.22852 5.3 7.90625Z" fill="#8B2E47"/>
</svg>
