<svg width="22" height="20" viewBox="0 0 22 20" fill="none" xmlns="http://www.w3.org/2000/svg">
<path d="M17 7.00002H15H17ZM15 7.00002H13H15ZM15 7.00002V5V7.00002ZM15 7.00002V9V7.00002Z" fill="#8C2E47"/>
<path d="M17 7.00002H15M15 7.00002H13M15 7.00002V5M15 7.00002V9" stroke="#8C2E47" stroke-linecap="round"/>
<path d="M11 2.75285C13.1139 0.875413 15.5201 0.302668 17.5658 1.09748C19.7741 1.95545 21.1738 4.25732 21.247 7.27478H21.25V7.52478V7.77478H21.2446C21.1601 9.72609 20.102 11.6123 18.8359 13.2146C17.5594 14.83 15.973 16.2795 14.6184 17.3848L14.619 17.3855L14.4227 17.5435C14.3723 17.5841 14.3223 17.6245 14.2728 17.6644C13.2515 18.4887 12.4227 19.1576 11.25 19.2412V19.25H11H10.75V19.2412C9.57724 19.1576 8.74837 18.4886 7.72712 17.6643C7.67765 17.6244 7.62773 17.5841 7.57729 17.5435C7.57634 17.5427 7.57539 17.5419 7.57444 17.5412L7.38108 17.3855L7.38159 17.3849C6.59906 16.7463 5.74286 15.9958 4.9149 15.1675L4.9141 15.1683L4.74394 14.9949C4.74293 14.9939 4.74191 14.9928 4.74089 14.9918C4.74071 14.9916 4.74053 14.9914 4.74035 14.9913C4.7403 14.9912 4.74025 14.9912 4.7402 14.9911L4.56385 14.8114L4.58825 14.7878C4.38718 14.4253 4.44503 13.96 4.75815 13.6575C5.07117 13.355 5.54059 13.3107 5.89947 13.521L5.92313 13.4982L6.09688 13.6752C6.98187 14.577 7.92043 15.3947 8.7674 16.0768C8.7683 16.0776 8.7692 16.0783 8.7701 16.079C10.0872 17.1395 10.4333 17.3655 11 17.3655C11.5663 17.3655 11.9123 17.1398 13.2275 16.081C13.2283 16.0803 13.2291 16.0797 13.2299 16.079C14.5716 14.9987 16.1303 13.5882 17.3455 12.0503L17.5417 12.2052L17.3455 12.0502C18.5792 10.4891 19.3547 8.92707 19.3547 7.52478C19.3547 4.91582 18.2127 3.37207 16.876 2.85273C15.5433 2.33493 13.6102 2.67879 11.6931 4.71226C11.6926 4.71281 11.6921 4.71335 11.6915 4.7139C11.6915 4.71393 11.6915 4.71397 11.6914 4.714L11.5214 4.89445L11.4971 4.87189C11.3489 4.96267 11.1771 5.01192 11 5.01192C10.8229 5.01192 10.6511 4.96267 10.5029 4.87189L10.4786 4.89445L10.3088 4.71429C10.3087 4.71416 10.3086 4.71403 10.3085 4.7139C8.39085 2.67898 6.45711 2.33481 5.12404 2.85273C3.78732 3.37208 2.64535 4.91584 2.64535 7.52481C2.64535 8.51178 3.02948 9.58831 3.71124 10.7068C3.71125 10.7068 3.71126 10.7068 3.71127 10.7068L3.84226 10.9217L3.81311 10.9392C3.92653 11.3379 3.76368 11.7779 3.3905 12.0018L3.39045 12.0019C3.01736 12.2257 2.54995 12.1641 2.2479 11.8784L2.21956 11.8954L2.09053 11.6838C2.09047 11.6837 2.0904 11.6836 2.09034 11.6835L11 2.75285ZM11 2.75285C8.8861 0.875413 6.47992 0.302668 4.43421 1.09748C2.22589 1.95546 0.826206 4.25733 0.753018 7.27481H0.75V7.52481V7.77481H0.755434C0.811251 9.06415 1.29199 10.318 1.96144 11.4672L1.95933 11.4685L2.08874 11.6808C2.08927 11.6817 2.0898 11.6826 2.09032 11.6834L11 2.75285Z" fill="#8C2E47" stroke="#8C2E47" stroke-width="0.5"/>
</svg>
