<svg width="12" height="12" viewBox="0 0 12 12" fill="none" xmlns="http://www.w3.org/2000/svg">
<g id="Page-1">
<g id="Dribbble-Light-Preview">
<g id="icons">
<path id="call-[#186]" fill-rule="evenodd" clip-rule="evenodd" d="M11.8489 10.2012C11.8425 10.2196 11.8313 10.2542 11.8185 10.2934C11.8329 10.2494 11.8441 10.2164 11.8489 10.2012ZM11.7849 10.3949C11.7969 10.3589 11.8081 10.3246 11.8185 10.2934C11.8089 10.3222 11.7993 10.3525 11.7841 10.3973C11.7497 10.5029 11.7305 10.5595 11.7217 10.5875C11.7337 10.5515 11.7585 10.4757 11.7841 10.3973C11.4129 11.5229 9.9625 12.0835 8.92571 11.9899C7.50971 11.8627 5.96892 11.1116 4.79932 10.2844C3.08013 9.06835 1.47054 7.18653 0.531341 5.19045C-0.131858 3.78 -0.280662 2.04664 0.706536 0.760991C1.07133 0.284974 1.46494 0.0311706 2.05853 0.00236956C2.88013 -0.0376319 2.99612 0.432067 3.27772 1.16569C3.48812 1.71291 3.76892 2.27195 3.92572 2.83997C4.21932 3.90081 3.19372 3.9443 3.06412 4.81153C2.98252 5.35795 3.64493 6.09073 3.94493 6.48034C4.53053 7.24277 5.23532 7.90186 6.03052 8.40268C6.48572 8.68909 7.22171 9.20667 7.74331 8.92106C8.54571 8.48184 8.46972 7.12666 9.59372 7.58507C10.1753 7.82268 10.7377 8.16363 11.2937 8.46284C12.1513 8.92446 12.1113 9.40291 11.7849 10.3949Z" fill="#EBEBEB"/>
</g>
</g>
</g>
</svg>
