<svg width="26" height="33" viewBox="0 0 26 33" fill="none" xmlns="http://www.w3.org/2000/svg">
<path d="M20.1223 21.3575C20.8937 21.3575 21.6651 21.3487 22.4365 21.3615C22.7983 21.3675 23.0511 21.6197 23.074 21.9434C23.0958 22.2542 22.8569 22.5288 22.5051 22.5931C22.4387 22.6052 22.3701 22.6116 22.3026 22.6116C20.828 22.6127 19.353 22.6169 17.8784 22.6098C17.3992 22.6073 17.1192 22.3505 17.1292 21.9625C17.1388 21.5878 17.4117 21.359 17.8766 21.3558C18.6252 21.3504 19.3741 21.3543 20.1227 21.3543C20.1227 21.3554 20.1227 21.3568 20.1227 21.3579L20.1223 21.3575Z" fill="#2B2929"/>
<path d="M20.085 26.7038C20.8336 26.7038 21.5821 26.7003 22.3307 26.7052C22.7828 26.7081 23.0717 26.9525 23.0764 27.3202C23.0814 27.6875 22.7939 27.9508 22.3414 27.9529C20.8443 27.96 19.3468 27.9604 17.8497 27.9529C17.394 27.9508 17.1219 27.6932 17.129 27.3142C17.1362 26.9386 17.4112 26.7077 17.873 26.7049C18.6101 26.7003 19.3476 26.7038 20.0847 26.7038H20.085Z" fill="#2B2929"/>
<rect x="0.5" y="0.5" width="25" height="32" rx="1.5" stroke="#2B2929"/>
<path d="M12.9848 12.9995C9.97725 12.9995 6.97005 12.9995 3.96249 12.9995C3.17593 12.9995 3.00027 12.8417 3.00027 12.1377C2.99991 9.7049 2.99991 7.27211 3.00027 4.83932C3.00062 4.17134 3.18837 4 3.92159 4C9.9705 4 16.019 4 22.0679 4C22.8037 4 22.9992 4.17487 22.9996 4.8329C22.9999 7.28626 23.0003 9.7393 22.9996 12.1927C22.9996 12.8137 22.7969 12.9989 22.1088 12.9992C19.0675 13.0005 16.0262 12.9998 12.9848 12.9998V12.9995ZM21.7216 5.1431C21.5847 5.13667 21.4848 5.12799 21.3849 5.12799C15.7897 5.12735 10.1942 5.1296 4.59899 5.12189C4.30385 5.12156 4.24589 5.21447 4.24696 5.45717C4.25585 7.48074 4.25194 9.50399 4.25265 11.5276C4.25265 11.6269 4.26189 11.7262 4.26758 11.84H21.7216V5.1431Z" fill="#2B2929"/>
<path d="M16 22.0241C16 24.074 16 26.1237 16 28.1737C16 28.8398 15.8123 29 15.034 29C11.3363 29 7.63831 29 3.94066 29C3.20735 29 3.00061 28.8274 3.00061 28.2101C2.99987 24.0706 2.99987 19.9314 3.00024 15.7919C3.00024 15.1681 3.19747 15.0005 3.93261 15.0005C7.64197 14.9998 11.3513 14.9998 15.0607 15.0005C15.8181 15.0005 15.9993 15.1588 15.9996 15.815C16.0004 17.8846 15.9996 19.9542 15.9996 22.0238L16 22.0241ZM14.6915 27.8848C14.6999 27.7807 14.7131 27.6947 14.7131 27.6084C14.7141 23.8731 14.7109 20.1374 14.7204 16.402C14.7211 16.144 14.6172 16.0917 14.3391 16.0923C11.116 16.0995 7.89335 16.1004 4.67031 16.091C4.36074 16.0901 4.2806 16.1655 4.28133 16.4257C4.29085 20.1414 4.28756 23.8572 4.28865 27.5726C4.28865 27.6764 4.30146 27.7804 4.30841 27.8848H14.6911H14.6915Z" fill="#2B2929"/>
<path d="M20.12 16.0045C20.8686 16.0045 21.6175 15.9921 22.3657 16.0084C22.9403 16.0212 23.2582 16.5172 22.9728 16.9421C22.8925 17.0618 22.7432 17.157 22.605 17.2117C22.4739 17.2636 22.3157 17.2586 22.1696 17.2589C20.7857 17.2618 19.4022 17.2614 18.0183 17.2593C17.8944 17.2593 17.7683 17.2529 17.6469 17.2295C17.3176 17.1662 17.123 16.9296 17.129 16.6173C17.1351 16.3047 17.3373 16.0784 17.6715 16.0234C17.7826 16.0052 17.8972 16.0038 18.0101 16.0038C18.7133 16.002 19.4165 16.0031 20.1197 16.0031V16.0042L20.12 16.0045Z" fill="#2B2929"/>
<path d="M20.1263 18.6875C20.8974 18.6875 21.6684 18.6843 22.4398 18.6889C22.7302 18.6907 22.9766 18.8257 23.0202 19.1099C23.0505 19.3063 22.9895 19.5571 22.8777 19.722C22.7955 19.8431 22.5655 19.9199 22.4006 19.9213C20.8699 19.9362 19.3385 19.9376 17.8078 19.9263C17.3775 19.9231 17.1178 19.6502 17.1293 19.2836C17.1403 18.9276 17.3921 18.6924 17.8132 18.6864C18.5842 18.6757 19.3556 18.6832 20.1267 18.6832C20.1267 18.6843 20.1267 18.6857 20.1267 18.6868L20.1263 18.6875Z" fill="#2B2929"/>
<path d="M20.1281 24.0373C20.8992 24.0373 21.6706 24.0344 22.4416 24.0387C22.7163 24.0401 22.9602 24.1609 23.0106 24.4291C23.0477 24.6259 23.0059 24.8835 22.8977 25.0469C22.8113 25.1773 22.5716 25.2689 22.3991 25.2707C20.8685 25.2878 19.3371 25.2874 17.8064 25.2767C17.3786 25.2739 17.1175 25 17.1293 24.6316C17.1407 24.276 17.3939 24.0419 17.815 24.0362C18.586 24.0262 19.3574 24.0333 20.1285 24.0333C20.1285 24.0344 20.1285 24.0358 20.1285 24.0369L20.1281 24.0373Z" fill="#2B2929"/>
</svg>
