<svg width="28" height="32" viewBox="0 0 28 32" fill="none" xmlns="http://www.w3.org/2000/svg">
<g clip-path="url(#clip0_264_12069)">
<path d="M-1.74859e-07 27.9997C-1.84878e-07 27.7705 -1.94896e-07 27.5413 -2.04915e-07 27.3121C0.17664 27.0572 0.419677 26.989 0.724726 26.994C1.70376 27.0096 2.6828 26.9996 3.66184 26.9996C3.77083 26.9996 3.87982 26.9996 3.99946 26.9996L3.99946 26.545C3.99946 17.9306 3.99946 9.31569 3.99946 0.70137C3.99946 0.171587 4.15418 -1.81585e-07 4.64151 -2.02887e-07C12.2145 -0.000626144 19.7869 -0.000626475 27.3598 -1.19594e-06C27.8277 -1.21639e-06 27.9975 0.172211 27.9981 0.642504C28 1.54865 27.9981 2.45479 27.9981 3.36094C27.9981 11.3816 27.9994 19.4023 27.9969 27.4229C27.9962 29.5358 26.6602 31.3011 24.6626 31.8441C24.4453 31.9048 24.221 31.9486 23.9993 32C17.3327 32 10.6661 32 3.99946 32C3.91991 31.9793 3.84161 31.9549 3.76144 31.9386C1.89481 31.561 0.696539 30.4507 0.144695 28.6347C0.0820562 28.4274 0.047605 28.2114 -1.74859e-07 27.9997ZM26.9997 1.022L5.01483 1.022L5.01483 27.0002C5.34932 27.0002 5.6694 27.0002 5.98949 27.0002C8.4374 27.0002 10.8853 27.0002 13.3326 27.0002C13.7592 27.0002 13.9903 27.1724 13.9972 27.4899C14.0041 27.8181 13.7654 27.9978 13.3219 27.9997C13.2493 27.9997 13.176 27.9997 13.1033 27.9997C9.21787 27.9997 5.33304 27.9997 1.44757 27.9997L1.04606 27.9997C1.06799 28.1281 1.07926 28.2289 1.10369 28.3266C1.49831 29.9216 2.87636 30.9968 4.55569 30.998C9.82609 31.0024 15.0965 30.9999 20.3669 30.9987C20.4427 30.9987 20.5191 30.9843 20.5398 30.9824C20.2103 30.5371 19.8238 30.1176 19.562 29.6316C19.2958 29.1369 19.153 28.5758 18.9394 27.9997C18.9105 27.9997 18.8185 27.9997 18.727 27.9997C17.6853 27.9997 16.6437 28.0097 15.6026 27.9897C15.4291 27.9865 15.208 27.8895 15.1015 27.7605C15.0157 27.6565 15.0013 27.3854 15.0796 27.2827C15.1867 27.1418 15.4103 27.0159 15.5857 27.0121C16.8147 26.9896 18.0436 26.9996 19.2726 27.0002C19.8501 27.0002 19.976 27.123 20.0067 27.711C20.1176 29.8527 22.2116 31.4126 24.2949 30.9054C25.9455 30.5033 26.999 29.1238 26.999 27.3534C27.0003 18.6871 26.999 10.0208 26.999 1.35452C26.999 1.25119 26.999 1.14787 26.999 1.022L26.9997 1.022Z" fill="black"/>
<path d="M19.0003 8.01504L15.0002 8.01504L15.0002 8.39641C15.0002 12.6773 15.0002 16.9588 15.0002 21.2396C15.0002 21.3542 15.0115 21.4719 14.9883 21.5822C14.9351 21.8352 14.7722 21.9898 14.5104 21.9936C14.2335 21.9973 14.0638 21.8395 14.0106 21.5715C13.9905 21.4707 14.0012 21.3642 14.0012 21.2597C14.0012 19.3015 14.0012 17.3433 14.0012 15.3851L14.0012 14.9999C13.8139 14.9999 13.641 14.9999 13.4687 14.9999C12.8336 14.9999 12.1978 15.0037 11.5626 14.998C11.2194 14.9949 11.0027 14.7933 11.0039 14.4989C11.0045 14.2053 11.2219 14.0036 11.5652 14.0017C12.365 13.9967 13.1649 13.9998 14.0012 13.9998L14.0012 13.6435C14.0012 11.6647 14.0012 9.68517 14.0012 7.70631C14.0012 7.15085 14.1502 6.99993 14.7008 6.99993C17.8985 6.99993 21.0962 6.99993 24.2939 6.99993C24.8489 6.99993 25.0005 7.15022 25.0005 7.70067C25.0005 11.7317 25.0005 15.7627 25.0005 19.7937C25.0005 19.8456 25.0017 19.8976 25.0005 19.9496C24.9867 20.2871 24.7825 20.5051 24.4881 20.4969C24.2056 20.4894 24.007 20.279 24.0033 19.9552C23.9964 19.3202 24.0014 18.6852 24.0014 18.0246L19.001 18.0246C19.001 18.4911 19.006 18.9658 18.9991 19.4405C18.9947 19.7818 18.7911 19.9991 18.4967 19.9966C18.2236 19.9941 18.0069 19.7937 18.0056 19.495C17.9981 18.1617 17.9981 16.8285 18.0063 15.4953C18.0081 15.1997 18.233 14.9993 18.5055 15.0018C18.7773 15.0043 18.9834 15.2066 18.9978 15.5047C19.0097 15.7539 19.001 16.0044 19.0016 16.2543C19.0016 16.4916 19.0016 16.7289 19.0016 16.9819L23.9776 16.9819L23.9776 8.01879L20.0176 8.01879L20.0176 11.9984C20.1147 11.9984 20.2136 11.9984 20.3126 11.9984C21.021 11.9984 21.7289 11.9947 22.4373 12.0003C22.7806 12.0028 22.9985 12.2045 22.9985 12.4982C22.9985 12.7912 22.7806 12.9954 22.4386 12.9966C21.4802 13.0016 20.5218 13.0016 19.5641 12.9966C19.1839 12.9948 19.0035 12.8019 19.0022 12.4055C18.9991 11.0616 19.001 9.71836 19.001 8.37449C19.001 8.26177 19.001 8.14905 19.001 8.01441L19.0003 8.01504Z" fill="black"/>
<path d="M8.00723 14.9999L8.00723 23.9743L23.9994 23.9743C23.9994 23.8741 23.9994 23.7645 23.9994 23.655C23.9994 23.1026 23.9925 22.5509 24.0038 21.9992C24.0095 21.7155 24.2099 21.5195 24.4699 21.5039C24.7267 21.4882 24.9829 21.6742 24.9879 21.941C25.0035 22.8152 25.0035 23.6906 24.9866 24.5649C24.9816 24.8066 24.8012 24.955 24.5588 24.9926C24.4567 25.0082 24.3508 25.0001 24.2469 25.0001C18.7478 25.0001 13.2482 25.0001 7.74916 25.0001C7.13342 25.0001 7.00063 24.8667 7 24.2492C7 21.0724 7 17.8956 7 14.7188C7 14.1451 7.14469 14.0005 7.71846 13.9998C8.28096 13.9998 8.84345 13.9967 9.40594 14.0011C9.77238 14.0036 9.99787 14.199 9.99725 14.5008C9.99725 14.8033 9.77238 14.9962 9.40469 14.9987C8.94868 15.0024 8.49205 14.9993 8.00723 14.9993L8.00723 14.9999Z" fill="black"/>
<path d="M23.9994 4.01283L7.99901 4.01283C7.99901 4.38293 7.99901 4.75303 7.99901 5.12312C7.99901 5.24774 8.00528 5.37361 7.99651 5.49761C7.97584 5.79506 7.77289 5.99545 7.50104 5.99671C7.22794 5.99796 7.00933 5.79819 7.00432 5.50136C6.99304 4.83506 6.99367 4.16876 7.00432 3.50246C7.0087 3.20438 7.20037 3.02528 7.49665 3.00148C7.57934 2.99459 7.66327 2.99898 7.74658 2.99898C13.2437 2.99898 18.7403 2.99898 24.2374 2.99898C24.8719 2.99898 25.0003 3.1286 25.0003 3.76798C25.0003 4.30903 25.0028 4.85072 24.9997 5.39177C24.9978 5.76688 24.8168 5.98794 24.5143 5.99671C24.2011 6.00547 24.0044 5.77565 24.0013 5.38864C23.9981 4.94152 24.0006 4.4944 24.0006 4.0122L23.9994 4.01283Z" fill="black"/>
</g>
<defs>
<clipPath id="clip0_264_12069">
<rect width="32" height="28" fill="white" transform="translate(0 32) rotate(-90)"/>
</clipPath>
</defs>
</svg>
