<svg width="22" height="22" viewBox="0 0 22 22" fill="none" xmlns="http://www.w3.org/2000/svg">
<path d="M17.9234 2.74734C17.6924 2.75809 17.4749 2.82523 17.2815 2.90042H17.2788C17.0828 2.9783 16.1509 3.37039 14.7356 3.9639C13.3203 4.56009 11.4834 5.33353 9.65994 6.10159C6.01834 7.63504 2.4385 9.14432 2.4385 9.14432L2.48147 9.1282C2.48147 9.1282 2.2344 9.20877 1.97659 9.38602C1.845 9.47195 1.69998 9.59012 1.57376 9.77542C1.44754 9.96072 1.34549 10.2454 1.38308 10.5381C1.44485 11.0349 1.76712 11.333 1.99807 11.4969C2.23172 11.6634 2.45462 11.7412 2.45462 11.7412H2.45999L5.81692 12.8719C5.96731 13.3553 6.84012 16.2234 7.04959 16.8841C7.17312 17.2788 7.29397 17.5259 7.44436 17.7139C7.51687 17.8106 7.60281 17.8911 7.70486 17.9556C7.74514 17.9798 7.78811 17.9986 7.83108 18.0147C7.84451 18.0227 7.85794 18.0254 7.87405 18.0281L7.83914 18.0201C7.84988 18.0227 7.85794 18.0308 7.86599 18.0335C7.89285 18.0415 7.91165 18.0442 7.94656 18.0496C8.4783 18.2107 8.9053 17.8804 8.9053 17.8804L8.92947 17.8616L10.9114 16.0569L14.2334 18.6055L14.3086 18.6377C15.0015 18.9412 15.7024 18.772 16.073 18.4739C16.4463 18.1731 16.5913 17.7891 16.5913 17.7891L16.6155 17.7273L19.1829 4.5762C19.2554 4.25125 19.2742 3.94778 19.1936 3.65237C19.1131 3.35696 18.9063 3.08035 18.6565 2.93265C18.4041 2.78226 18.1543 2.7366 17.9234 2.74734ZM17.8535 4.15726C17.8509 4.20023 17.8589 4.19485 17.8401 4.27811V4.28616L15.2969 17.3003C15.2862 17.3191 15.2674 17.3594 15.2163 17.3997C15.1626 17.4427 15.1197 17.4695 14.8968 17.3809L10.8335 14.2657L8.37893 16.5027L8.89456 13.2102C8.89456 13.2102 15.2593 7.27786 15.5332 7.02274C15.8072 6.76761 15.7158 6.7139 15.7158 6.7139C15.7346 6.40237 15.3023 6.62259 15.3023 6.62259L6.93142 11.8084L6.92874 11.795L2.91653 10.4441V10.4414C2.91384 10.4414 2.90847 10.4388 2.90579 10.4388C2.90847 10.4388 2.92727 10.4307 2.92727 10.4307L2.94876 10.42L2.97024 10.4119C2.97024 10.4119 6.55276 8.90262 10.1944 7.36917C12.0178 6.6011 13.8548 5.82767 15.2674 5.23148C16.68 4.63797 17.7246 4.20291 17.7837 4.17874C17.8401 4.15726 17.8133 4.15726 17.8535 4.15726Z" fill="white"/>
</svg>
