<svg width="20" height="20" viewBox="0 0 20 20" fill="none" xmlns="http://www.w3.org/2000/svg">
<path d="M1.48592 19L2.39896 14.7745C1.22544 12.9295 0.76764 10.7211 1.11147 8.56359C1.45529 6.40608 2.57711 4.44776 4.26644 3.05605C5.95578 1.66434 8.09653 0.934894 10.287 1.00457C12.4776 1.07424 14.5673 1.93824 16.1642 3.43448C17.7611 4.93071 18.7553 6.95633 18.9605 9.13131C19.1656 11.3063 18.5675 13.4811 17.2783 15.2478C15.9892 17.0145 14.0976 18.2516 11.9585 18.727C9.81941 19.2023 7.57978 18.8834 5.65982 17.8299L1.48592 19Z" stroke="white"/>
<path d="M13.4601 11.2282C13.2704 11.0976 13.0808 11.0324 12.8912 11.2935L12.1326 12.3381C11.9429 12.4687 11.8165 12.534 11.5636 12.4034C10.6154 11.8811 9.28787 11.2935 8.14999 9.33486C8.08678 9.07371 8.21321 8.94314 8.33964 8.81256L8.90858 7.89852C9.03501 7.76795 8.97179 7.63737 8.90858 7.5068L8.14999 5.61344C7.96035 5.09113 7.7707 5.15642 7.58105 5.15642H7.07533C6.9489 5.15642 6.69604 5.22171 6.44318 5.48286C5.05244 6.9192 5.62138 8.94314 6.63282 10.2489C6.82247 10.5101 8.08678 12.8604 10.805 14.1009C12.8279 15.0149 13.2704 14.8844 13.8394 14.7538C14.5348 14.6885 15.2301 14.1009 15.5462 13.5133C15.6094 13.3174 15.9255 12.4687 15.6726 12.3381" fill="white"/>
</svg>
