<svg width="26" height="26" viewBox="0 0 26 26" fill="none" xmlns="http://www.w3.org/2000/svg">
<rect width="26" height="26" fill="#2C2C2C"/>
<g id="About-Us" clip-path="url(#clip0_0_1)">
<rect width="1440" height="4141" transform="translate(-81 -2601)" fill="white"/>
<rect id="Rectangle 2496" x="-81" y="-188" width="1440" height="450" fill="url(#paint0_linear_0_1)"/>
<g id="Group 50364">
<rect id="Rectangle 2570" x="-41" y="-42" width="420" height="230" rx="9" fill="#A63855"/>
<g id="Group 50285">
<rect id="Rectangle 2498" x="-7" y="-7" width="40" height="40" rx="8" fill="white"/>
<g id="Layer_1" clip-path="url(#clip1_0_1)">
<path id="Vector" d="M13.0108 0.00265564C13.5848 0.00265564 14.1588 0.00398345 14.7328 0C14.8178 0 14.8377 0.0318676 14.8377 0.104898C14.8351 0.29212 14.8351 0.479342 14.8351 0.667892C14.8351 1.43404 14.8404 2.20152 14.8364 2.96767C14.8364 3.07655 14.8842 3.10842 14.9786 3.12701C16.0215 3.32353 17.0007 3.69797 17.9255 4.21582C18.146 4.33931 18.3612 4.47607 18.5698 4.61948C18.6788 4.69384 18.7399 4.68454 18.8342 4.58894C19.4906 3.91972 20.1562 3.25847 20.8139 2.59057C20.9043 2.49895 20.9468 2.57198 20.9986 2.62377C21.4556 3.08718 21.91 3.55324 22.3671 4.01665C22.7006 4.35391 23.034 4.69251 23.3768 5.01915C23.4738 5.1121 23.4579 5.15724 23.3742 5.23824C22.7218 5.88091 22.0748 6.52888 21.4198 7.16889C21.3188 7.26848 21.3188 7.33221 21.3945 7.44508C22.1346 8.54716 22.6195 9.75681 22.8813 11.0567C22.9105 11.2001 23.0061 11.1749 23.0925 11.1749C23.6771 11.1749 24.263 11.1723 24.8476 11.1709C25.1838 11.1709 25.5212 11.1749 25.8574 11.1696C25.969 11.1683 25.9982 11.2094 25.9982 11.3157C25.9956 12.4403 25.9956 13.5663 25.9982 14.691C25.9982 14.8052 25.9624 14.8437 25.8454 14.8423C24.9353 14.837 24.0239 14.8397 23.1138 14.8317C22.9583 14.8304 22.8999 14.8742 22.8666 15.0349C22.5943 16.3189 22.1346 17.5259 21.3693 18.6041C21.2975 18.7063 21.3547 18.7501 21.4144 18.8085C22.0495 19.4446 22.6859 20.0806 23.321 20.7179C23.4924 20.8892 23.4871 20.8852 23.321 21.0499C22.5464 21.82 21.7718 22.5902 21.0039 23.3656C20.9069 23.4639 20.8604 23.4479 20.774 23.3603C20.1429 22.7203 19.5039 22.0869 18.8728 21.4456C18.7638 21.3354 18.6894 21.3208 18.5539 21.4111C17.4724 22.1307 16.2939 22.622 15.0184 22.869C14.8762 22.8969 14.8324 22.954 14.8337 23.0947C14.8417 23.9884 14.8404 24.882 14.843 25.7756C14.843 25.9987 14.843 26 14.6118 26C13.6127 25.9987 12.6136 25.996 11.6158 25.9934C11.5215 25.9934 11.4284 25.9907 11.3341 25.9987C11.2106 26.008 11.1601 25.9708 11.1601 25.8327C11.1667 24.9112 11.1627 23.991 11.168 23.0695C11.168 22.9487 11.1401 22.8956 11.0152 22.873C9.77164 22.6486 8.63965 22.1467 7.57674 21.4775C7.30039 21.3035 7.30437 21.3101 7.07452 21.5306C6.43545 22.1387 5.81365 22.7628 5.19583 23.3935C5.12542 23.4652 5.09353 23.4519 5.02843 23.3869C4.22859 22.5795 3.43673 21.7629 2.60766 20.9862C2.52528 20.9091 2.52794 20.876 2.605 20.8003C3.264 20.1483 3.91636 19.491 4.57802 18.8404C4.68033 18.7395 4.69228 18.6744 4.60991 18.5509C3.87916 17.4515 3.39421 16.2459 3.11653 14.9579C3.09394 14.8543 3.05009 14.8291 2.94779 14.8304C2.05362 14.837 1.15945 14.837 0.26661 14.8384C0.22808 14.8384 0.189549 14.8317 0.151019 14.8344C0.0340995 14.8423 0.00619819 14.7866 0.00752682 14.675C0.0115127 13.8093 0.00752682 12.9436 0.00752682 12.0778C0.00752682 11.8348 0.0101841 11.5919 0.00221229 11.3502C-0.0017736 11.2174 0.039414 11.1656 0.181578 11.1669C1.08638 11.1736 1.99117 11.1696 2.8973 11.1749C3.03814 11.1749 3.10191 11.147 3.1338 10.985C3.39288 9.69573 3.88049 8.49936 4.63249 7.41586C4.70025 7.3176 4.69228 7.27246 4.60725 7.18748C3.93895 6.53021 3.27862 5.86232 2.61165 5.20372C2.51731 5.11077 2.57179 5.07094 2.63423 5.00853C3.37295 4.27292 4.10901 3.53332 4.84906 2.79904C4.93675 2.7114 5.0085 2.5441 5.12143 2.55871C5.22241 2.57198 5.30877 2.71539 5.39779 2.80435C5.99301 3.40187 6.58957 3.99939 7.18081 4.60222C7.2685 4.69118 7.32696 4.69516 7.42926 4.62745C8.53203 3.90246 9.72248 3.38594 11.0219 3.12967C11.1388 3.10709 11.1707 3.05531 11.1707 2.94112C11.1654 2.02492 11.1707 1.11006 11.164 0.193861C11.164 0.0451458 11.1999 -0.00132782 11.3607 0.00132782C11.9121 0.014606 12.4648 0.00663909 13.0162 0.00663909V0.00265564H13.0108ZM13.0108 5.23691C8.62902 5.21301 5.25695 8.80609 5.22772 12.9529C5.19849 17.1713 8.55727 20.7272 12.9019 20.7697C17.3209 20.8122 20.5973 17.3971 20.7727 13.3273C20.9601 8.97207 17.4365 5.20239 13.0108 5.23691Z" fill="#8C2E47"/>
<path id="Vector_2" d="M6.80078 13.0551C6.79813 10.2003 8.65024 7.92438 11.1029 7.09981C11.6689 6.90993 12.2588 6.82097 12.858 6.80105C12.9829 6.79707 13.0241 6.8369 13.0188 6.96039C13.0108 7.14761 13.0095 7.33616 13.0188 7.52205C13.0241 7.63625 12.9896 7.67343 12.8726 7.67475C11.9665 7.6867 11.1135 7.92438 10.3336 8.37584C9.14449 9.06498 8.33934 10.0834 7.91949 11.39C7.16749 13.7283 8.05368 16.5671 10.6605 17.7901C12.676 18.7355 14.6477 18.5429 16.4148 17.1142C17.3554 16.3534 17.9693 15.3655 18.227 14.1731C18.2988 13.8385 18.332 13.4972 18.3373 13.156C18.3386 13.0391 18.3625 12.986 18.4941 12.9953C18.6814 13.0086 18.8687 13.0086 19.0561 12.9993C19.1836 12.994 19.2169 13.0418 19.2129 13.1626C19.1863 13.9593 19.0255 14.7241 18.6987 15.4518C17.8271 17.3931 16.3377 18.5961 14.277 19.0661C12.8022 19.4034 11.3859 19.175 10.0533 18.4487C8.40046 17.5497 7.39601 16.1595 6.94295 14.351C6.83666 13.9261 6.81141 13.4919 6.80078 13.0551Z" fill="#8C2E47"/>
<path id="Vector_3" d="M16.5508 11.989C15.7616 11.989 14.9724 11.9863 14.1845 11.9916C14.0463 11.9916 14.0078 11.9531 14.0091 11.815C14.0131 10.2548 14.0145 8.69465 14.0078 7.13446C14.0078 6.97247 14.0649 6.94458 14.2058 6.94326C16.2333 6.91139 17.9818 8.09049 18.7484 10.0052C18.9822 10.5868 19.0686 11.1923 19.0779 11.8137C19.0792 11.9491 19.042 11.9929 18.9025 11.9916C18.1186 11.985 17.336 11.989 16.5521 11.989C16.5521 11.989 16.5521 11.989 16.5521 11.9903L16.5508 11.989Z" fill="#8C2E47"/>
</g>
</g>
</g>
</g>
<defs>
<linearGradient id="paint0_linear_0_1" x1="639" y1="-188" x2="639" y2="262" gradientUnits="userSpaceOnUse">
<stop stop-color="#8C2E47"/>
<stop offset="1" stop-color="#7E2A41"/>
</linearGradient>
<clipPath id="clip0_0_1">
<rect width="1440" height="4141" fill="white" transform="translate(-81 -2601)"/>
</clipPath>
<clipPath id="clip1_0_1">
<rect width="26" height="26" fill="white"/>
</clipPath>
</defs>
</svg>
