<svg width="82" height="82" viewBox="0 0 82 82" fill="none" xmlns="http://www.w3.org/2000/svg">
<circle cx="40.5491" cy="40.5491" r="39.2991" stroke="#8C2E47" stroke-width="2.5"/>
<g clip-path="url(#clip0_544_817)">
<path d="M21 39.1266V28.1914C21.2598 27.5159 21.7627 27.271 22.4672 27.3125C23.0165 27.345 23.5698 27.3194 24.1685 27.3194C24.1685 26.2538 24.1586 25.2425 24.1705 24.2333C24.1893 22.669 25.1832 21.4474 26.6978 21.0968C26.7729 21.079 26.841 21.0336 26.9132 21.001C36.309 21.001 45.7048 21.001 55.1007 21.001C55.156 21.0306 55.2084 21.075 55.2676 21.0889C56.7052 21.4177 57.5509 22.3194 57.793 23.7612C57.8681 24.2095 57.8394 24.6767 57.8434 25.1359C57.8503 25.8519 57.8453 26.5678 57.8453 27.3204C58.4668 27.3204 59.022 27.3204 59.5773 27.3204C60.6236 27.3213 60.999 27.6956 60.999 28.7414C60.999 32.0083 60.999 35.2751 60.999 38.542C60.999 39.6036 60.6473 39.9532 59.5773 39.9571C59.0102 39.9591 58.4431 39.9571 57.8463 39.9571V40.6247C57.8463 44.8929 57.8463 49.1612 57.8463 53.4294C57.8463 54.4317 57.5983 55.4341 56.7368 55.9299C55.8071 56.4651 55.7142 57.1564 55.6866 58.0739C55.6431 59.5256 54.5761 60.7057 53.1296 60.8894C52.1288 61.0168 51.0894 61.0434 50.0886 60.9289C48.3645 60.7314 47.3192 59.4238 47.3163 57.6699C47.3163 57.3796 47.3163 57.0893 47.3163 56.793H34.6966C34.6966 57.1673 34.6996 57.51 34.6966 57.8526C34.6818 59.3636 33.6296 60.6919 32.1308 60.8854C31.1141 61.0168 30.0609 61.0306 29.0413 60.9239C27.6285 60.7758 26.7165 59.9028 26.3757 58.5262C26.2482 58.0107 26.3204 57.4487 26.27 56.9115C26.2561 56.7634 26.1623 56.554 26.0437 56.4938C24.6852 55.8064 24.1537 54.6826 24.1606 53.2013C24.1794 48.9992 24.1675 44.7962 24.1675 40.5941C24.1675 40.4015 24.1675 40.209 24.1675 39.9601C23.5609 39.9601 23.0046 39.9334 22.4524 39.967C21.7696 40.0075 21.2796 39.7655 21 39.1305L21 39.1266ZM26.3263 44.1207H55.6698V29.492H26.3263V44.1207ZM26.3075 46.2923C26.3075 46.4701 26.3075 46.6152 26.3075 46.7614C26.3075 48.9607 26.3065 51.16 26.3075 53.3583C26.3075 54.2836 26.6563 54.647 27.5791 54.648C36.5273 54.652 45.4746 54.651 54.4229 54.648C55.3506 54.648 55.7034 54.2866 55.7043 53.3681C55.7063 51.1689 55.7053 48.9696 55.7043 46.7713C55.7043 46.6142 55.6866 46.4572 55.6767 46.2923H26.3085H26.3075ZM55.7063 27.2917C55.7063 26.3565 55.7063 25.4716 55.7063 24.5868C55.7063 23.4432 55.4198 23.1539 54.2915 23.1539C45.441 23.1539 36.5896 23.1539 27.7391 23.1539C27.5583 23.1539 27.3765 23.145 27.1977 23.1657C26.7422 23.2171 26.3391 23.5775 26.3273 24.0308C26.3006 25.1082 26.3184 26.1876 26.3184 27.2927H55.7063V27.2917ZM32.5487 56.793H28.3932C28.3932 57.1535 28.3764 57.4813 28.3971 57.8062C28.4376 58.4383 28.8486 58.8254 29.4819 58.8402C29.9246 58.8501 30.3682 58.8432 30.8108 58.8432C32.4054 58.8432 32.6623 58.5736 32.5843 56.9757C32.5823 56.9283 32.5665 56.8809 32.5497 56.793H32.5487ZM49.4325 56.7802C49.4325 57.1495 49.4148 57.4754 49.4365 57.7993C49.4829 58.4827 49.8594 58.8323 50.5519 58.8412C51.208 58.8491 51.865 58.8501 52.521 58.8412C53.1405 58.8323 53.5574 58.4679 53.6118 57.8684C53.6434 57.5159 53.6177 57.1574 53.6177 56.7821H49.4335L49.4325 56.7802ZM23.1864 29.4772V37.8181H24.1359V29.4772H23.1864ZM58.8264 37.8309V29.491H57.8799V37.8309H58.8264Z" fill="#8C2E47"/>
<path d="M34.698 50.4767C34.694 52.2267 33.2891 53.6122 31.5245 53.6063C29.7738 53.6004 28.3916 52.2 28.3945 50.4333C28.3965 48.6843 29.7995 47.3007 31.568 47.3057C33.3207 47.3106 34.7029 48.711 34.6989 50.4767H34.698ZM32.5757 50.4975C32.5975 49.9188 32.1726 49.4536 31.6006 49.4289C30.9999 49.4023 30.5286 49.8417 30.5177 50.4402C30.5069 51.0179 30.9386 51.4682 31.5176 51.485C32.0936 51.5018 32.554 51.0712 32.5757 50.4975Z" fill="#8C2E47"/>
<path d="M47.3164 50.4649C47.3125 48.705 48.7016 47.3077 50.4573 47.3047C52.2198 47.3027 53.6169 48.6892 53.6198 50.4441C53.6228 52.2049 52.2317 53.6033 50.478 53.6053C48.7164 53.6063 47.3204 52.2198 47.3164 50.4639V50.4649ZM51.4976 50.4303C51.4848 49.8536 51.0333 49.4181 50.4563 49.427C49.8575 49.4358 49.4159 49.9049 49.4406 50.5054C49.4643 51.0772 49.9277 51.5038 50.5067 51.486C51.0748 51.4692 51.5105 51.0051 51.4986 50.4303H51.4976Z" fill="#8C2E47"/>
<path d="M41.0079 49.3853C41.993 49.3853 42.978 49.3813 43.963 49.3863C44.7277 49.3902 45.2356 49.8317 45.2237 50.4686C45.2128 51.0928 44.7218 51.5204 43.9838 51.5224C41.9969 51.5283 40.01 51.5283 38.0232 51.5224C37.2871 51.5204 36.7951 51.0878 36.7872 50.4647C36.7793 49.8267 37.2842 49.3912 38.0518 49.3863C39.0369 49.3813 40.0219 49.3853 41.0069 49.3853H41.0079Z" fill="#8C2E47"/>
<path d="M40.9853 26.306C38.6042 26.306 36.2232 26.308 33.8421 26.305C33.1465 26.3041 32.701 25.9703 32.6189 25.4103C32.533 24.8257 32.864 24.3339 33.4459 24.2016C33.5882 24.169 33.7393 24.169 33.8856 24.169C38.6309 24.167 43.3772 24.167 48.1226 24.169C48.8833 24.169 49.3398 24.5107 49.402 25.1121C49.4761 25.8192 48.989 26.3031 48.1779 26.306C46.3057 26.312 44.4344 26.308 42.5621 26.308C42.0365 26.308 41.5109 26.308 40.9853 26.308V26.306Z" fill="#8C2E47"/>
</g>
<defs>
<clipPath id="clip0_544_817">
<rect width="40" height="40" fill="white" transform="translate(21 21)"/>
</clipPath>
</defs>
</svg>
