<svg width="39" height="34" viewBox="0 0 39 34" fill="none" xmlns="http://www.w3.org/2000/svg">
<g clip-path="url(#clip0_547_52)">
<path d="M19.3213 7.53005C19.4713 7.35005 19.5813 7.21005 19.7113 7.08005C22.6613 3.92005 26.2813 2.72005 30.4613 3.81005C34.6713 4.91005 37.3313 7.73005 38.2413 11.99C39.5313 18.04 35.4313 23.85 29.3313 24.75C28.5013 24.87 27.6413 24.84 26.8013 24.82C26.4913 24.82 26.3813 24.88 26.2813 25.16C24.8813 28.87 22.3113 31.4 18.5713 32.68C11.5013 35.11 3.73129 30.42 2.5513 23.05C2.2313 21.09 2.3513 19.16 2.9613 17.26C3.0413 17.01 3.0013 16.85 2.8213 16.66C-2.4187 11.19 0.00129509 2.38005 7.2613 0.350047C12.3313 -1.05995 17.6713 1.95005 19.1813 7.07005C19.2213 7.20005 19.2613 7.34005 19.3213 7.53005ZM14.7213 9.68005C8.4413 9.68005 3.4113 14.72 3.4113 21C3.4113 27.21 8.49129 32.27 14.7413 32.27C20.9313 32.27 26.0013 27.17 26.0013 20.96C26.0013 14.75 20.9313 9.67005 14.7313 9.68005M26.8013 23.73C30.0013 24.29 35.0313 22.51 36.8813 17.42C38.6613 12.52 36.2213 7.09005 31.3413 5.15005C26.5213 3.23005 21.3813 5.50005 19.3413 9.45005C25.2713 12.41 27.7513 17.16 26.8013 23.72M18.3613 9.17005C18.3913 8.90005 18.4713 8.67005 18.4413 8.45005C17.8113 3.83005 13.4213 0.520047 8.73129 1.11005C2.54129 1.90005 -0.888705 8.66005 2.1613 14.09C2.5113 14.71 2.9813 15.27 3.4313 15.92C3.7013 15.42 3.9013 15.04 4.1113 14.64C3.9913 14.53 3.8713 14.43 3.7613 14.32C2.1213 12.73 1.45129 10.82 1.87129 8.57005C2.30129 6.26005 4.2513 4.74005 6.5813 4.94005C8.5413 5.10005 9.9213 6.22005 10.8913 7.86005C11.1113 8.24005 11.2713 8.65005 11.4213 8.97005C11.4213 8.97005 14.6413 8.02005 18.3313 9.18005M10.4213 9.32005C9.8113 7.69005 8.7813 6.49005 7.0213 6.04005C5.4913 5.65005 3.9813 6.34005 3.2313 7.73005C2.7913 8.56005 2.6913 9.46005 2.8013 10.37C2.9613 11.73 3.60129 12.85 4.66129 13.75C4.90129 13.46 5.1013 13.2 5.3213 12.95C5.5513 12.69 5.7913 12.45 6.0213 12.19C6.0813 12.12 6.12129 12.02 6.14129 11.92C6.25129 11.45 6.3813 10.97 6.4613 10.49C6.5313 10.1 6.6113 9.69005 6.5813 9.30005C6.5213 8.48005 5.7813 8.16005 5.12129 8.64005C4.93129 8.78005 4.74129 8.96005 4.62129 9.16005C4.41129 9.49005 4.2613 9.86005 4.0613 10.25C3.8413 9.99005 3.6213 9.73005 3.4213 9.46005C3.3713 9.39005 3.3513 9.24005 3.3913 9.16005C3.8013 8.20005 4.4313 7.44005 5.4413 7.08005C6.4213 6.73005 7.4213 7.14005 7.7613 8.12005C7.9313 8.61005 7.9213 9.18005 7.9213 9.72005C7.9213 10.06 7.78129 10.4 7.70129 10.73C8.61129 10.26 9.4813 9.80005 10.4213 9.31005" fill="#8C2E47"/>
<path d="M18.1199 17.2399C18.0699 20.8199 15.7999 23.8799 12.7399 24.7199C9.59988 25.5799 6.62988 23.8599 5.82988 20.7099C4.87988 16.9899 7.14988 12.8899 10.7799 11.7399C14.0999 10.6899 17.3499 12.6399 17.9799 16.0699C18.0699 16.5299 18.0899 17.0099 18.1199 17.2399ZM17.0799 17.4399C17.0699 17.2099 17.0599 16.9799 17.0399 16.7499C16.7899 13.6399 13.9199 11.7599 10.9699 12.7699C8.18988 13.7199 6.27988 16.8599 6.70988 19.7999C7.18988 23.1399 10.2499 24.8499 13.2999 23.3999C15.7799 22.2199 16.9099 20.1199 17.0899 17.4399" fill="#8C2E47"/>
<path d="M36.1014 12.2999C36.0414 14.7099 34.3614 16.6099 31.8214 17.0699C28.7414 17.6299 25.3914 15.5999 24.4614 12.6199C23.5914 9.81989 25.1714 7.06989 28.0314 6.39989C31.2414 5.64989 34.7414 7.57989 35.7514 10.6699C35.9214 11.1999 35.9814 11.7599 36.0914 12.2999M29.4714 7.24989C29.1414 7.27989 28.8114 7.30989 28.4914 7.35989C26.2614 7.70989 24.8614 9.79989 25.3714 11.9899C26.0414 14.8399 29.3114 16.7399 32.1414 15.9399C34.4514 15.2799 35.5614 13.0699 34.7214 10.8199C33.9414 8.74989 31.7614 7.26989 29.4814 7.24989" fill="#8C2E47"/>
<path d="M10.3586 17.3C10.2186 16.91 10.0386 16.56 9.9786 16.19C9.7686 14.82 10.8786 13.63 12.3086 13.68C13.1386 13.71 13.8786 14 14.4986 14.56C15.1486 15.16 15.4386 15.9 15.2086 16.77C14.9786 17.64 14.3786 18.15 13.4986 18.34C13.3586 18.37 13.2186 18.39 13.0886 18.41C13.2786 18.84 13.5486 19.25 13.6586 19.69C14.0186 21.19 12.7886 22.6 11.1786 22.57C10.0386 22.55 9.0886 22.09 8.3586 21.22C7.7686 20.52 7.5886 19.71 7.9286 18.85C8.2786 17.96 8.9686 17.47 9.9186 17.34C10.0686 17.32 10.2186 17.3 10.3686 17.28M10.9186 18.24C9.9286 18.24 9.1486 18.94 9.1286 19.85C9.1186 20.71 9.9886 21.49 10.9686 21.48C11.7586 21.48 12.3886 20.81 12.3886 19.99C12.3886 19.21 11.5786 18.24 10.9186 18.24ZM12.4686 14.74C11.7786 14.74 11.2186 15.31 11.2186 16.01C11.2186 16.63 11.9086 17.5 12.4086 17.5C13.3086 17.5 14.0086 16.87 13.9986 16.05C13.9986 15.32 13.2986 14.74 12.4686 14.74Z" fill="#8C2E47"/>
<path d="M33.0005 14.4701C31.4705 13.3301 29.9905 12.2301 28.5105 11.1201C28.3505 11.6701 28.2005 12.1901 28.0305 12.8001C27.6305 12.5101 27.3205 12.2901 27.0305 12.0401C26.9605 11.9801 26.9405 11.8201 26.9605 11.7101C27.0905 10.9901 27.2005 10.2701 27.3905 9.57009C27.4805 9.23009 27.7405 8.94009 27.9505 8.59009C29.9905 10.1101 31.9805 11.6001 34.0105 13.1101C33.6705 13.5601 33.3505 14.0001 33.0005 14.4701Z" fill="#8C2E47"/>
</g>
<defs>
<clipPath id="clip0_547_52">
<rect width="38.48" height="33.32" fill="white"/>
</clipPath>
</defs>
</svg>
