<svg width="58" height="37" viewBox="0 0 58 37" fill="none" xmlns="http://www.w3.org/2000/svg">
<path d="M42.6784 36.24H14.8684C7.14844 36.24 0.898438 29.98 0.898438 22.27C0.898438 14.56 7.15844 8.30005 14.8684 8.30005H42.6784C50.3984 8.30005 56.6484 14.55 56.6484 22.27C56.6484 29.99 50.3984 36.24 42.6784 36.24Z" stroke="#8C2E47" stroke-width="0.75" stroke-miterlimit="10"/>
<path d="M42.6991 32.06H14.8391C9.42907 32.06 5.03906 27.67 5.03906 22.26C5.03906 16.85 9.42907 12.46 14.8391 12.46H42.6991C48.1091 12.46 52.4991 16.85 52.4991 22.26C52.4991 27.67 48.1091 32.06 42.6991 32.06Z" stroke="#8C2E47" stroke-width="0.75" stroke-miterlimit="10"/>
<path d="M12.7784 12.5101V8.53009C12.7784 5.25009 10.1184 2.59009 6.83844 2.59009C3.55844 2.59009 0.898438 5.25009 0.898438 8.53009V22.6001" stroke="#8C2E47" stroke-width="0.75" stroke-miterlimit="10"/>
<path d="M6.19141 11.32V6.73004C6.19141 3.45004 8.85141 0.790039 12.1314 0.790039C15.4114 0.790039 18.0714 3.82004 18.0714 7.10004V8.33004" stroke="#8C2E47" stroke-width="0.75" stroke-miterlimit="10"/>
<path d="M14.8008 18.3201H18.7408" stroke="#8C2E47" stroke-width="0.75" stroke-miterlimit="10"/>
<path d="M22.6289 16.2H26.5689" stroke="#8C2E47" stroke-width="0.75" stroke-miterlimit="10"/>
<path d="M31.1797 18.3201H35.1197" stroke="#8C2E47" stroke-width="0.75" stroke-miterlimit="10"/>
<path d="M41.8892 16.2H37.9492" stroke="#8C2E47" stroke-width="0.75" stroke-miterlimit="10"/>
<path d="M14.8008 23.3401H18.7408" stroke="#8C2E47" stroke-width="0.75" stroke-miterlimit="10"/>
<path d="M22.6289 21.21H26.5689" stroke="#8C2E47" stroke-width="0.75" stroke-miterlimit="10"/>
<path d="M31.1797 23.3401H35.1197" stroke="#8C2E47" stroke-width="0.75" stroke-miterlimit="10"/>
<path d="M41.8892 21.21H37.9492" stroke="#8C2E47" stroke-width="0.75" stroke-miterlimit="10"/>
<path d="M14.8008 28.45H18.7408" stroke="#8C2E47" stroke-width="0.75" stroke-miterlimit="10"/>
<path d="M22.6289 26.3301H26.5689" stroke="#8C2E47" stroke-width="0.75" stroke-miterlimit="10"/>
<path d="M31.1797 28.45H35.1197" stroke="#8C2E47" stroke-width="0.75" stroke-miterlimit="10"/>
<path d="M41.8892 26.3301H37.9492" stroke="#8C2E47" stroke-width="0.75" stroke-miterlimit="10"/>
</svg>
