<svg width="34" height="28" viewBox="0 0 34 28" fill="none" xmlns="http://www.w3.org/2000/svg">
<path d="M22.2917 13.49C22.2917 20.1 16.6517 25.47 16.6517 25.47C16.6517 25.47 11.0117 20.11 11.0117 13.49C11.0117 6.87001 16.6517 1.51001 16.6517 1.51001C16.6517 1.51001 22.2917 6.87001 22.2917 13.49Z" stroke="#8C2E47" stroke-width="0.75" stroke-miterlimit="10"/>
<path d="M23.7602 10.3C26.6502 8.94001 29.3102 8.51001 29.3102 8.51001C29.3102 8.51001 31.0002 14.92 27.5102 19.61C24.0202 24.3 16.6602 25.47 16.6602 25.47" stroke="#8C2E47" stroke-width="0.75" stroke-miterlimit="10"/>
<path d="M30.3317 19.04C31.7517 19.46 32.6817 19.94 32.6817 19.94C32.6817 19.94 30.3817 24.97 25.9417 26.49C23.8817 27.2 21.7317 27.03 20.0117 26.64" stroke="#8C2E47" stroke-width="0.75" stroke-miterlimit="10"/>
<path d="M9.56063 10.3C6.67063 8.94001 4.01065 8.51001 4.01065 8.51001C4.01065 8.51001 2.32063 14.92 5.81063 19.61C9.30063 24.3 16.6606 25.47 16.6606 25.47" stroke="#8C2E47" stroke-width="0.75" stroke-miterlimit="10"/>
<path d="M2.9906 19.04C1.5706 19.46 0.640625 19.94 0.640625 19.94C0.640625 19.94 2.94062 24.97 7.38062 26.49C9.44062 27.2 11.5906 27.03 13.3106 26.64" stroke="#8C2E47" stroke-width="0.75" stroke-miterlimit="10"/>
</svg>
