<svg width="82" height="82" viewBox="0 0 82 82" fill="none" xmlns="http://www.w3.org/2000/svg">
<circle cx="40.5491" cy="40.5491" r="39.2991" stroke="#8C2E47" stroke-width="2.5"/>
<g clip-path="url(#clip0_544_818)">
<path d="M50.6795 20C50.8834 20.0666 51.0906 20.1243 51.2895 20.2014C52.1951 20.5543 52.8698 21.1608 53.1998 22.0601C54.0301 24.324 55.5719 25.8594 57.8858 26.6849C59.1927 27.151 59.9894 28.3608 59.9918 29.7318C59.9951 31.333 60.009 32.9342 59.9885 34.5355C59.9058 40.9549 57.8785 46.7293 53.9187 51.8362C50.9039 55.7254 47.0899 58.6439 42.5447 60.6494C41.5294 61.0971 40.5288 61.1259 39.511 60.6711C32.2842 57.4421 27.1536 52.2269 24.124 45.0374C22.9433 42.236 22.2743 39.3087 22.0745 36.2811C22.0655 36.1383 22.0254 35.9979 22 35.8567C22 33.6145 22 31.3723 22 29.1301C22.0246 29.1004 22.0622 29.0731 22.0704 29.0394C22.3578 27.8217 23.1283 27.0387 24.3107 26.6047C26.4461 25.8209 27.8921 24.3625 28.7134 22.2815C28.8722 21.8788 29.1023 21.4897 29.3635 21.1416C29.8433 20.5022 30.5688 20.2238 31.3147 20C37.7694 20 44.2249 20 50.6795 20ZM40.9791 22.4011C38.0249 22.4011 35.0698 22.4011 32.1155 22.4011C31.4523 22.4011 31.2296 22.5567 30.9913 23.1688C29.9269 25.9012 27.9969 27.7912 25.2204 28.8549C24.6054 29.0908 24.4499 29.305 24.4499 29.9644C24.4491 31.3659 24.445 32.7666 24.4507 34.1681C24.4597 36.1872 24.639 38.1944 25.136 40.1542C27.2772 48.5976 32.3456 54.7026 40.3937 58.4144C40.8301 58.6158 41.2035 58.5941 41.6309 58.4008C47.8481 55.5962 52.3646 51.1335 55.1928 45.035C56.5561 42.0956 57.3356 39.0022 57.4658 35.7733C57.5436 33.8544 57.5239 31.9323 57.5428 30.0109C57.5501 29.2865 57.397 29.086 56.7051 28.8204C53.9679 27.7711 52.0821 25.8891 51.0152 23.2129C50.7442 22.5318 50.5616 22.4011 49.8018 22.4011C46.8606 22.4011 43.9203 22.4011 40.9791 22.4011Z" fill="#8C2E47"/>
<path d="M35.8736 35.5214C35.8736 34.4159 35.8785 33.3233 35.8728 32.2307C35.8638 30.7017 36.4247 29.4029 37.5989 28.4081C39.189 27.0604 41.019 26.7258 42.9604 27.5273C44.8936 28.3247 45.9703 29.8112 46.1005 31.8777C46.1677 32.9415 46.1194 34.0124 46.1235 35.0802C46.1235 35.2246 46.1235 35.3698 46.1235 35.5286C46.4117 35.5744 46.6696 35.5968 46.9177 35.6578C48.1566 35.9618 49.0728 36.9718 49.1318 38.2225C49.1932 39.5277 49.1678 40.8369 49.1653 42.1446C49.1637 43.3984 49.1891 44.6555 49.1203 45.9062C48.9803 48.4356 46.6467 50.6738 44.0592 50.7444C42.0998 50.7973 40.1372 50.7981 38.1778 50.7564C35.1793 50.6922 32.8883 48.3834 32.8391 45.3823C32.8023 43.1144 32.817 40.845 32.8359 38.5763C32.8498 36.9261 33.8553 35.8319 35.5281 35.584C35.6337 35.5687 35.7377 35.5471 35.8745 35.523L35.8736 35.5214ZM41.0387 37.9931C39.3642 37.9931 37.6898 37.9915 36.0153 37.9939C35.4192 37.9947 35.307 38.1094 35.3062 38.7014C35.3054 40.9027 35.3005 43.1048 35.3078 45.3061C35.3136 47.0838 36.6147 48.3514 38.4242 48.3554C40.1126 48.3594 41.8002 48.3578 43.4885 48.3554C45.407 48.3538 46.6852 47.1071 46.6884 45.2259C46.6925 43.0511 46.6901 40.8762 46.6884 38.7014C46.6884 38.1102 46.5746 37.9947 45.9793 37.9939C44.3319 37.9915 42.6853 37.9931 41.0379 37.9931H41.0387ZM38.344 35.5278H43.658C43.658 34.3558 43.6711 33.211 43.6548 32.067C43.6351 30.7033 42.4708 29.5793 41.06 29.5352C39.7138 29.4935 38.434 30.5452 38.3587 31.8657C38.2899 33.073 38.344 34.2868 38.344 35.5278Z" fill="#8C2E47"/>
<path d="M42.2407 43.1883C42.2407 43.5348 42.2497 43.8822 42.2382 44.228C42.2145 44.9748 41.7019 45.5091 41.0109 45.5211C40.314 45.5332 39.7712 44.9764 39.7573 44.2143C39.745 43.5212 39.745 42.8273 39.7573 42.1342C39.7704 41.368 40.2993 40.8241 41.0043 40.8281C41.7085 40.8322 42.221 41.3769 42.2391 42.1478C42.2472 42.4944 42.2407 42.8409 42.2399 43.1875L42.2407 43.1883Z" fill="#8C2E47"/>
</g>
<defs>
<clipPath id="clip0_544_818">
<rect width="38" height="41" fill="white" transform="translate(22 20)"/>
</clipPath>
</defs>
</svg>
