<svg width="37" height="42" viewBox="0 0 37 42" fill="none" xmlns="http://www.w3.org/2000/svg">
<g id="Isolation_Mode" clip-path="url(#clip0_249_7055)">
<g id="Vector">
<mask id="path-1-inside-1_249_7055" fill="white">
<path d="M31.587 30.7003C31.587 31.5725 31.587 32.3961 31.587 33.2198C31.587 34.1721 30.8812 34.9481 29.9484 35.0239C28.9754 35.103 28.126 34.4639 28.0005 33.5075C27.9426 33.0677 27.9778 32.6154 27.9768 32.1686C27.9754 31.0665 27.9727 29.9645 27.9833 28.8624C27.9852 28.6737 27.9199 28.5766 27.7615 28.4859C25.3536 27.1036 22.9494 25.7157 20.5439 24.3297C20.4994 24.3038 20.4494 24.288 20.3549 24.2474C20.3549 24.5299 20.3549 24.7801 20.3549 25.0308C20.3549 27.5739 20.3563 30.1171 20.3517 32.6607C20.3517 32.8133 20.4054 32.8942 20.5351 32.9687C21.8467 33.7202 23.156 34.475 24.463 35.2344C25.349 35.7491 25.6431 36.8109 25.1521 37.6961C24.6774 38.5526 23.5844 38.8671 22.7067 38.3833C22.0046 37.9963 21.3145 37.587 20.6184 37.1878C20.5476 37.1471 20.4735 37.112 20.3545 37.05C20.3545 37.4177 20.3545 37.7387 20.3545 38.0601C20.3545 38.7769 20.3623 39.4937 20.3521 40.2101C20.3396 41.0814 19.7774 41.7687 18.9423 41.955C18.124 42.1377 17.2889 41.7534 16.9379 40.9917C16.8258 40.748 16.7679 40.4599 16.7619 40.1907C16.7401 39.2431 16.7512 38.295 16.7498 37.3469C16.7498 37.2642 16.7498 37.1814 16.7498 37.0519C16.6271 37.1143 16.5396 37.1536 16.4571 37.2013C15.7758 37.5948 15.1029 38.0027 14.4133 38.381C13.1785 39.0581 11.6881 38.1669 11.728 36.7762C11.7474 36.095 12.0633 35.5729 12.6621 35.2283C13.9654 34.4777 15.2655 33.7225 16.5701 32.9747C16.6989 32.9007 16.7568 32.8235 16.7563 32.6695C16.7507 29.8951 16.7507 27.1202 16.7489 24.3459C16.7489 24.2862 16.741 24.2261 16.7345 24.129C16.6414 24.1738 16.5669 24.2039 16.4983 24.2432C14.1002 25.6265 11.703 27.0116 9.30297 28.392C9.17931 28.4633 9.13531 28.5396 9.13624 28.682C9.1418 30.1693 9.14272 31.6571 9.13902 33.1444C9.1367 34.08 8.63466 34.7534 7.78387 34.9809C6.65102 35.2838 5.52698 34.4125 5.53531 33.2429C5.54087 32.4415 5.53717 31.64 5.5367 30.8385C5.5367 30.771 5.52929 30.7035 5.52327 30.598C5.42879 30.6448 5.35515 30.6757 5.28661 30.7151C4.45064 31.1951 3.61513 31.6756 2.78009 32.1571C1.86723 32.6833 0.758936 32.4179 0.253185 31.5503C-0.260902 30.6688 0.028098 29.5862 0.936782 29.0492C1.80008 28.5396 2.67356 28.047 3.54195 27.5462C3.58827 27.5194 3.63227 27.4893 3.7059 27.4426C3.32381 27.2197 2.96071 27.0069 2.59668 26.7961C2.20301 26.5676 1.80702 26.3442 1.41521 26.1125C0.524586 25.5862 0.241606 24.5161 0.754304 23.6286C1.2406 22.7869 2.3188 22.4913 3.19321 22.9848C4.5164 23.7312 5.83034 24.4939 7.14566 25.2542C7.26932 25.3258 7.36611 25.3494 7.50367 25.2699C9.8856 23.8889 12.2703 22.514 14.6546 21.1372C14.7 21.1109 14.7421 21.0799 14.8139 21.0322C14.718 20.973 14.6444 20.9245 14.568 20.8805C12.1689 19.4991 9.76843 18.1196 7.3726 16.7321C7.22439 16.6466 7.13223 16.6988 7.01737 16.7654C5.76225 17.4911 4.50668 18.2162 3.25017 18.9395C2.70598 19.2526 2.1391 19.2989 1.56388 19.0399C0.92474 18.7518 0.569974 18.2417 0.51347 17.5498C0.454652 16.8279 0.744115 16.2498 1.3638 15.8701C2.021 15.4673 2.69765 15.0959 3.36503 14.7097C3.43034 14.6718 3.49379 14.6302 3.58456 14.5738C3.49749 14.5183 3.43126 14.472 3.36179 14.4318C2.57491 13.9749 1.78711 13.5193 0.999769 13.0629C0.107295 12.5458 -0.194673 11.4641 0.307372 10.5826C0.802934 9.71317 1.91216 9.42366 2.8 9.93331C3.62254 10.4055 4.44415 10.8795 5.26669 11.3522C5.33848 11.3933 5.41304 11.4299 5.51262 11.4821C5.52049 11.3915 5.53115 11.3267 5.53161 11.2615C5.53346 10.4369 5.53856 9.61235 5.53392 8.78776C5.5279 7.72731 6.29348 6.91197 7.31146 6.90364C8.33964 6.89532 9.13578 7.70418 9.13763 8.76973C9.14041 10.3033 9.13856 11.8373 9.133 13.3709C9.13253 13.5166 9.16773 13.6072 9.30343 13.6854C11.7252 15.0742 14.1433 16.469 16.5627 17.862C16.609 17.8883 16.6572 17.911 16.7382 17.9526C16.7438 17.8509 16.7517 17.7709 16.7517 17.6913C16.7512 14.8859 16.7489 12.0806 16.7517 9.27521C16.7517 9.13508 16.7132 9.05461 16.5873 8.98246C15.2752 8.23187 13.9668 7.47526 12.6584 6.71865C11.765 6.20207 11.4603 5.10739 11.9656 4.23979C12.4746 3.36664 13.5634 3.08499 14.4605 3.59741C15.1436 3.98728 15.8245 4.38177 16.5062 4.77395C16.5711 4.81141 16.6377 4.84609 16.7507 4.90807C16.7507 4.77904 16.7507 4.69116 16.7507 4.60329C16.7507 3.66308 16.7382 2.72241 16.7549 1.78266C16.7702 0.920149 17.32 0.246324 18.1258 0.0525475C19.2438 -0.21615 20.3165 0.576531 20.3475 1.72485C20.373 2.67986 20.354 3.6358 20.3549 4.59173C20.3549 4.68192 20.3549 4.77256 20.3549 4.90575C20.4633 4.85026 20.5365 4.81649 20.6059 4.77626C21.2877 4.38454 21.9671 3.98728 22.6512 3.59973C23.564 3.08268 24.633 3.3597 25.1419 4.2384C25.6546 5.12312 25.3536 6.19513 24.4361 6.72698C23.1551 7.46971 21.8726 8.20967 20.5865 8.94269C20.4207 9.03704 20.3517 9.13647 20.3521 9.33672C20.3586 12.088 20.3545 14.8392 20.3535 17.5905C20.3535 17.658 20.3605 17.7251 20.366 17.8236C20.4466 17.7866 20.5082 17.7639 20.5638 17.7316C22.9564 16.3534 25.3471 14.9729 27.742 13.5993C27.9115 13.5022 27.9704 13.3935 27.969 13.1988C27.9616 11.7268 27.9643 10.2547 27.968 8.78267C27.9704 7.93958 28.4219 7.2838 29.1731 7.01787C30.3403 6.60488 31.5639 7.45722 31.5731 8.69388C31.5792 9.49535 31.5754 10.2968 31.5768 11.0983C31.5768 11.1723 31.5838 11.2467 31.5903 11.3702C31.8538 11.2199 32.0854 11.0886 32.316 10.9558C32.9644 10.5826 33.6068 10.1992 34.2621 9.8385C34.9439 9.46297 35.7558 9.56796 36.3305 10.0804C37.2531 10.9031 37.0891 12.3664 35.9961 13.0069C35.2445 13.4477 34.4854 13.8759 33.7295 14.3097C33.6299 14.3671 33.5308 14.4253 33.3979 14.5026C33.5443 14.59 33.6647 14.6644 33.7874 14.7352C34.4289 15.1052 35.074 15.4677 35.7113 15.8451C36.3958 16.2507 36.727 16.9934 36.5815 17.7579C36.4449 18.4747 35.8665 19.0348 35.1074 19.1722C34.6479 19.2554 34.22 19.1546 33.8184 18.9224C32.5365 18.1815 31.2531 17.443 29.9721 16.7007C29.8502 16.6304 29.7534 16.6003 29.6145 16.6813C27.1321 18.1186 24.6459 19.5505 22.1612 20.9837C22.1417 20.9948 22.126 21.0119 22.0834 21.0461C22.3983 21.2297 22.7017 21.4082 23.0064 21.5835C25.1382 22.8114 27.2719 24.0355 29.3991 25.2717C29.6076 25.3929 29.7562 25.3887 29.9609 25.2685C31.2716 24.5003 32.5856 23.7377 33.9074 22.989C34.9717 22.3864 36.2902 22.957 36.5663 24.1234C36.7538 24.9152 36.4208 25.6926 35.6983 26.1171C34.9934 26.531 34.282 26.9339 33.5739 27.3418C33.4942 27.3876 33.4169 27.437 33.3053 27.505C33.3877 27.5582 33.4461 27.5998 33.5081 27.6354C34.3571 28.1243 35.206 28.6126 36.0554 29.1001C36.9516 29.6144 37.2587 30.6841 36.7654 31.5739C36.293 32.4262 35.1963 32.7462 34.3159 32.262C33.485 31.8051 32.6703 31.3181 31.8487 30.845C31.7769 30.8034 31.7033 30.7645 31.5852 30.6993L31.587 30.7003Z"/>
</mask>
<path d="M31.587 30.7003C31.587 31.5725 31.587 32.3961 31.587 33.2198C31.587 34.1721 30.8812 34.9481 29.9484 35.0239C28.9754 35.103 28.126 34.4639 28.0005 33.5075C27.9426 33.0677 27.9778 32.6154 27.9768 32.1686C27.9754 31.0665 27.9727 29.9645 27.9833 28.8624C27.9852 28.6737 27.9199 28.5766 27.7615 28.4859C25.3536 27.1036 22.9494 25.7157 20.5439 24.3297C20.4994 24.3038 20.4494 24.288 20.3549 24.2474C20.3549 24.5299 20.3549 24.7801 20.3549 25.0308C20.3549 27.5739 20.3563 30.1171 20.3517 32.6607C20.3517 32.8133 20.4054 32.8942 20.5351 32.9687C21.8467 33.7202 23.156 34.475 24.463 35.2344C25.349 35.7491 25.6431 36.8109 25.1521 37.6961C24.6774 38.5526 23.5844 38.8671 22.7067 38.3833C22.0046 37.9963 21.3145 37.587 20.6184 37.1878C20.5476 37.1471 20.4735 37.112 20.3545 37.05C20.3545 37.4177 20.3545 37.7387 20.3545 38.0601C20.3545 38.7769 20.3623 39.4937 20.3521 40.2101C20.3396 41.0814 19.7774 41.7687 18.9423 41.955C18.124 42.1377 17.2889 41.7534 16.9379 40.9917C16.8258 40.748 16.7679 40.4599 16.7619 40.1907C16.7401 39.2431 16.7512 38.295 16.7498 37.3469C16.7498 37.2642 16.7498 37.1814 16.7498 37.0519C16.6271 37.1143 16.5396 37.1536 16.4571 37.2013C15.7758 37.5948 15.1029 38.0027 14.4133 38.381C13.1785 39.0581 11.6881 38.1669 11.728 36.7762C11.7474 36.095 12.0633 35.5729 12.6621 35.2283C13.9654 34.4777 15.2655 33.7225 16.5701 32.9747C16.6989 32.9007 16.7568 32.8235 16.7563 32.6695C16.7507 29.8951 16.7507 27.1202 16.7489 24.3459C16.7489 24.2862 16.741 24.2261 16.7345 24.129C16.6414 24.1738 16.5669 24.2039 16.4983 24.2432C14.1002 25.6265 11.703 27.0116 9.30297 28.392C9.17931 28.4633 9.13531 28.5396 9.13624 28.682C9.1418 30.1693 9.14272 31.6571 9.13902 33.1444C9.1367 34.08 8.63466 34.7534 7.78387 34.9809C6.65102 35.2838 5.52698 34.4125 5.53531 33.2429C5.54087 32.4415 5.53717 31.64 5.5367 30.8385C5.5367 30.771 5.52929 30.7035 5.52327 30.598C5.42879 30.6448 5.35515 30.6757 5.28661 30.7151C4.45064 31.1951 3.61513 31.6756 2.78009 32.1571C1.86723 32.6833 0.758936 32.4179 0.253185 31.5503C-0.260902 30.6688 0.028098 29.5862 0.936782 29.0492C1.80008 28.5396 2.67356 28.047 3.54195 27.5462C3.58827 27.5194 3.63227 27.4893 3.7059 27.4426C3.32381 27.2197 2.96071 27.0069 2.59668 26.7961C2.20301 26.5676 1.80702 26.3442 1.41521 26.1125C0.524586 25.5862 0.241606 24.5161 0.754304 23.6286C1.2406 22.7869 2.3188 22.4913 3.19321 22.9848C4.5164 23.7312 5.83034 24.4939 7.14566 25.2542C7.26932 25.3258 7.36611 25.3494 7.50367 25.2699C9.8856 23.8889 12.2703 22.514 14.6546 21.1372C14.7 21.1109 14.7421 21.0799 14.8139 21.0322C14.718 20.973 14.6444 20.9245 14.568 20.8805C12.1689 19.4991 9.76843 18.1196 7.3726 16.7321C7.22439 16.6466 7.13223 16.6988 7.01737 16.7654C5.76225 17.4911 4.50668 18.2162 3.25017 18.9395C2.70598 19.2526 2.1391 19.2989 1.56388 19.0399C0.92474 18.7518 0.569974 18.2417 0.51347 17.5498C0.454652 16.8279 0.744115 16.2498 1.3638 15.8701C2.021 15.4673 2.69765 15.0959 3.36503 14.7097C3.43034 14.6718 3.49379 14.6302 3.58456 14.5738C3.49749 14.5183 3.43126 14.472 3.36179 14.4318C2.57491 13.9749 1.78711 13.5193 0.999769 13.0629C0.107295 12.5458 -0.194673 11.4641 0.307372 10.5826C0.802934 9.71317 1.91216 9.42366 2.8 9.93331C3.62254 10.4055 4.44415 10.8795 5.26669 11.3522C5.33848 11.3933 5.41304 11.4299 5.51262 11.4821C5.52049 11.3915 5.53115 11.3267 5.53161 11.2615C5.53346 10.4369 5.53856 9.61235 5.53392 8.78776C5.5279 7.72731 6.29348 6.91197 7.31146 6.90364C8.33964 6.89532 9.13578 7.70418 9.13763 8.76973C9.14041 10.3033 9.13856 11.8373 9.133 13.3709C9.13253 13.5166 9.16773 13.6072 9.30343 13.6854C11.7252 15.0742 14.1433 16.469 16.5627 17.862C16.609 17.8883 16.6572 17.911 16.7382 17.9526C16.7438 17.8509 16.7517 17.7709 16.7517 17.6913C16.7512 14.8859 16.7489 12.0806 16.7517 9.27521C16.7517 9.13508 16.7132 9.05461 16.5873 8.98246C15.2752 8.23187 13.9668 7.47526 12.6584 6.71865C11.765 6.20207 11.4603 5.10739 11.9656 4.23979C12.4746 3.36664 13.5634 3.08499 14.4605 3.59741C15.1436 3.98728 15.8245 4.38177 16.5062 4.77395C16.5711 4.81141 16.6377 4.84609 16.7507 4.90807C16.7507 4.77904 16.7507 4.69116 16.7507 4.60329C16.7507 3.66308 16.7382 2.72241 16.7549 1.78266C16.7702 0.920149 17.32 0.246324 18.1258 0.0525475C19.2438 -0.21615 20.3165 0.576531 20.3475 1.72485C20.373 2.67986 20.354 3.6358 20.3549 4.59173C20.3549 4.68192 20.3549 4.77256 20.3549 4.90575C20.4633 4.85026 20.5365 4.81649 20.6059 4.77626C21.2877 4.38454 21.9671 3.98728 22.6512 3.59973C23.564 3.08268 24.633 3.3597 25.1419 4.2384C25.6546 5.12312 25.3536 6.19513 24.4361 6.72698C23.1551 7.46971 21.8726 8.20967 20.5865 8.94269C20.4207 9.03704 20.3517 9.13647 20.3521 9.33672C20.3586 12.088 20.3545 14.8392 20.3535 17.5905C20.3535 17.658 20.3605 17.7251 20.366 17.8236C20.4466 17.7866 20.5082 17.7639 20.5638 17.7316C22.9564 16.3534 25.3471 14.9729 27.742 13.5993C27.9115 13.5022 27.9704 13.3935 27.969 13.1988C27.9616 11.7268 27.9643 10.2547 27.968 8.78267C27.9704 7.93958 28.4219 7.2838 29.1731 7.01787C30.3403 6.60488 31.5639 7.45722 31.5731 8.69388C31.5792 9.49535 31.5754 10.2968 31.5768 11.0983C31.5768 11.1723 31.5838 11.2467 31.5903 11.3702C31.8538 11.2199 32.0854 11.0886 32.316 10.9558C32.9644 10.5826 33.6068 10.1992 34.2621 9.8385C34.9439 9.46297 35.7558 9.56796 36.3305 10.0804C37.2531 10.9031 37.0891 12.3664 35.9961 13.0069C35.2445 13.4477 34.4854 13.8759 33.7295 14.3097C33.6299 14.3671 33.5308 14.4253 33.3979 14.5026C33.5443 14.59 33.6647 14.6644 33.7874 14.7352C34.4289 15.1052 35.074 15.4677 35.7113 15.8451C36.3958 16.2507 36.727 16.9934 36.5815 17.7579C36.4449 18.4747 35.8665 19.0348 35.1074 19.1722C34.6479 19.2554 34.22 19.1546 33.8184 18.9224C32.5365 18.1815 31.2531 17.443 29.9721 16.7007C29.8502 16.6304 29.7534 16.6003 29.6145 16.6813C27.1321 18.1186 24.6459 19.5505 22.1612 20.9837C22.1417 20.9948 22.126 21.0119 22.0834 21.0461C22.3983 21.2297 22.7017 21.4082 23.0064 21.5835C25.1382 22.8114 27.2719 24.0355 29.3991 25.2717C29.6076 25.3929 29.7562 25.3887 29.9609 25.2685C31.2716 24.5003 32.5856 23.7377 33.9074 22.989C34.9717 22.3864 36.2902 22.957 36.5663 24.1234C36.7538 24.9152 36.4208 25.6926 35.6983 26.1171C34.9934 26.531 34.282 26.9339 33.5739 27.3418C33.4942 27.3876 33.4169 27.437 33.3053 27.505C33.3877 27.5582 33.4461 27.5998 33.5081 27.6354C34.3571 28.1243 35.206 28.6126 36.0554 29.1001C36.9516 29.6144 37.2587 30.6841 36.7654 31.5739C36.293 32.4262 35.1963 32.7462 34.3159 32.262C33.485 31.8051 32.6703 31.3181 31.8487 30.845C31.7769 30.8034 31.7033 30.7645 31.5852 30.6993L31.587 30.7003Z" fill="#8C2E47" stroke="white" stroke-width="1.4" mask="url(#path-1-inside-1_249_7055)"/>
</g>
</g>
<defs>
<clipPath id="clip0_249_7055">
<rect width="37" height="42" fill="white"/>
</clipPath>
</defs>
</svg>
